<svg version="1.1" xmlns="http://www.w3.org/2000/svg" xmlns:xlink="http://www.w3.org/1999/xlink" width="339.1199951171875" height="60.23999786376953"><defs></defs><g transform="translate(-170.9939727783203,35.459999084472656)"><rect fill="rgb(255,255,255)" stroke="none" x="0" y="0" width="339.1199951171875" height="60.23999786376953" fill-opacity="0" transform="translate(170.9939727783203,-35.459999084472656)"></rect><g transform="translate(170.38397216796875,30.5) rotate(0,0,0) translate(-170.38397216796875,-30.5) matrix(1,0,0,1,170.38397216796875,30.5)"><path fill="rgb(0,0,0)" fill-opacity="1" d="M45.58-21.42L45.58-21.42Q45.97-23.63 47.60-26.32L47.60-26.32Q49.57-25.69 51.30-24.73L51.30-24.73Q49.76-23.92 45.58-21.42ZM56.34-17.72L56.34-17.72Q56.34-16.91 56.00-15.76L56.00-15.76Q53.36-15.04 51.49-15.04L51.49-15.04Q46.26-15.04 45.58-19.50L45.58-19.50Q47.26-20.51 52.59-23.92L52.59-23.92Q56.34-21.23 56.34-17.72ZM21.01-18.64L21.01-18.64Q21.01-21.71 25.93-24.61Q30.85-27.52 38.05-27.61L38.05-27.61Q28.30-19.84 21.78-16.62L21.78-16.62Q21.01-17.44 21.01-18.64ZM40.06-28.19L40.06-28.19L49.18-35.92Q49.28-35.96 52.81-38.96Q56.34-41.96 58.21-43.43Q60.08-44.89 63.39-47.03Q66.70-49.16 69.20-50.08L69.20-50.08Q69.63-50.22 69.78-50.22L69.78-50.22L69.92-50.22Q69.97-50.22 69.92-50.17L69.92-50.17Q69.20-49.60 65.58-46.86Q61.95-44.12 60.01-42.49Q58.06-40.86 55.09-38.12L55.09-38.12Q49.33-32.94 46.54-27.52L46.54-27.52Q43.52-28.14 40.06-28.19ZM57.58-18.35L57.58-18.35Q57.58-22.14 53.84-24.68L53.84-24.68Q58.50-27.42 61.33-27.42L61.33-27.42Q66.66-27.42 66.66-24.40L66.66-24.40Q66.66-22.28 63.85-19.93Q61.04-17.58 57.25-16.19L57.25-16.19Q57.58-17.20 57.58-18.35ZM39.34-27.61L39.34-27.61Q43.18-27.47 46.11-26.70L46.11-26.70Q44.77-23.68 44.62-20.84L44.62-20.84Q39.68-17.87 35.96-16.31Q32.24-14.75 28.30-14.75Q24.37-14.75 22.40-16.09L22.40-16.09Q29.65-19.55 39.34-27.61ZM31.28-40.67L31.28-40.67L31.33-39.85L32.00-39.85Q36.32-39.85 40.33-41.08Q44.34-42.30 46.98-44.12Q49.62-45.95 51.18-47.99Q52.74-50.03 52.74-51.66Q52.74-53.29 51.37-54.23Q50.00-55.16 47.31-55.16L47.31-55.16Q43.23-55.16 39.44-52.76Q35.65-50.36 33.46-47.00Q31.28-43.64 31.28-40.67ZM39.10-62.46L39.10-62.46L39.25-61.88Q31.76-60.83 26.74-56.20Q21.73-51.56 21.73-46.86L21.73-46.86Q21.73-44.08 23.74-42.23Q25.76-40.38 29.79-39.95L29.79-39.95Q29.70-40.81 29.70-41.29L29.70-41.29Q29.70-43.69 31.04-46.26Q32.38-48.83 34.69-51.01Q36.99-53.20 40.45-54.61Q43.90-56.03 47.29-56.03Q50.67-56.03 52.14-54.95Q53.60-53.87 53.60-52.00Q53.60-50.12 52.02-47.94Q50.43-45.76 47.70-43.79Q44.96-41.82 40.71-40.52Q36.46-39.23 31.71-39.23L31.71-39.23L31.42-39.23Q32.48-35.15 38.48-35.15L38.48-35.15Q41.55-35.15 45.82-36.97Q50.10-38.80 54.61-42.54L54.61-42.54L54.90-42.16Q53.46-40.91 51.25-39.40Q49.04-37.88 45.20-36.25Q41.36-34.62 38.24-34.62L38.24-34.62Q31.33-34.62 29.98-39.28L29.98-39.28Q25.52-39.61 23.24-41.63Q20.96-43.64 20.96-46.67L20.96-46.67Q20.96-51.52 26.07-56.32Q31.18-61.12 39.10-62.46ZM11.74-21.76L11.74-21.76L11.74-21.23Q15.15-21.56 17.82-23.80Q20.48-26.03 20.48-28.24L20.48-28.24Q20.48-29.68 19.11-30.54Q17.74-31.40 14.96-31.40L14.96-31.40Q8.67-31.40 4.64-27.71Q0.61-24.01 0.61-19.69L0.61-19.69Q0.61-16.72 2.82-14.80Q5.02-12.88 9.30-12.88L9.30-12.88Q15.15-12.88 21.82-15.85L21.82-15.85Q23.84-14.22 27.97-14.22L27.97-14.22Q36.32-14.22 44.67-18.97L44.67-18.97Q45.39-14.46 51.15-14.46L51.15-14.46Q53.12-14.46 55.76-15.18L55.76-15.18Q53.60-10.04 43.95-6.68L43.95-6.68L43.95-6.20Q49.04-7.55 52.42-10.04Q55.81-12.54 57.01-15.52L57.01-15.52Q61.23-16.91 64.30-19.48Q67.38-22.04 67.38-24.59L67.38-24.59Q67.38-26.17 66.03-27.11Q64.69-28.04 61.95-28.04L61.95-28.04Q57.82-28.04 52.64-25.45L52.64-25.45Q50.82-26.41 48.13-27.18L48.13-27.18Q52.06-33.32 59.98-40.67Q67.90-48.01 73.90-51.42L73.90-51.42Q74.14-51.61 74.14-51.85L74.14-51.85Q74.14-52.33 73.62-52.33L73.62-52.33Q73.52-52.33 72.94-52.24L72.94-52.24Q65.60-50.75 50.34-37.79L50.34-37.79Q41.70-30.54 38.77-28.19L38.77-28.19Q30.18-28.14 25.21-25.24Q20.24-22.33 20.24-18.92L20.24-18.92Q20.24-17.48 21.25-16.38L21.25-16.38Q15.30-13.60 10.76-13.60Q6.22-13.60 4.21-15.37Q2.19-17.15 2.19-19.93L2.19-19.93Q2.19-23.92 5.77-27.37Q9.34-30.83 14.72-30.83L14.72-30.83Q17.02-30.83 18.15-29.99Q19.28-29.15 19.28-27.85L19.28-27.85Q19.28-25.88 17.10-23.99Q14.91-22.09 11.74-21.76ZM77.84-23.72L77.84-23.72Q77.84-24.11 77.07-24.11Q76.30-24.11 73.95-22.64Q71.60-21.18 69.97-19.50L69.97-19.50Q73.18-20.03 75.51-21.44Q77.84-22.86 77.84-23.72ZM68.43-16.96L68.43-16.96Q68.43-15.56 70.35-15.56L70.35-15.56Q74.00-15.56 79.42-19.50L79.42-19.50L79.52-18.78Q73.86-14.80 69.82-14.80L69.82-14.80Q66.94-14.80 66.94-17.20Q66.94-19.60 70.52-22.19Q74.10-24.78 77.89-24.78L77.89-24.78Q79.09-24.78 79.09-24.06L79.09-24.06Q79.09-22.91 76.42-21.30Q73.76-19.69 69.44-18.92L69.44-18.92Q68.43-17.77 68.43-16.96ZM87.68-24.30Q88.69-24.30 88.69-23.22Q88.69-22.14 87.15-20.08L87.15-20.08Q92.62-23.87 95.94-23.87L95.94-23.87Q97.23-23.87 97.23-22.76Q97.23-21.66 96.27-20.48Q95.31-19.31 94.16-18.44L94.16-18.44Q91.09-16.24 91.09-15.66L91.09-15.66Q91.09-15.32 91.64-15.32Q92.19-15.32 93.49-15.90Q94.78-16.48 95.79-17.08Q96.80-17.68 98.22-18.56Q99.63-19.45 99.73-19.50L99.73-19.50L99.82-18.78Q93.34-14.46 90.75-14.46L90.75-14.46Q89.50-14.46 89.50-15.66L89.50-15.66Q89.50-16.48 90.54-17.60Q91.57-18.73 92.77-19.69L92.77-19.69Q96.08-22.19 96.08-23.00L96.08-23.00Q96.08-23.24 95.55-23.24L95.55-23.24Q93.78-23.24 90.27-21.32Q86.77-19.40 82.50-15.08L82.50-15.08Q82.21-14.80 81.42-14.80Q80.62-14.80 80.62-15.23L80.62-15.23Q80.62-15.37 83.94-18.78Q87.25-22.19 87.25-23.20L87.25-23.20Q87.25-23.44 86.94-23.44Q86.62-23.44 85.64-22.81Q84.66-22.19 82.62-20.82Q80.58-19.45 79.14-18.54L79.14-18.54L78.99-19.21Q79.71-19.69 80.96-20.56Q82.21-21.42 83.02-21.97Q83.84-22.52 84.80-23.15L84.80-23.15Q86.67-24.30 87.68-24.30ZM107.98-24.30Q108.99-24.30 108.99-23.22Q108.99-22.14 107.46-20.08L107.46-20.08Q112.93-23.87 116.24-23.87L116.24-23.87Q117.54-23.87 117.54-22.76Q117.54-21.66 116.58-20.48Q115.62-19.31 114.46-18.44L114.46-18.44Q111.39-16.24 111.39-15.66L111.39-15.66Q111.39-15.32 111.94-15.32Q112.50-15.32 113.79-15.90Q115.09-16.48 116.10-17.08Q117.10-17.68 118.52-18.56Q119.94-19.45 120.03-19.50L120.03-19.50L120.13-18.78Q113.65-14.46 111.06-14.46L111.06-14.46Q109.81-14.46 109.81-15.66L109.81-15.66Q109.81-16.48 110.84-17.60Q111.87-18.73 113.07-19.69L113.07-19.69Q116.38-22.19 116.38-23.00L116.38-23.00Q116.38-23.24 115.86-23.24L115.86-23.24Q114.08-23.24 110.58-21.32Q107.07-19.40 102.80-15.08L102.80-15.08Q102.51-14.80 101.72-14.80Q100.93-14.80 100.93-15.23L100.93-15.23Q100.93-15.37 104.24-18.78Q107.55-22.19 107.55-23.20L107.55-23.20Q107.55-23.44 107.24-23.44Q106.93-23.44 105.94-22.81Q104.96-22.19 102.92-20.82Q100.88-19.45 99.44-18.54L99.44-18.54L99.30-19.21Q100.02-19.69 101.26-20.56Q102.51-21.42 103.33-21.97Q104.14-22.52 105.10-23.15L105.10-23.15Q106.98-24.30 107.98-24.30ZM120.27-15.56L120.27-15.56Q122.10-15.56 125.14-17.41Q128.19-19.26 130.23-20.99Q132.27-22.72 132.27-23.00Q132.27-23.29 131.58-23.48Q130.88-23.68 129.68-23.68Q128.48-23.68 126.51-22.74Q124.54-21.80 123.10-20.51Q121.66-19.21 120.70-17.96Q119.74-16.72 119.74-16.14Q119.74-15.56 120.27-15.56ZM133.14-23.63L133.14-23.63Q134.10-24.40 134.19-24.40L134.19-24.40Q135.49-24.25 135.54-24.18Q135.58-24.11 135.58-24.01Q135.58-23.92 135.20-23.41Q134.82-22.91 132.94-21.04L132.94-21.04Q128.29-16.48 128.29-15.52L128.29-15.52Q128.29-15.13 128.62-15.13L128.62-15.13Q130.93-15.13 137.26-19.50L137.26-19.50L137.36-18.78Q130.98-14.60 128.34-14.60L128.34-14.60Q127.04-14.60 127.04-15.83Q127.04-17.05 128.53-19.02L128.53-19.02Q122.86-14.84 119.70-14.80L119.70-14.80Q118.54-14.80 118.54-16.19L118.54-16.19Q118.54-18.68 121.74-21.52Q124.93-24.35 130.16-24.35L130.16-24.35Q131.89-24.35 133.14-23.63ZM149.79-26.60L149.79-26.60Q153.73-27.32 157.30-27.32Q160.88-27.32 163.86-26.70L163.86-26.70Q164.86-28.62 164.86-30.06L164.86-30.06Q164.86-33.08 160.88-33.08L160.88-33.08Q157.47-33.08 154.52-31.24Q151.57-29.39 149.79-26.60ZM152.10-15.71L152.10-15.71Q153.87-15.04 156.51-15.04L156.51-15.04Q163.47-15.04 171.25-21.85L171.25-21.85Q168.94-24.44 164.96-25.69L164.96-25.69Q163.28-22.67 159.87-19.93Q156.46-17.20 152.10-15.71ZM147.30-21.08L147.30-21.08Q147.30-23.44 148.59-25.84L148.59-25.84Q143.79-24.64 140.91-22.40Q138.03-20.17 138.03-18.11L138.03-18.11Q138.03-16.67 139.59-15.78Q141.15-14.89 144.10-14.89Q147.06-14.89 150.08-15.80L150.08-15.80Q147.30-17.63 147.30-21.08ZM163.52-26.12L163.52-26.12Q160.40-26.84 156.82-26.84Q153.25-26.84 149.41-26.03L149.41-26.03Q148.02-23.63 148.02-21.23L148.02-21.23Q148.02-17.77 151.04-16.14L151.04-16.14Q155.07-17.63 158.43-20.41Q161.79-23.20 163.52-26.12ZM198.13-14.27L198.13-14.27Q201.87-14.27 205.16-16.55Q208.45-18.83 210.13-21.66Q211.81-24.49 211.81-26.65L211.81-26.65Q211.81-29.39 209.41-29.39L209.41-29.39Q206.86-29.39 204.08-27.01Q201.30-24.64 199.45-21.13Q197.60-17.63 197.60-14.56L197.60-14.56L197.60-14.32Q197.74-14.27 198.13-14.27ZM168.08-41.63L168.08-41.63L168.13-40.81L168.80-40.81Q173.12-40.81 177.13-42.04Q181.14-43.26 183.78-45.08Q186.42-46.91 187.98-48.95Q189.54-50.99 189.54-52.62Q189.54-54.25 188.17-55.19Q186.80-56.12 184.11-56.12L184.11-56.12Q180.03-56.12 176.24-53.72Q172.45-51.32 170.26-47.96Q168.08-44.60 168.08-41.63ZM175.90-63.42L175.90-63.42L176.05-62.84Q168.56-61.79 163.54-57.16Q158.53-52.52 158.53-47.82L158.53-47.82Q158.53-45.04 160.54-43.19Q162.56-41.34 166.59-40.91L166.59-40.91Q166.50-41.77 166.50-42.25L166.50-42.25Q166.50-44.65 167.84-47.22Q169.18-49.79 171.49-51.97Q173.79-54.16 177.25-55.57Q180.70-56.99 184.09-56.99Q187.47-56.99 188.94-55.91Q190.40-54.83 190.40-52.96Q190.40-51.08 188.82-48.90Q187.23-46.72 184.50-44.75Q181.76-42.78 177.51-41.48Q173.26-40.19 168.51-40.19L168.51-40.19L168.22-40.19Q169.28-36.11 175.28-36.11L175.28-36.11Q178.35-36.11 182.62-37.93Q186.90-39.76 191.41-43.50L191.41-43.50L191.70-43.12Q190.26-41.87 188.05-40.36Q185.84-38.84 182.00-37.21Q178.16-35.58 175.04-35.58L175.04-35.58Q168.13-35.58 166.78-40.24L166.78-40.24Q162.32-40.57 160.04-42.59Q157.76-44.60 157.76-47.63L157.76-47.63Q157.76-52.48 162.87-57.28Q167.98-62.08 175.90-63.42ZM206.19-7.84L206.19-7.84Q207.73-7.84 209.46-8.41L209.46-8.41L209.84-8.17Q208.35-7.36 205.52-7.36L205.52-7.36Q201.25-7.36 199.16-9.16Q197.07-10.96 196.93-13.98L196.93-13.98Q194.96-14.46 193.71-16.16Q192.46-17.87 192.46-20.10Q192.46-22.33 193.57-24.83Q194.67-27.32 196.23-29.58Q197.79-31.84 200.38-34.67Q202.98-37.50 204.94-39.47Q206.91-41.44 209.94-44.08L209.94-44.08Q214.06-47.72 218.05-50.99L218.05-50.99L217.95-51.08Q203.36-42.20 181.90-19.12L181.90-19.12L179.22-15.61Q178.98-15.47 178.78-15.47Q178.59-15.47 178.59-15.76L178.59-15.76L179.17-16.76L183.97-24.35Q188.62-32.12 190.50-35.15L190.50-35.15Q197.07-45.85 202.64-50.89L202.64-50.89Q201.82-50.89 198.22-47.53L198.22-47.53L197.02-46.38Q180.66-29.53 172.54-22.24L172.54-22.24Q174.99-19.64 174.99-16.67L174.99-16.67Q174.99-12.97 171.08-9.92Q167.17-6.88 159.54-5.72L159.54-5.72L159.54-6.25Q166.21-7.31 169.76-10.26Q173.31-13.21 173.31-16.81L173.31-16.81Q173.31-19.21 171.63-21.42L171.63-21.42Q167.74-18.06 164.05-16.24Q160.35-14.41 156.66-14.41Q152.96-14.41 150.94-15.37L150.94-15.37Q147.44-14.36 144.03-14.36Q140.62-14.36 138.80-15.44Q136.98-16.52 136.98-18.20L136.98-18.20Q136.98-20.51 140.14-22.88Q143.31-25.26 148.93-26.46L148.93-26.46Q150.80-29.58 154.14-31.67Q157.47-33.76 161.46-33.76L161.46-33.76Q163.90-33.76 165.10-32.72Q166.30-31.69 166.30-29.96Q166.30-28.24 165.30-26.32L165.30-26.32Q169.66-25.02 172.11-22.62L172.11-22.62Q172.50-23.00 174.75-25.07Q177.01-27.13 182.79-32.89Q188.58-38.65 192.56-42.73L192.56-42.73L196.50-46.76Q202.64-52.76 207.01-53.72L207.01-53.72Q207.54-53.72 207.54-53.46Q207.54-53.20 207.25-53.10L207.25-53.10Q205.04-52.43 203.12-50.15Q201.20-47.87 198.46-43.88Q195.73-39.90 194.29-37.55L194.29-37.55L186.03-24.44Q186.03-24.40 186.18-24.40L186.18-24.40L186.80-24.88Q195.92-34.48 203.72-41.27Q211.52-48.06 220.26-53.15L220.26-53.15Q222.13-54.40 222.39-54.40Q222.66-54.40 222.66-54.11Q222.66-53.82 222.56-53.72Q222.46-53.63 220.52-52.09Q218.58-50.56 216.94-49.07Q215.31-47.58 214.06-46.43Q212.82-45.28 209.94-42.44Q207.06-39.61 205.26-37.67Q203.46-35.72 201.01-32.82Q198.56-29.92 197.17-27.71L197.17-27.71Q193.71-22.24 193.71-18.73L193.71-18.73Q193.71-16.57 195.34-15.18L195.34-15.18Q196.02-14.60 196.93-14.41L196.93-14.41Q196.93-17.72 198.85-21.40Q200.77-25.07 203.82-27.61Q206.86-30.16 209.84-30.16L209.84-30.16Q211.52-30.16 212.55-29.12Q213.58-28.09 213.58-26.22Q213.58-24.35 212.41-22.21Q211.23-20.08 209.26-18.20Q207.30-16.33 204.39-15.06Q201.49-13.79 198.37-13.79L198.37-13.79L197.65-13.84Q198.18-7.84 206.19-7.84ZM215.36-16.00L215.36-16.00Q215.36-16.52 216.22-17.29Q217.09-18.06 217.78-18.06Q218.48-18.06 218.48-17.44L218.48-17.44Q218.48-16.72 217.62-16.02Q216.75-15.32 216.06-15.32Q215.36-15.32 215.36-16.00ZM255.44-49.12L255.44-49.12Q251.31-49.12 245.46-44.65Q239.60-40.19 234.56-33.80L234.56-33.80L235.47-33.80Q238.83-33.80 242.24-34.84Q245.65-35.87 248.31-37.50Q250.98-39.13 253.11-41.00Q255.25-42.88 256.40-44.60Q257.55-46.33 257.55-47.53L257.55-47.53Q257.55-49.12 255.44-49.12ZM227.41-44.75L227.41-44.75Q231.25-44.75 235.09-46.12Q238.93-47.48 241.64-49.48Q244.35-51.47 246.06-53.70Q247.76-55.93 247.76-57.71L247.76-57.71Q247.76-60.88 242.67-60.88L242.67-60.88Q238.40-60.88 234.46-58.43Q230.53-55.98 228.03-52.33Q225.54-48.68 224.86-44.89L224.86-44.89Q226.11-44.75 227.41-44.75ZM226.69-17.58L226.69-17.58Q226.69-12.64 232.54-12.64L232.54-12.64Q237.01-12.64 243.39-16.96Q249.78-21.28 255.22-27.11Q260.67-32.94 264.56-39.16Q268.45-45.37 268.45-48.90Q268.45-52.43 264.51-52.43L264.51-52.43Q263.50-52.43 261.70-51.78Q259.90-51.13 259.09-50.36L259.09-50.36Q258.37-50.56 258.37-50.89L258.37-50.89Q258.37-51.37 260.58-52.16Q262.78-52.96 264.70-52.96L264.70-52.96Q269.41-52.96 269.41-48.83L269.41-48.83Q269.41-46.28 267.58-42.49Q265.76-38.70 262.83-34.64Q259.90-30.59 255.97-26.51Q252.03-22.43 247.98-19.24Q243.92-16.04 239.70-14.03Q235.47-12.01 231.97-12.01Q228.46-12.01 226.66-13.74Q224.86-15.47 224.86-18.49L224.86-18.49Q224.86-24.78 231.06-33.42L231.06-33.42Q227.31-34.24 225.51-36.64Q223.71-39.04 223.71-42.40L223.71-42.40Q223.71-43.31 223.86-44.41L223.86-44.41Q219.54-44.94 217.38-47.03Q215.22-49.12 215.22-52.04L215.22-52.04Q215.22-56.36 219.30-60.56Q223.38-64.76 229.47-65.96L229.47-65.96L229.62-65.24Q224.24-64.33 220.54-60.35Q216.85-56.36 216.85-52.14L216.85-52.14Q216.85-49.45 218.60-47.56Q220.35-45.66 223.95-44.99L223.95-44.99Q224.72-49.02 227.34-52.84Q229.95-56.65 234.15-59.24Q238.35-61.84 242.96-61.84L242.96-61.84Q245.74-61.84 247.16-60.76Q248.58-59.68 248.58-57.80Q248.58-55.93 246.94-53.58Q245.31-51.23 242.58-49.12Q239.84-47.00 235.69-45.61Q231.54-44.22 227.02-44.22L227.02-44.22Q225.49-44.22 224.77-44.32L224.77-44.32Q224.67-43.16 224.67-42.59L224.67-42.59Q224.67-39.47 226.40-37.24Q228.13-35.00 231.63-34.19L231.63-34.19Q236.62-40.86 243.15-45.35Q249.68-49.84 255.73-49.84L255.73-49.84Q258.51-49.84 258.51-47.72L258.51-47.72Q258.51-46.00 256.62-43.52Q254.72-41.05 251.65-38.70Q248.58-36.35 244.06-34.69Q239.55-33.04 234.94-33.04L234.94-33.04L233.98-33.04Q230.67-28.72 228.68-24.59Q226.69-20.46 226.69-17.58ZM262.69-25.31L262.69-25.31Q262.88-25.60 263.14-25.60Q263.41-25.60 263.41-25.31Q263.41-25.02 263.12-24.73Q262.83-24.44 262.71-22.98Q262.59-21.52 261.97-19.43Q261.34-17.34 259.81-15.66L259.81-15.66Q259.81-15.56 260.00-15.56L260.00-15.56Q260.34-15.56 262.45-16.72L262.45-16.72L263.12-17.05Q264.94-18.06 267.01-19.50L267.01-19.50L267.10-18.78Q259.62-13.93 255.63-13.93L255.63-13.93Q254.05-13.93 253.30-14.60Q252.56-15.28 252.56-16.09Q252.56-16.91 252.94-17.41Q253.33-17.92 253.90-17.92L253.90-17.92Q254.62-17.92 254.62-17.15L254.62-17.15Q254.62-16.67 253.86-16.28L253.86-16.28Q253.62-16.14 253.62-15.80Q253.62-15.47 254.17-15.01Q254.72-14.56 255.34-14.56L255.34-14.56Q257.46-14.56 258.97-17.22Q260.48-19.88 260.91-22.52L260.91-22.52L260.91-22.67Q256.26-19.50 254.62-18.54L254.62-18.54L254.48-19.21Q262.30-24.25 262.69-25.31ZM288.85-38.99L288.85-38.99Q288.85-38.80 288.32-38.29Q287.79-37.79 286.42-36.52Q285.06-35.24 283.14-33.47Q281.22-31.69 279.92-30.49L279.92-30.49L287.94-30.49Q288.08-30.49 288.08-30.30L288.08-30.30Q288.08-29.72 287.65-29.72L287.65-29.72L279.10-29.72Q266.72-18.01 266.72-15.85L266.72-15.85Q266.72-15.32 267.39-15.32L267.39-15.32Q268.54-15.32 274.11-18.83L274.11-18.83Q275.07-19.40 275.26-19.50L275.26-19.50L275.36-18.78Q268.83-14.46 266.10-14.46L266.10-14.46Q264.66-14.46 264.66-15.52L264.66-15.52Q264.66-17.00 266.91-19.55L266.91-19.55Q269.89-23.10 276.85-29.68L276.85-29.68L268.59-29.68Q267.92-29.68 267.92-30.08Q267.92-30.49 268.30-30.49L268.30-30.49L277.66-30.49L287.26-39.32Q287.50-39.52 288.18-39.47Q288.85-39.42 288.85-38.99ZM276.42-15.28L276.42-15.28Q279.87-15.28 283.14-18.73L283.14-18.73L283.14-18.78Q283.14-21.08 285.34-23.10L285.34-23.10Q285.20-23.63 284.53-23.63L284.53-23.63Q280.98-23.63 278.24-20.96Q275.50-18.30 275.50-16.28L275.50-16.28Q275.50-15.28 276.42-15.28ZM283.86-24.35L283.86-24.35Q286.40-24.35 286.40-22.67L286.40-22.67Q286.40-21.23 284.62-19.21L284.62-19.21L284.62-18.83Q284.62-17.24 286.02-17.24L286.02-17.24Q286.88-17.24 287.94-17.96L287.94-17.96L290.29-19.50L290.38-18.78L288.18-17.39Q286.64-16.38 285.18-16.38Q283.71-16.38 283.23-17.87L283.23-17.87Q279.39-14.46 275.94-14.46L275.94-14.46Q273.87-14.46 273.87-16.43L273.87-16.43Q273.87-18.92 276.80-21.64Q279.73-24.35 283.86-24.35ZM290.53-15.56L290.53-15.56Q292.21-15.56 295.18-17.32Q298.16-19.07 300.34-20.87Q302.53-22.67 302.53-22.98Q302.53-23.29 301.83-23.48Q301.14-23.68 299.94-23.68Q298.74-23.68 296.77-22.74Q294.80-21.80 293.36-20.51Q291.92-19.21 290.96-17.96Q290.00-16.72 290.00-16.14Q290.00-15.56 290.53-15.56ZM315.01-32.89Q313.04-30.97 310.35-28.31Q307.66-25.64 306.10-24.04Q304.54-22.43 303.51-21.42Q302.48-20.41 301.76-19.67Q301.04-18.92 300.22-18.06Q299.41-17.20 298.98-16.55Q298.54-15.90 298.54-15.52Q298.54-15.13 298.88-15.13L298.88-15.13Q301.18-15.13 307.52-19.50L307.52-19.50L307.62-18.78Q301.23-14.60 298.59-14.60L298.59-14.60Q297.30-14.60 297.30-15.80L297.30-15.80Q297.30-17.10 298.83-19.02L298.83-19.02Q293.17-14.84 289.95-14.80L289.95-14.80Q288.80-14.80 288.80-16.19L288.80-16.19Q288.80-18.68 291.99-21.52Q295.18-24.35 300.42-24.35L300.42-24.35Q302.19-24.35 303.44-23.63L303.44-23.63Q303.68-23.82 304.02-24.16L304.02-24.16L324.08-43.60Q324.37-43.88 325.23-43.88Q326.10-43.88 326.10-43.36L326.10-43.36Q326.10-43.16 325.88-42.95Q325.66-42.73 324.46-41.68Q323.26-40.62 322.14-39.59Q321.01-38.56 318.99-36.68Q316.98-34.81 315.01-32.89ZM307.76-15.56L307.76-15.56Q309.58-15.56 312.63-17.41Q315.68-19.26 317.72-20.99Q319.76-22.72 319.76-23.00Q319.76-23.29 319.06-23.48Q318.37-23.68 317.17-23.68Q315.97-23.68 314.00-22.74Q312.03-21.80 310.59-20.51Q309.15-19.21 308.19-17.96Q307.23-16.72 307.23-16.14Q307.23-15.56 307.76-15.56ZM320.62-23.63L320.62-23.63Q321.58-24.40 321.68-24.40L321.68-24.40Q322.98-24.25 323.02-24.18Q323.07-24.11 323.07-24.01Q323.07-23.92 322.69-23.41Q322.30-22.91 320.43-21.04L320.43-21.04Q315.78-16.48 315.78-15.52L315.78-15.52Q315.78-15.13 316.11-15.13L316.11-15.13Q318.42-15.13 324.75-19.50L324.75-19.50L324.85-18.78Q318.46-14.60 315.82-14.60L315.82-14.60Q314.53-14.60 314.53-15.83Q314.53-17.05 316.02-19.02L316.02-19.02Q310.35-14.84 307.18-14.80L307.18-14.80Q306.03-14.80 306.03-16.19L306.03-16.19Q306.03-18.68 309.22-21.52Q312.42-24.35 317.65-24.35L317.65-24.35Q319.38-24.35 320.62-23.63ZM331.23-22.48L331.23-22.48L333.49-22.76Q334.06-22.76 334.40-22.38Q334.74-22.00 334.74-21.47L334.74-21.47Q334.74-20.41 333.25-19.16Q331.76-17.92 330.30-16.81Q328.83-15.71 328.83-15.04L328.83-15.04Q328.83-14.65 329.46-14.65L329.46-14.65Q331.52-14.65 335.74-17.05L335.74-17.05Q337.57-18.06 339.63-19.50L339.63-19.50L339.73-18.78Q338.10-17.72 336.08-16.62L336.08-16.62Q334.93-15.90 332.72-14.96Q330.51-14.03 329.07-14.03Q327.63-14.03 327.63-15.32L327.63-15.32Q327.63-16.81 329.17-18.13Q330.70-19.45 332.22-20.34Q333.73-21.23 333.73-21.71L333.73-21.71Q333.73-21.85 333.39-21.85L333.39-21.85L330.70-21.61Q329.94-21.61 329.31-21.76L329.31-21.76Q327.01-20.12 324.46-18.54L324.46-18.54L324.32-19.21L328.88-22.38Q328.93-23.29 330.03-24.20Q331.14-25.12 331.90-25.12Q332.67-25.12 332.67-24.71Q332.67-24.30 331.76-23.68Q330.85-23.05 330.85-22.76Q330.85-22.48 331.23-22.48Z"></path></g></g></svg>