<svg version="1.1" xmlns="http://www.w3.org/2000/svg" xmlns:xlink="http://www.w3.org/1999/xlink" width="83.30000305175781" height="37.029998779296875"><defs></defs><g transform="translate(-46.56047058105469,12.670000076293945)"><rect fill="rgb(255,255,255)" stroke="none" x="0" y="0" width="83.30000305175781" height="37.029998779296875" fill-opacity="0" transform="translate(46.56047058105469,-12.670000076293945)"></rect><g transform="translate(42.48046875,18.5) rotate(0,0,0) translate(-42.48046875,-18.5) matrix(1,0,0,1,42.48046875,18.5)"><path fill="rgb(0,0,0)" fill-opacity="1" d="M10.99-25.78L10.99-25.78L9.94-26.30Q10.36-28.95 12.42-29.74L12.42-29.74Q13.08-29.98 13.80-29.98L13.80-29.98Q15.82-29.98 17.34-28.45L17.34-28.45Q18.87-26.95 18.87-25.08L18.87-25.08Q18.89-22.64 17.84-19.45L17.84-19.45Q15.30-11.88 8.88-4.73L8.88-4.73L7.27-3.02Q6.35-2.20 6.02-2.16L6.02-2.16Q5.02-2.18 4.08-4.10L4.08-4.10Q4.38-4.97 7.14-13.85Q9.89-22.73 10.99-25.78ZM13.08-27.35L13.08-27.35Q13.08-25.41 12.34-22.96Q11.60-20.51 11.29-19.46Q10.97-18.42 9.48-14.02Q7.99-9.61 7.27-6.73L7.27-6.73Q9.07-8.63 10.80-11.27L10.80-11.27Q10.90-11.41 10.97-11.51L10.97-11.51Q16.31-19.78 16.31-27.05L16.31-27.05Q16.31-27.87 15.87-28.01L15.87-28.01Q15.73-28.03 15.59-28.03L15.59-28.03Q14.11-28.01 13.08-27.35ZM26.60-18.28L26.60-18.21L26.55-17.91L26.51-17.63Q26.51-17.06 24.87-13.13L24.87-13.13Q23.20-9.19 23.23-7.55L23.23-7.55Q23.27-4.76 24.59-4.73L24.59-4.73Q25.90-4.73 28.43-7.66L28.43-7.66Q31.48-11.18 32.16-12.96L32.16-12.96Q32.84-14.72 33.21-14.72L33.21-14.72Q33.52-14.70 33.54-14.06L33.54-14.06Q33.54-13.45 33.40-13.13L33.40-13.13L33.16-12.49Q32.16-9.91 30-7.13L30-7.13Q26.88-3.02 24.45-3.02L24.45-3.02Q23.67-3.02 23.04-3.42L23.04-3.42Q21.45-4.43 21.45-7.22L21.45-7.22Q21.45-8.13 21.86-10.03Q22.27-11.93 22.25-12.08Q22.24-12.23 21.82-12.42L21.82-12.42Q20.98-12.80 20.70-12.52L20.70-12.52Q20.46-12.19 18.62-7.45Q16.78-2.72 16.10-2.72L16.10-2.72Q15.89-2.72 15.29-3Q14.70-3.28 14.70-3.77L14.70-3.77Q14.70-3.87 15.30-5.20L15.30-5.20L16.59-8.18Q17.95-11.32 19.78-16.55L19.78-16.55L22.90-25.36Q23.02-25.69 23.65-25.71L23.65-25.71L24.26-25.73Q25.38-25.73 25.38-24.91L25.38-24.91Q25.38-24.52 24.16-21.40Q22.95-18.28 22.59-16.59L22.59-16.59L22.52-15.89Q22.52-15.59 22.64-15.54L22.64-15.54Q22.71-15.56 23.23-16.57L23.23-16.57L23.84-17.77Q23.98-17.98 24.12-18.33L24.12-18.33Q24.63-19.29 25.34-19.29L25.34-19.29Q26.55-19.27 26.60-18.28L26.60-18.28ZM37.52-19.92L37.52-19.92Q36.35-19.73 34.50-14.06Q32.65-8.39 32.65-7.36Q32.65-6.33 32.84-6.33L32.84-6.33Q33.82-6.33 35.91-10.56Q37.99-14.79 37.99-18.30L37.99-18.30Q37.99-19.90 37.52-19.92ZM37.15-22.83L37.15-22.83Q37.80-22.83 38.27-22.45L38.27-22.45Q39.09-21.75 39.09-19.73L39.09-19.73Q39.09-10.52 35.81-5.93L35.81-5.93L35.48-5.44Q33.45-2.48 32.20-2.48L32.20-2.48Q30.68-2.65 30.45-4.71L30.45-4.71Q30.45-6.42 31.84-11.65Q33.23-16.88 35.04-20.70L35.04-20.70Q36.07-22.80 37.15-22.83ZM48.54-21.59L48.54-21.59L56.95-21.77Q57.21-21.77 57.52-21.32Q57.82-20.86 57.84-20.09L57.84-20.09Q57.82-19.57 56.51-19.55L56.51-19.55Q52.62-19.45 47.09-18.61L47.09-18.61Q46.69-17.46 45.80-15.30L45.80-15.30Q41.88-5.84 41.88-2.02L41.88-2.02Q41.88-0.12 42.61 1.64L42.61 1.64Q43.88 4.59 46.38 4.59L46.38 4.59Q48.33 4.59 49.65 3.60Q50.98 2.60 52.78 0.33L52.78 0.33Q53.34-0.40 53.95-0.19L53.95-0.19Q54.54 0.07 54.54 0.82L54.54 0.82Q54.54 2.98 52.05 4.42Q49.57 5.86 46.72 5.86Q43.88 5.86 41.80 3.77Q39.73 1.69 39.73-1.78L39.73-1.78Q39.73-4.10 40.31-6.75Q40.90-9.40 42.45-13.35Q43.99-17.30 44.46-18.61L44.46-18.61Q39.61-18.61 39.05-18.73L39.05-18.73Q37.31-19.10 37.29-20.20L37.29-20.20Q37.31-20.55 37.83-20.65L37.83-20.65L45.45-21.28L50.46-29.72Q51.33-31.17 52.03-31.17L52.03-31.17Q52.31-31.17 52.69-31.08L52.69-31.08Q54.07-30.77 54.07-30.08Q54.07-29.39 52.66-27.96Q51.26-26.53 50.93-26.13L50.93-26.13Q49.83-24.77 48.54-21.59ZM64.31-18.77L64.31-18.77Q60.56-18.14 57.77-13.85L57.77-13.85Q55.05-9.68 54.91-5.60L54.91-5.60Q60.28-12.68 64.31-18.77ZM63.23-20.77L63.23-20.77L64.62-20.58Q64.95-20.58 65.31-20.95Q65.67-21.33 66.25-21.33Q66.82-21.33 67.16-21.02Q67.50-20.72 67.50-20.50Q67.50-20.27 67.27-19.76Q67.03-19.24 66.98-19.08L66.98-19.08Q63.87-9.30 63.87-6.61L63.87-6.61Q63.89-5.67 64.29-5.65L64.29-5.65Q65.72-5.65 68.77-9.40L68.77-9.40Q70.80-11.91 71.40-13.08Q72-14.25 72.35-14.32L72.35-14.32Q72.42-14.32 72.47-14.34L72.47-14.34Q72.89-14.30 72.91-13.85L72.91-13.85Q72.91-13.01 70.97-10.05L70.97-10.05Q66.82-3.73 63.80-3.73L63.80-3.73Q61.62-3.73 61.62-6.77L61.62-6.77Q61.62-8.23 62.20-10.39Q62.79-12.56 62.91-13.10L62.91-13.10Q62.37-12.40 59.30-7.99Q56.23-3.59 54.89-2.79L54.89-2.79Q54.47-2.55 54.16-2.53L54.16-2.53Q52.83-2.53 52.22-3.59L52.22-3.59Q51.94-4.10 51.93-5.07Q51.91-6.05 53.37-9.56L53.37-9.56Q55.71-15.23 58.69-18.30L58.69-18.30Q61.03-20.70 63.23-20.77ZM87.38-12.23L87.38-12.23Q87.38-11.06 84.70-7.92Q82.03-4.78 80.71-3.79Q79.38-2.79 78.05-2.79L78.05-2.79Q75.56-2.81 75.56-6.73L75.56-6.73Q75.56-8.58 76.31-12.53Q77.06-16.48 77.11-16.83L77.11-16.83Q74.63-16.01 72.35-10.59L72.35-10.59Q71.88-9.45 70.85-6.68L70.85-6.68Q69.84-3.94 69.42-3.42L69.42-3.42Q68.91-2.81 68.06-2.81Q67.22-2.81 67.20-3.42L67.20-3.42Q67.20-4.55 74.72-22.08L74.72-22.08Q75.89-24.84 76.08-25.17L76.08-25.17Q76.48-25.95 77.74-25.10L77.74-25.10Q78.12-24.84 78.13-24.59Q78.14-24.33 77.77-23.77L77.77-23.77Q76.90-22.41 76.22-20.60L76.22-20.60L75.33-18.28L76.08-19.20Q77.09-20.44 77.70-21.08Q78.30-21.73 78.71-21.81Q79.13-21.89 79.57-21.89L79.57-21.89Q80.53-21.82 80.58-20.86L80.58-20.86Q80.58-20.39 80.25-19.59L80.25-19.59Q78.77-16.20 77.98-9.30L77.98-9.30Q77.77-7.34 77.78-5.85Q77.79-4.36 78.49-4.34L78.49-4.34Q79.48-4.34 82.08-7.39Q84.68-10.45 85.83-12.47L85.83-12.47Q86.13-12.96 86.70-12.98L86.70-12.98Q87.28-12.84 87.38-12.23Z"></path></g></g></svg>