<svg version="1.1" xmlns="http://www.w3.org/2000/svg" xmlns:xlink="http://www.w3.org/1999/xlink" width="100.32315063476562" height="42.76797103881836"><defs></defs><g transform="translate(-51.49283218383789,20.217971801757812)"><rect fill="rgb(255,255,255)" stroke="none" x="0" y="0" width="100.32315063476562" height="42.76797103881836" fill-opacity="0" transform="translate(51.49283218383789,-20.217971801757812)"></rect><g transform="translate(50.8759765625,22) rotate(0,0,0) translate(-50.8759765625,-22) matrix(1,0,0,1,50.8759765625,22)"><path fill="rgb(0,0,0)" fill-opacity="1" d="M0.73-28.21L0.73-29.08Q0.73-30.13 0.73-31.52Q0.73-32.91 0.99-34.17Q1.25-35.43 1.90-36.25Q2.55-37.08 4.03-37.08L4.03-37.08Q4.72-37.08 5.20-35.86Q5.68-34.65 5.94-32.69Q6.20-30.73 6.38-28.39Q6.55-26.04 6.59-23.87Q6.64-21.70 6.68-19.96Q6.72-18.22 6.72-17.61L6.72-17.61Q6.90-15.35 7.38-13.05Q7.85-10.74 8.33-8.40Q8.81-6.05 9.20-3.79Q9.59-1.53 9.59 0.55L9.59 0.55Q6.55 0.55 4.72-0.75Q2.90-2.05 1.99-4.23Q1.07-6.40 0.81-9.22Q0.55-12.05 0.64-14.96Q0.73-17.87 0.86-20.78Q0.99-23.69 0.81-26.04L0.81-26.04L0.81-26.48Q0.81-26.91 0.77-27.34Q0.73-27.78 0.73-28.21L0.73-28.21ZM43.05-2.40L43.05-2.40Q40.19-2.40 37.45-1.92Q34.71-1.44 31.93-1.44L31.93-1.44Q30.02-1.44 27.80-1.49Q25.58-1.53 23.37-1.84Q21.15-2.14 19.07-2.79Q16.98-3.44 15.37-4.62Q13.76-5.79 12.76-7.53Q11.76-9.27 11.76-11.87L11.76-11.87Q11.76-15.00 13.46-17.26Q15.15-19.52 17.63-20.87Q20.11-22.22 23.11-22.87Q26.11-23.52 28.89-23.52L28.89-23.52Q32.54-23.52 36.32-22.35Q40.10-21.17 43.31-19.26L43.31-19.26L43.31-35.34Q43.31-36.47 43.71-36.77Q44.10-37.08 44.79-37.08L44.79-37.08Q46.01-37.08 46.88-34.69Q47.75-32.30 48.36-28.56Q48.96-24.82 49.35-20.30Q49.75-15.79 49.92-11.61Q50.09-7.44 50.14-4.18Q50.18-0.92 50.18 0.47L50.18 0.47Q48.79 0.47 47.79-0.01Q46.79-0.49 46.05-1.01Q45.31-1.53 44.62-1.97Q43.92-2.40 43.05-2.40ZM16.89-11.87L16.89-11.87Q16.89-10.14 17.85-9.05Q18.80-7.96 20.37-7.27Q21.93-6.57 23.85-6.22Q25.76-5.88 27.67-5.75Q29.58-5.62 31.32-5.62L31.32-5.62L34.19-5.62Q34.36-5.62 35.80-5.53Q37.23-5.44 38.88-5.57Q40.53-5.70 41.92-6.09Q43.31-6.49 43.31-7.44L43.31-7.44L43.31-16.74Q42.36-15.79 41.62-15.35Q40.88-14.92 39.75-14.92L39.75-14.92Q39.66-14.92 38.79-15.48Q37.93-16.05 36.49-16.70Q35.06-17.35 33.19-17.91Q31.32-18.48 29.15-18.48L29.15-18.48Q27.67-18.48 25.58-18.18Q23.50-17.87 21.54-17.13Q19.59-16.39 18.24-15.09Q16.89-13.79 16.89-11.87ZM56.87-0.58L56.87-0.58Q56.26-2.31 55.79-4.36Q55.31-6.40 55.00-8.57Q54.70-10.74 54.53-12.83Q54.35-14.92 54.35-16.74L54.35-16.74Q54.35-17.00 54.44-17.74Q54.53-18.48 54.66-19.26Q54.79-20.04 54.96-20.78Q55.13-21.52 55.22-21.78L55.22-21.78Q55.31-21.87 56.00-21.96Q56.70-22.04 56.87-22.04L56.87-22.04Q58.00-22.04 58.70-20.83Q59.39-19.61 59.92-17.70Q60.44-15.79 60.65-13.48Q60.87-11.18 61.04-9.05Q61.22-6.92 61.22-5.27Q61.22-3.62 61.22-3.01L61.22-3.01Q61.22-2.75 61.26-2.18Q61.31-1.62 61.22-1.05Q61.13-0.49 60.83-0.14Q60.52 0.21 59.83 0.21L59.83 0.21L59.48 0.21Q59.31 0.21 58.96 0.08Q58.61-0.05 58.18-0.18Q57.74-0.31 57.39-0.40Q57.05-0.49 56.87-0.58ZM55.92-38.90L55.92-38.90Q55.92-41.08 58.70-42.12L58.70-42.12Q59.31-42.38 59.78-41.95Q60.26-41.51 60.57-40.82Q60.87-40.12 61.00-39.38Q61.13-38.64 61.13-38.30L61.13-38.30Q61.13-37.77 60.87-37.47Q60.61-37.17 60.22-37.08Q59.83-36.99 59.39-36.99L59.39-36.99L58.70-36.99Q57.48-36.99 56.70-37.25Q55.92-37.51 55.92-38.90ZM85.47-18.48L85.47-18.48Q82.43-18.48 80.12-17.39Q77.82-16.31 75.99-14.57Q74.17-12.83 72.95-10.87Q71.74-8.92 70.82-7.18Q69.91-5.44 69.43-4.31Q68.95-3.18 68.78-3.18L68.78-3.18Q66.43-3.18 65.48-4.40Q64.52-5.62 64.26-7.40Q64-9.18 64.22-11.14Q64.43-13.09 64.43-14.57L64.43-14.57L64.43-16.05Q64.43-17.09 64.48-18.22Q64.52-19.35 64.52-20.30L64.52-20.30L64.52-21.78Q64.78-22.48 65.22-22.56Q65.65-22.65 66.17-22.65L66.17-22.65Q66.96-22.65 67.48-21.74Q68.00-20.83 68.43-19.52Q68.87-18.22 69.13-16.96Q69.39-15.70 69.56-15.00L69.56-15.00Q70.61-15.18 71.47-15.87Q72.34-16.57 73.26-17.52Q74.17-18.48 75.21-19.52Q76.25-20.57 77.65-21.48Q79.04-22.39 80.90-23.00Q82.77-23.61 85.21-23.61L85.21-23.61Q90.07-23.61 93.20-21.48Q96.33-19.35 98.03-15.92Q99.72-12.48 100.33-8.18Q100.94-3.88 100.94 0.55L100.94 0.55Q98.33 0.55 96.90-0.27Q95.46-1.10 94.85-2.44Q94.25-3.79 94.16-5.49Q94.07-7.18 94.07-8.96Q94.07-10.74 93.85-12.48Q93.64-14.22 92.81-15.52Q91.99-16.83 90.29-17.65Q88.60-18.48 85.47-18.48Z"></path></g></g></svg>