<svg version="1.1" xmlns="http://www.w3.org/2000/svg" xmlns:xlink="http://www.w3.org/1999/xlink" width="363.04998779296875" height="93.36000061035156"><defs></defs><g transform="translate(-186.6396942138672,51.470001220703125)"><rect fill="rgb(255,255,255)" stroke="none" x="0" y="0" width="363.04998779296875" height="93.36000061035156" fill-opacity="0" transform="translate(186.6396942138672,-51.470001220703125)"></rect><g transform="translate(182.4296875,47) rotate(0,0,0) translate(-182.4296875,-47) matrix(1,0,0,1,182.4296875,47)"><path fill="rgb(0,0,0)" fill-opacity="1" d="M46.80-81.95L46.89-68.91L45.88-48.99L45.88-48.08L52.03-50.74L52.03-50.19Q52.03-49.54 51.48-49.22Q50.93-48.90 49.46-48.17L49.46-48.17Q45.15-45.96 44.92-45.55Q44.69-45.14 43.63-41.51Q42.58-37.89 42.39-37.61L42.39-37.61Q33.31-15.95 18.16-15.95L18.16-15.95Q11.64-15.95 8.61-20.63L8.61-20.63Q5.49-25.40 4.94-29.81L4.94-29.81Q4.21-36.60 4.21-41.65L4.21-41.65L4.30-48.90L4.30-50.74Q4.30-52.30 5.95-62.85L5.95-62.85Q6.59-66.43 8.15-70.20L8.15-70.20Q10.91-77.17 14.76-77.17L14.76-77.17L14.76-75.80Q6.68-62.30 6.68-41.01L6.68-41.01Q6.68-33.11 8.15-28.43Q9.62-23.75 14.76-19.43L14.76-19.43Q15.86-18.61 17.61-18.61L17.61-18.61Q26.24-18.61 32.89-26.55Q39.55-34.49 41.48-43.67L41.48-43.67Q40.01-43.58 38.54-43.58L38.54-43.58Q27.98-43.58 23.07-48.76Q18.16-53.95 18.16-67.17L18.16-67.17Q18.16-74.60 19.49-80.62Q20.82-86.63 22.47-90.12Q24.13-93.61 27.16-96.04Q30.18-98.47 33.49-98.47Q36.79-98.47 39.09-96.77Q41.38-95.08 42.85-92.32L42.85-92.32Q45.61-87.36 46.80-81.95L46.80-81.95ZM44.23-55.05L44.23-55.97L44.96-73.23Q44.96-79.29 43.59-84.61L43.59-84.61Q40.92-94.89 34.68-95.81L34.68-95.81Q34.22-95.90 33.76-95.90L33.76-95.90Q31.10-95.90 28.72-93.47Q26.33-91.04 24.86-87.09Q23.39-83.14 22.38-78.46L22.38-78.46Q20.64-70.29 20.64-65.20Q20.64-60.10 22.06-55.83Q23.48-51.56 26.97-48.49Q30.46-45.41 35.42-45.41L35.42-45.41L37.90-45.32Q41.84-45.32 42.39-47.16L42.39-47.16Q43.13-52.57 44.23-55.05L44.23-55.05ZM50.29-34.58L50.29-34.58L49.19-34.31Q48.91-34.03 47.63-33.85Q46.34-33.66 45.15-33.85Q43.95-34.03 44.05-34.76L44.05-34.76Q43.86-37.43 47.44-37.15L47.44-37.15Q51.21-36.88 51.85-39.54L51.85-39.54L56.16-55.97L57.91-57.71Q58.83-57.44 58.83-56.06L58.83-56.06L58.73-55.14L54.42-37.79L54.42-37.33Q55.15-37.06 56.62-37.06Q58.09-37.06 61.85-38.12Q65.62-39.17 66.17-39.17L66.17-39.17Q66.17-34.12 59.38-34.12L59.38-34.12Q57.26-34.12 54.60-34.58L54.60-34.58Q52.58-29.99 52.58-26.18Q52.58-22.37 54.60-19.21Q56.62-16.04 60.84-16.04L60.84-16.04Q65.16-16.68 67.50-18.10Q69.84-19.53 70.94-20.12Q72.04-20.72 73.15-20.72Q74.25-20.72 75.53-20.44L75.53-20.44Q72.96-15.85 60.66-14.39L60.66-14.39Q60.39-14.39 60.20-14.39L60.20-14.39Q53.87-14.39 51.67-19.07L51.67-19.07Q50.01-22.46 50.01-26.92Q50.01-31.37 50.29-34.58ZM73.33-34.58L73.33-34.58L72.23-34.31Q71.95-34.03 70.67-33.85Q69.38-33.66 68.19-33.85Q67.00-34.03 67.09-34.76L67.09-34.76Q66.90-37.43 70.48-37.15L70.48-37.15Q74.25-36.88 74.89-39.54L74.89-39.54L79.20-55.97L80.95-57.71Q81.87-57.44 81.87-56.06L81.87-56.06L81.77-55.14L77.46-37.79L77.46-37.33Q78.19-37.06 79.66-37.06Q81.13-37.06 84.90-38.12Q88.66-39.17 89.21-39.17L89.21-39.17Q89.21-34.12 82.42-34.12L82.42-34.12Q80.31-34.12 77.64-34.58L77.64-34.58Q75.62-29.99 75.62-26.18Q75.62-22.37 77.64-19.21Q79.66-16.04 83.89-16.04L83.89-16.04Q88.20-16.68 90.54-18.10Q92.88-19.53 93.98-20.12Q95.08-20.72 96.19-20.72Q97.29-20.72 98.57-20.44L98.57-20.44Q96.00-15.85 83.70-14.39L83.70-14.39Q83.43-14.39 83.24-14.39L83.24-14.39Q76.91-14.39 74.71-19.07L74.71-19.07Q73.05-22.46 73.05-26.92Q73.05-31.37 73.33-34.58ZM96.00-34.76L96.00-34.76L96.37-35.96Q98.21-41.83 99.49-41.83L99.49-41.83Q101.33-41.83 101.33-40.46L101.33-40.46Q101.33-40.18 101.24-39.91L101.24-39.91Q97.75-31.37 97.75-23.66L97.75-23.66Q97.75-20.17 99.49-17.83Q101.24-15.49 104.82-15.49L104.82-15.49Q113.81-18.98 116.11-18.98L116.11-18.98Q116.84-18.98 116.84-18.61L116.84-18.61Q116.84-17.51 112.07-15.44Q107.29-13.38 104.59-13.38Q101.88-13.38 100.50-13.79Q99.12-14.20 98.48-14.57Q97.84-14.94 96.92-16.18Q96.00-17.42 95.73-19.48Q95.45-21.55 95.45-25.40Q95.45-29.26 96.00-34.76ZM105.64-54.87L105.64-54.87ZM114.18-25.77L114.18-25.77Q114.55-36.05 120.05-50.74Q125.56-65.42 129.33-66.71L129.33-66.71Q130.43-66.71 130.89-64.60Q131.34-62.49 131.34-61.11L131.34-61.11Q131.34-56.15 129.23-49.41Q127.12-42.66 124.28-38.53L124.28-38.53Q123.17-36.69 121.29-34.67Q119.41-32.65 118.45-30.96Q117.48-29.26 117.48-26.69L117.48-26.69Q117.48-22.10 120.01-19.16Q122.53-16.22 127.12-16.22L127.12-16.22Q134.74-16.22 136.76-21.45L136.76-21.45L137.77-21.45Q137.77-17.87 134.19-15.76Q130.61-13.65 126.11-13.65Q121.61-13.65 118.40-17.09Q115.19-20.54 114.18-25.77ZM128.96-60.56L128.96-60.56Q128.22-59.73 126.53-56.70Q124.83-53.67 124.55-52.76L124.55-52.76Q118.40-36.69 118.40-35.41L118.40-35.41Q122.26-38.07 125.56-46.56Q128.87-55.05 128.96-60.56ZM136.39-34.76L136.39-34.76L136.76-35.96Q138.60-41.83 139.88-41.83L139.88-41.83Q141.72-41.83 141.72-40.46L141.72-40.46Q141.72-40.18 141.63-39.91L141.63-39.91Q138.14-31.37 138.14-23.66L138.14-23.66Q138.14-20.17 139.88-17.83Q141.63-15.49 145.21-15.49L145.21-15.49Q154.20-18.98 156.50-18.98L156.50-18.98Q157.23-18.98 157.23-18.61L157.23-18.61Q157.23-17.51 152.46-15.44Q147.68-13.38 144.98-13.38Q142.27-13.38 140.89-13.79Q139.51-14.20 138.87-14.57Q138.23-14.94 137.31-16.18Q136.39-17.42 136.12-19.48Q135.84-21.55 135.84-25.40Q135.84-29.26 136.39-34.76ZM146.03-54.87L146.03-54.87ZM154.20-24.76L154.20-24.76Q154.11-25.58 154.11-26.32L154.11-26.32Q154.11-32.19 158.01-38.44Q161.91-44.68 168.06-44.68L168.06-44.68Q169.26-44.68 169.99-43.99Q170.73-43.30 170.73-41.70Q170.73-40.09 169.85-37.93Q168.98-35.77 167.19-33.57Q165.40-31.37 164.12-29.99Q162.83-28.61 160.49-26.41Q158.15-24.21 157.69-23.75L157.69-23.75Q157.60-23.01 157.60-22.92L157.60-22.92Q157.60-20.44 159.99-19.07Q162.37-17.69 164.94-17.69L164.94-17.69Q171.09-17.69 174.72-19.89Q178.34-22.10 183.12-27.33L183.12-27.33Q183.85-28.25 183.99-28.80Q184.13-29.35 184.95-29.99L184.95-29.99Q185.87-29.62 185.87-28.25L185.87-28.25Q184.95-25.40 182.20-22.14Q179.45-18.88 175.68-16.59L175.68-16.59Q170.45-13.56 166.82-13.56Q163.20-13.56 159.80-16.04Q156.41-18.52 154.20-24.76ZM168.25-41.28L168.25-41.28Q164.30-41.28 160.90-37.06Q157.51-32.84 157.51-28.98L157.51-28.98Q157.51-27.70 157.69-27.15L157.69-27.15Q161.09-28.98 164.67-33.43Q168.25-37.89 168.25-41.28ZM235.63-31.18L235.63-31.18L235.81-21.64Q237.65-6.86 252.24-6.86L252.24-6.86Q252.98-6.86 255.73-7.23Q258.48-7.59 259.13-7.78L259.13-7.78Q257.38-5.11 250.04-5.11Q242.69-5.11 238.79-8.74Q234.89-12.37 233.15-19.89L233.15-19.89L233.06-30.73Q233.06-37.06 234.43-49.45Q235.81-61.84 235.81-68.09L235.81-68.09L235.81-73.78L206.25-45.96L204.51-32.01Q203.86-26.41 199.96-20.54Q196.06-14.66 191.01-14.66L191.01-14.66Q188.53-14.66 186.88-16.41Q185.23-18.15 185.32-20.81L185.32-20.81Q185.78-25.58 189.04-31.14Q192.30-36.69 195.19-39.91Q198.08-43.12 202.67-47.71L202.67-47.71Q202.85-48.63 202.85-53.17Q202.85-57.71 201.02-65.88L201.02-65.88Q200.74-66.80 199.27-66.80L199.27-66.80Q199.18-66.80 198.45-66.71L198.45-66.71Q192.02-61.66 186.15-61.66L186.15-61.66Q186.15-63.50 187.07-63.96L187.07-63.96Q187.43-64.14 188.30-64.46Q189.18-64.78 189.96-65.06Q190.74-65.33 195.19-67.67Q199.64-70.01 200.19-70.20L200.19-70.20L201.02-70.29Q202.03-70.29 202.76-69.51Q203.50-68.73 203.68-67.63L203.68-67.63L206.34-49.54L237.46-79.75L239.21-78.09L239.57-72.77Q239.57-65.79 237.60-52.02Q235.63-38.25 235.63-31.18ZM196.80-37.24Q193.58-34.03 191.15-29.62Q188.72-25.22 188.72-21.22Q188.72-17.23 190.55-17.23L190.55-17.23Q193.77-17.23 196.34-20.21Q198.91-23.20 200.28-27.51L200.28-27.51Q202.95-36.33 202.95-42.48L202.95-42.48L201.94-42.48Q201.75-42.48 199.69-40.36Q197.62-38.25 196.80-37.24L196.80-37.24ZM243.25-34.76L243.25-34.76L243.61-35.96Q245.45-41.83 246.73-41.83L246.73-41.83Q248.57-41.83 248.57-40.46L248.57-40.46Q248.57-40.18 248.48-39.91L248.48-39.91Q244.99-31.37 244.99-23.66L244.99-23.66Q244.99-20.17 246.73-17.83Q248.48-15.49 252.06-15.49L252.06-15.49Q261.05-18.98 263.35-18.98L263.35-18.98Q264.08-18.98 264.08-18.61L264.08-18.61Q264.08-17.51 259.31-15.44Q254.54-13.38 251.83-13.38Q249.12-13.38 247.74-13.79Q246.37-14.20 245.72-14.57Q245.08-14.94 244.16-16.18Q243.25-17.42 242.97-19.48Q242.69-21.55 242.69-25.40Q242.69-29.26 243.25-34.76ZM252.88-54.87L252.88-54.87ZM261.05-24.76L261.05-24.76Q260.96-25.58 260.96-26.32L260.96-26.32Q260.96-32.19 264.86-38.44Q268.76-44.68 274.92-44.68L274.92-44.68Q276.11-44.68 276.84-43.99Q277.58-43.30 277.58-41.70Q277.58-40.09 276.71-37.93Q275.83-35.77 274.04-33.57Q272.25-31.37 270.97-29.99Q269.68-28.61 267.34-26.41Q265.00-24.21 264.54-23.75L264.54-23.75Q264.45-23.01 264.45-22.92L264.45-22.92Q264.45-20.44 266.84-19.07Q269.22-17.69 271.79-17.69L271.79-17.69Q277.94-17.69 281.57-19.89Q285.20-22.10 289.97-27.33L289.97-27.33Q290.70-28.25 290.84-28.80Q290.98-29.35 291.81-29.99L291.81-29.99Q292.72-29.62 292.72-28.25L292.72-28.25Q291.81-25.40 289.05-22.14Q286.30-18.88 282.53-16.59L282.53-16.59Q277.30-13.56 273.68-13.56Q270.05-13.56 266.65-16.04Q263.26-18.52 261.05-24.76ZM275.10-41.28L275.10-41.28Q271.15-41.28 267.75-37.06Q264.36-32.84 264.36-28.98L264.36-28.98Q264.36-27.70 264.54-27.15L264.54-27.15Q267.94-28.98 271.52-33.43Q275.10-37.89 275.10-41.28ZM315.21-21.00L315.21-21.00Q315.31-18.88 318.43-18.88L318.43-18.88Q320.26-18.88 322.56-19.62Q324.85-20.35 327.01-20.54Q329.17-20.72 329.17-19.43L329.17-19.43Q325.31-16.86 318.52-16.41L318.52-16.41Q318.15-16.31 317.78-16.31L317.78-16.31Q315.21-16.31 313.79-17.55Q312.37-18.79 312.37-20.26Q312.37-21.73 312.55-22.74L312.55-22.74Q312.55-24.76 313.42-28.61Q314.30-32.47 314.30-34.40L314.30-34.40Q312.64-34.40 308.65-33.71Q304.66-33.02 302.91-32.47L302.91-32.47Q300.62-21.00 294.93-17.23L294.93-17.23Q293.27-16.13 292.40-16.13Q291.53-16.13 291.12-16.54Q290.70-16.96 290.70-17.55Q290.70-18.15 291.53-19.16L291.53-19.16Q294.38-18.98 295.75-21.91L295.75-21.91Q297.13-24.67 298.00-27.83Q298.87-31.00 299.42-32.47L299.42-32.47Q295.11-34.21 295.11-36.88L295.11-36.88Q295.11-41.74 299.33-43.49L299.33-43.49Q300.80-44.04 302.27-44.04Q303.74-44.04 304.98-43.03Q306.22-42.02 306.22-40.18Q306.22-38.34 303.83-35.13L303.83-35.13Q304.11-35.13 307.14-35.87L307.14-35.87Q315.49-38.07 317.23-38.07L317.23-38.07Q317.23-35.22 316.22-29.49Q315.21-23.75 315.21-21.00ZM301.44-41.56L301.44-41.56Q299.70-41.56 298.51-37.79L298.51-37.79Q298.51-36.14 301.17-35.13L301.17-35.13Q303.10-37.06 303.10-38.90L303.10-38.90Q303.10-39.63 302.68-40.59Q302.27-41.56 301.44-41.56ZM349.00-38.44L349.00-38.44Q346.33-31.64 346.33-25.77L346.33-25.77Q346.33-16.04 356.89-16.04L356.89-16.04Q359.55-16.41 360.88-17.14Q362.21-17.87 363.77-19.66Q365.33-21.45 366.80-22.65L366.80-22.65L367.26-22.65Q366.80-17.51 363.73-15.72Q360.65-13.93 355.33-13.93L355.33-13.93Q343.85-13.93 342.94-23.57L342.94-23.57Q342.48-21.18 338.76-18.01Q335.04-14.84 332.10-14.84L332.10-14.84Q331.92-14.84 331.65-14.84L331.65-14.84Q325.95-16.41 325.95-21.64L325.95-21.64Q325.95-28.43 333.02-34.86L333.02-34.86Q338.53-39.91 343.76-39.91L343.76-39.91Q346.70-39.91 349.00-38.44ZM328.80-22.10L328.80-22.10Q328.80-20.63 328.94-19.76Q329.08-18.88 329.86-18.15Q330.64-17.42 332.10-17.42L332.10-17.42Q336.14-17.60 340.23-23.89Q344.31-30.17 344.59-34.67L344.59-34.67Q343.12-36.51 340.55-36.51L340.55-36.51Q337.25-36.51 333.67-32.29Q330.08-28.06 328.80-22.10Z"></path></g></g></svg>