<svg version="1.1" xmlns="http://www.w3.org/2000/svg" xmlns:xlink="http://www.w3.org/1999/xlink" width="121.97999572753906" height="90.02999877929688"><defs></defs><g transform="translate(-63.8069953918457,8.790000915527344)"><rect fill="rgb(255,255,255)" stroke="none" x="0" y="0" width="121.97999572753906" height="90.02999877929688" fill-opacity="0" transform="translate(63.8069953918457,-8.790000915527344)"></rect><g transform="translate(61.7969970703125,45.5) rotate(0,0,0) translate(-61.7969970703125,-45.5) matrix(1,0,0,1,61.7969970703125,45.5)"><path fill="rgb(0,0,0)" fill-opacity="1" d="M2.16-11.26L2.16-11.26Q2.01-11.40 2.01-11.69Q2.01-11.97 2.51-11.97Q3.01-11.97 3.15-11.40L3.15-11.40Q5.71-5.72 11.53-5.72L11.53-5.72Q18.77-5.72 24.17-12.82L24.17-12.82Q28.14-18.08 31.20-23.83Q34.25-29.58 36.31-32.99Q38.37-36.39 42.70-40.65Q47.03-44.91 50.58-45.91L50.58-45.91Q49.73-46.33 47.74-46.33Q45.75-46.33 40.28-43.42Q34.82-40.51 29.42-36.04Q24.02-31.57 17.78-25.89Q11.53-20.21 10.25-19.21Q8.97-18.22 8.69-19.21Q8.40-20.21 9.40-21.06L9.40-21.06Q13.09-24.18 20.05-30.78Q27.01-37.39 30.63-40.44Q34.25-43.49 38.79-45.69Q43.34-47.90 45.61-47.90L45.61-47.90Q51.29-47.90 52.57-45.91L52.57-45.91Q48.87-44.35 46.53-37.67Q44.19-31.00 41.28-22.19Q38.37-13.39 33.96-8.42L33.96-8.42Q37.66-9.84 45.40-15.02Q53.13-20.21 59.10-26.31L59.10-26.31Q60.38-27.45 60.94-26.60L60.94-26.60Q60.94-26.31 60.94-25.96Q60.94-25.60 58.25-22.90Q55.55-20.21 51.64-16.87Q47.74-13.53 41.92-9.41L41.92-9.41Q29.85-0.89 17.71-0.89Q5.56-0.89 2.16-11.26ZM78.98-35.26L78.98-35.26Q80.68-37.10 80.68-38.38Q80.68-39.66 78.98-39.66Q77.27-39.66 73.80-37.10Q70.32-34.55 63.36-28.02Q56.40-21.48 55.05-20.42Q53.70-19.35 53.63-20.35Q53.56-21.34 55.41-22.83Q57.25-24.32 63.64-30.86Q70.03-37.39 73.58-40.09Q77.13-42.78 81.68-42.78L81.68-42.78Q86.79-42.78 88.63-38.95L88.63-38.95Q89.49-37.53 89.49-35.26Q89.49-32.99 88.35-30.22Q87.21-27.45 85.72-25.25Q84.23-23.05 81.89-19.92Q79.55-16.80 77.35-13.67Q75.14-10.55 75.14-9.13Q75.14-7.71 76.28-7.71L76.28-7.71Q81.82-7.71 97.01-26.17L97.01-26.17Q104.25-34.83 109.37-42.36L109.37-42.36Q113.91-52.87 117.32-53.86L117.32-53.86Q118.60-54.29 120.44-54.29Q122.29-54.29 123.14-52.72Q123.99-51.16 123.99-50.31Q123.99-49.46 122.79-48.96Q121.58-48.46 120.66-48.53Q119.73-48.61 119.45-48.61L119.45-48.61Q115.33-48.61 112.49-42.64L112.49-42.64Q110.79-38.95 108.16-30.86Q105.53-22.76 103.26-15.95Q100.99-9.13 95.73-0.04Q90.48 9.05 82.95 17.00Q75.43 24.95 65.13 30.35Q54.84 35.74 44.05 35.74Q33.25 35.74 25.94 30.77Q18.63 25.80 16.92 15.44L16.92 15.44Q16.92 14.73 17.21 14.44Q17.49 14.16 17.92 14.44Q18.34 14.73 18.34 15.29L18.34 15.29Q19.76 23.25 25.94 28.22Q32.12 33.19 40.21 33.19L40.21 33.19Q50.86 33.19 62.01 25.02Q73.16 16.86 82.88 3.58Q92.61-9.70 105.82-35.26L105.82-35.26Q102.55-30.29 98.01-24.47L98.01-24.47Q80.26-2.60 70.74-2.60L70.74-2.60Q63.50-2.60 63.50-9.41L63.50-9.41Q63.50-11.83 64.49-15.09L64.49-15.09Q66.48-20.77 78.98-35.26Z"></path></g></g></svg>