<svg version="1.1" xmlns="http://www.w3.org/2000/svg" xmlns:xlink="http://www.w3.org/1999/xlink" width="141.08999633789062" height="85.26000213623047"><defs></defs><g transform="translate(-66.50599670410156,49.75)"><rect fill="rgb(255,255,255)" stroke="none" x="0" y="0" width="141.08999633789062" height="85.26000213623047" fill-opacity="0" transform="translate(66.50599670410156,-49.75)"></rect><g transform="translate(71.34599304199219,43) rotate(0,0,0) translate(-71.34599304199219,-43) matrix(1,0,0,1,71.34599304199219,43)"><path fill="rgb(0,0,0)" fill-opacity="1" d="M53.06-64.83L53.06-64.83Q49.40-64.83 49.40-68.03L49.40-68.03Q49.40-72.91 54.85-77.24Q60.30-81.56 67.82-84.29L67.82-84.29Q67.16-87.01 64.44-88.47Q61.71-89.93 57.72-89.93Q53.72-89.93 49.44-88.42Q45.17-86.92 41.36-84.15Q37.55-81.37 35.16-76.81Q32.76-72.25 32.76-66.80L32.76-66.80Q32.76-64.92 35.58-55.80Q38.40-46.69 38.40-40.67L38.40-40.67Q38.40-39.17 38.02-36.35L38.02-36.35Q41.59-36.72 43.19-36.72L43.19-36.72Q52.31-36.72 52.31-31.93L52.31-31.93Q52.31-30.24 51.28-29.11Q50.24-27.98 47.80-26.48L47.80-26.48Q47.05-26.95 47.05-27.32Q47.05-27.70 47.42-27.98L47.42-27.98Q50.24-29.58 50.24-31.18L50.24-31.18Q50.24-34.37 42.82-34.37L42.82-34.37Q40.09-34.37 37.55-34.00L37.55-34.00Q35.95-27.98 31.58-22.76Q27.21-17.55 21.85-14.30Q16.50-11.06 11.09-9.28Q5.69-7.49 1.55-7.49L1.55-7.49Q-4.84-7.49-4.84-11.25L-4.84-11.25Q-4.84-16.51 1.74-21.87Q8.32-27.23 17.39-30.85Q26.46-34.47 35.20-35.97L35.20-35.97Q35.58-38.60 35.58-40.20L35.58-40.20Q35.58-44.24 32.62-52.84Q29.66-61.45 29.66-67.65Q29.66-73.85 34.54-80.01Q39.43-86.17 46.15-89.46Q52.87-92.75 58.89-92.75L58.89-92.75Q68.38-92.75 69.32-84.76L69.32-84.76Q74.59-86.45 76.47-86.45Q78.35-86.45 78.49-86.31Q78.63-86.17 78.63-85.23Q78.63-84.29 77.78-84.00L77.78-84.00Q73.55-83.82 69.42-82.78L69.42-82.78Q69.23-75.17 63.68-70.00Q58.14-64.83 53.06-64.83ZM-1.18-13.60L-1.18-13.60Q-1.18-10.87 4.28-10.87L4.28-10.87Q11.89-10.87 21.29-16.33L21.29-16.33Q25.90-18.96 29.61-23.52Q33.32-28.08 34.73-33.62L34.73-33.62Q26.74-32.30 18.71-29.39Q10.67-26.48 4.75-22.20Q-1.18-17.92-1.18-13.60ZM52.40-68.59L52.40-68.59Q52.40-66.80 54.28-66.80L54.28-66.80Q57.86-66.80 62.89-71.64Q67.91-76.48 68.01-82.31L68.01-82.31Q61.43-80.25 56.92-76.58Q52.40-72.91 52.40-68.59ZM63.78-21.59L63.78-21.59Q63.78-22.62 65.33-25.07Q66.88-27.51 67.40-28.17Q67.91-28.83 68.95-30.24L68.95-30.24Q57.76-20.09 53.53-20.09L53.53-20.09Q51.18-20.09 51.18-22.06L51.18-22.06Q51.18-24.88 60.68-37.95L60.68-37.95Q61.15-38.70 61.90-38.70L61.90-38.70Q64.06-38.04 64.06-37.76Q64.06-37.48 63.50-36.63L63.50-36.63Q55.41-25.73 55.41-24.36Q55.41-23.00 56.35-23.00L56.35-23.00Q58.98-23.00 65.71-29.06Q72.43-35.13 75.43-39.07L75.43-39.07Q75.81-39.73 76.66-39.73L76.66-39.73Q78.54-39.36 78.54-38.98L78.54-38.98Q77.50-37.48 75.72-35.03Q73.93-32.59 72.80-31.04Q71.67-29.48 70.45-27.70L70.45-27.70Q68.10-24.50 67.63-23.00L67.63-23.00Q67.63-22.06 69.18-22.06Q70.73-22.06 74.68-23.89Q78.63-25.73 81.64-27.61L81.64-27.61L84.65-29.48Q84.74-29.30 84.74-28.73Q84.74-28.17 83.89-27.79L83.89-27.79Q71.20-19.14 66.22-19.14L66.22-19.14Q63.78-19.14 63.78-21.59ZM82.58-26.95L82.58-26.95Q82.20-26.76 81.87-26.76Q81.54-26.76 81.54-27.14Q81.54-27.51 81.83-27.79L81.83-27.79Q85.68-29.95 90.29-34.84L90.29-34.84Q86.06-36.16 86.06-38.56Q86.06-40.95 89.25-43.91Q92.45-46.88 95.27-46.88L95.27-46.88Q97.15-46.88 97.15-44.62L97.15-44.62Q97.15-41.14 93.67-37.19L93.67-37.19Q98.18-36.44 98.18-35.03L98.18-35.03Q98.18-33.15 96.54-32.16Q94.89-31.18 92.73-28.64Q90.57-26.10 90.57-23.56L90.57-23.56Q90.57-23.00 90.94-22.53Q91.32-22.06 92.54-22.06Q93.76-22.06 97.71-23.89Q101.66-25.73 104.67-27.61L104.67-27.61L107.68-29.48Q107.77-29.30 107.77-28.73Q107.77-28.17 106.92-27.79L106.92-27.79Q94.23-19.14 89.25-19.14L89.25-19.14Q86.81-19.14 86.81-21.59L86.81-21.59Q86.81-23.56 88.17-25.73Q89.53-27.89 91.18-29.30Q92.82-30.71 94.19-31.98Q95.55-33.25 95.55-33.62Q95.55-34.00 94.38-34.09Q93.20-34.19 91.32-34.56L91.32-34.56Q86.15-29.02 82.58-26.95ZM88.41-40.01L88.41-40.01Q88.41-38.13 92.54-37.38L92.54-37.38Q94.99-40.39 94.99-42.60Q94.99-44.81 93.58-44.81Q92.17-44.81 90.29-43.16Q88.41-41.52 88.41-40.01ZM122.72-31.84L122.72-31.84Q122.15-31.84 122.15-32.49L122.15-32.49L122.43-33.15Q124.13-34.75 124.13-35.88L124.13-35.88Q124.13-37.29 122.62-37.29L122.62-37.29Q119.33-37.29 113.74-32.73Q108.15-28.17 108.15-24.60L108.15-24.60Q108.15-23.09 110.12-23.09Q112.09-23.09 114.68-24.74Q117.26-26.38 119.10-28.03Q120.93-29.67 121.12-29.67L121.12-29.67Q122.06-29.58 122.06-28.73L122.06-28.73Q122.06-28.36 120.60-26.29Q119.14-24.22 119.14-23.00L119.14-23.00Q119.14-22.06 120.70-22.06Q122.25-22.06 126.19-23.89Q130.14-25.73 133.15-27.61L133.15-27.61L136.16-29.48Q136.25-29.30 136.25-28.73Q136.25-28.17 135.41-27.79L135.41-27.79Q122.72-19.14 117.73-19.14L117.73-19.14Q115.29-19.14 115.29-21.59L115.29-21.59Q115.29-22.62 115.67-23.75L115.67-23.75Q115.01-23.00 111.77-21.45Q108.52-19.90 105.98-19.90Q103.45-19.90 103.45-22.25L103.45-22.25Q103.45-27.79 111.15-33.57Q118.86-39.36 124.13-39.36L124.13-39.36Q127.23-39.36 127.23-36.72L127.23-36.72Q127.23-35.22 125.35-33.53Q123.47-31.84 122.72-31.84Z"></path></g></g></svg>