<svg version="1.1" xmlns="http://www.w3.org/2000/svg" xmlns:xlink="http://www.w3.org/1999/xlink" width="537.3800048828125" height="80.27999877929688"><defs></defs><g transform="translate(-273.7224426269531,52.959999084472656)"><rect fill="rgb(255,255,255)" stroke="none" x="0" y="0" width="537.3800048828125" height="80.27999877929688" fill-opacity="0" transform="translate(273.7224426269531,-52.959999084472656)"></rect><g transform="translate(269.20245361328125,40.5) rotate(0,0,0) translate(-269.20245361328125,-40.5) matrix(1,0,0,1,269.20245361328125,40.5)"><path fill="rgb(0,0,0)" fill-opacity="1" d="M32.02-78.59L32.02-78.59L12.26-79.57Q12.08-79.57 11.46-79.04Q10.84-78.51 10.39-78.51Q9.95-78.51 9.77-78.59L9.77-78.59Q4.52-80.46 4.52-83.13L4.52-83.13Q4.52-84.47 6.03-84.47L6.03-84.47Q6.92-84.47 17.55-83.09Q28.19-81.71 40.47-81.71Q52.75-81.71 64.06-83.04L64.06-83.04Q76.07-93.46 87.91-93.46L87.91-93.46Q92.80-93.46 92.80-91.14L92.80-91.14Q92.80-85.09 65.39-81.09L65.39-81.09Q56.31-72.01 43.41-51.45L43.41-51.45Q38.60-43.88 33.89-36.85L33.89-36.85Q23.47-21.37 16.89-21.37L16.89-21.37Q14.48-21.37 14.48-23.46Q14.48-25.55 16.26-28.31L16.26-28.31Q17.96-30.98 18.93-30.98L18.93-30.98Q19.02-30.98 19.02-30.98L19.02-30.98Q20.18-30.98 20.18-29.64L20.18-29.64L19.82-27.95Q19.82-27.51 20.18-27.51L20.18-27.51Q24.90-27.51 36.20-46.73L36.20-46.73Q40.74-54.48 47.77-64.35Q54.80-74.23 61.39-80.55L61.39-80.55Q45.99-78.59 32.02-78.59ZM85.77-91.77L85.77-91.77Q77.23-91.77 68.06-83.58L68.06-83.58Q74.65-84.56 79.41-85.98Q84.17-87.41 86.13-88.65Q88.09-89.90 88.09-90.83Q88.09-91.77 85.77-91.77ZM60.32-33.38L60.32-33.38Q65.30-33.38 72.25-38.99L72.25-38.99L73.76-38.54Q65.04-31.25 58.72-31.25L58.72-31.25Q58.01-31.25 57.65-31.34L57.65-31.34Q55.25-28.40 52.40-26.57Q49.55-24.75 47.41-24.75L47.41-24.75Q44.03-24.75 44.03-28.53Q44.03-32.31 50.35-38.63L50.35-38.63Q49.28-41.21 49.28-44.06Q49.28-46.91 51.33-48.69Q53.38-50.47 56.09-50.47Q58.81-50.47 60.68-48.69Q62.54-46.91 62.54-43.62L62.54-43.62Q62.54-38.54 59.25-33.47L59.25-33.47Q59.61-33.38 60.32-33.38ZM57.47-34.27L57.47-34.27Q60.23-38.90 60.23-42.15Q60.23-45.40 58.63-46.95Q57.03-48.51 55.51-48.51L55.51-48.51Q52.40-48.51 52.40-45.31Q52.40-42.10 53.82-38.94Q55.25-35.79 57.47-34.27ZM47.68-29.02L47.68-29.02Q47.68-27.24 50.00-27.24Q52.31-27.24 55.87-31.96L55.87-31.96Q53.47-33.20 51.60-36.32L51.60-36.32Q47.68-32.05 47.68-29.02ZM91.83-38.99L93.69-40.50Q94.32-40.95 94.85-40.95Q95.39-40.95 95.39-40.32L95.39-40.32L95.39-40.15Q88.71-34.81 82.21-30.13Q75.72-25.46 72.69-25.46L72.69-25.46Q70.47-25.46 70.47-27.86Q70.47-30.27 72.60-32.67Q74.74-35.07 76.83-36.85Q78.92-38.63 78.92-39.21Q78.92-39.79 78.25-40.55Q77.59-41.30 77.14-41.57L77.14-41.57Q75.63-40.06 70.55-36.05L70.55-36.05L70.20-37.39Q75.81-41.84 76.70-43.35L76.70-43.35L76.70-44.15Q76.70-46.38 77.14-47.18Q77.59-47.98 79.28-49.40Q80.97-50.83 81.59-50.83Q82.21-50.83 82.70-50.38Q83.19-49.94 83.19-49.49Q83.19-49.05 82.88-48.47Q82.57-47.89 82.26-47.49Q81.95-47.09 81.41-46.51Q80.88-45.93 80.74-45.71Q80.61-45.49 80.48-44.95Q80.34-44.42 79.90-44.06Q79.45-43.71 79.45-43.17Q79.45-42.64 80.17-40.81Q80.88-38.99 80.88-38.14Q80.88-37.30 77.59-34.14Q74.29-30.98 74.29-29.02L74.29-29.02Q74.29-27.95 75.27-27.95L75.27-27.95Q76.52-27.95 79.90-30.18L79.90-30.18L80.97-30.89Q86.75-34.90 91.83-38.99L91.83-38.99ZM103.26-52.61Q104.11-52.61 104.60-52.07Q105.09-51.54 105.09-50.56Q105.09-49.58 103.75-48.07Q102.42-46.55 101.44-46.55Q100.46-46.55 100.01-47.13Q99.57-47.71 99.57-48.47Q99.57-49.22 100.99-50.92Q102.42-52.61 103.26-52.61ZM108.65-38.99L110.60-40.59Q111.32-41.04 111.72-41.04Q112.12-41.04 112.12-40.50L112.12-40.50L112.12-40.24Q112.47-40.24 107.36-36.32Q102.24-32.40 96.41-28.49Q90.58-24.57 89.07-24.57L89.07-24.57Q86.49-24.57 86.49-26.71L86.49-26.71Q86.49-29.29 90.94-36.45Q95.39-43.62 97.43-43.62L97.43-43.62Q98.95-43.62 98.95-42.46Q98.95-41.30 94.85-36.14Q90.76-30.98 90.76-28.75L90.76-28.75Q90.76-27.51 91.69-27.51Q92.63-27.51 96.36-30.00L96.36-30.00Q103.04-34.45 108.65-38.99L108.65-38.99ZM146.56-40.50L146.56-40.24Q127.78-24.57 123.33-24.57L123.33-24.57Q120.75-24.57 120.75-26.71Q120.75-28.84 122.66-31.78Q124.58-34.72 126.49-36.99Q128.40-39.26 128.40-39.70Q128.40-40.15 128.14-40.15L128.14-40.15Q119.86-34.63 118.30-33.38Q116.75-32.14 113.23-29.29Q109.71-26.44 108.65-25.73Q107.58-25.02 106.33-25.02L106.33-25.02Q105.09-25.02 105.09-26.08L105.09-26.08Q105.09-27.33 110.07-33.92L110.07-33.92Q114.88-40.50 114.88-41.30L114.88-41.30Q114.88-41.48 114.56-41.48Q114.25-41.48 106.87-36.05L106.87-36.05L106.51-37.39Q112.83-42.46 115.05-43.88Q117.28-45.31 118.66-45.31Q120.04-45.31 120.04-43.97L120.04-43.97Q120.04-43.08 115.01-36.72Q109.98-30.36 109.98-29.87Q109.98-29.38 110.29-29.38Q110.60-29.38 120.44-36.54Q130.27-43.71 132.41-43.71L132.41-43.71Q133.03-43.71 133.61-43.22Q134.19-42.73 134.19-42.28L134.19-42.28Q134.19-41.21 129.47-35.21Q124.76-29.20 124.76-28.40Q124.76-27.60 125.87-27.60Q126.98-27.60 130.63-30.00L130.63-30.00Q137.30-34.36 142.91-38.99L142.91-38.99L144.87-40.59Q145.49-41.04 146.03-41.04Q146.56-41.04 146.56-40.50L146.56-40.50ZM187.14-60.79L187.14-60.79Q187.14-60.79 191.06-61.06L191.06-61.06Q197.38-61.06 200.45-58.70Q203.52-56.34 203.52-52.03Q203.52-47.71 199.60-41.93Q195.69-36.14 189.46-31.42L189.46-31.42L194.53-31.42Q197.65-31.42 198.89-31.69Q200.14-31.96 200.32-31.96L200.32-31.96Q201.56-31.96 201.56-30.62Q201.56-29.29 199.78-29.20L199.78-29.20Q192.93-29.20 186.61-29.38L186.61-29.38Q176.64-23.06 167.03-23.06L167.03-23.06Q162.49-23.06 159.82-24.75Q157.15-26.44 157.15-28.18Q157.15-29.91 158.62-30.89Q160.09-31.87 162.76-31.87L162.76-31.87Q173.17-31.87 186.08-31.42L186.08-31.42Q191.42-35.79 194.62-41.53Q197.82-47.27 197.82-51.89L197.82-51.89Q197.82-59.28 189.90-59.28L189.90-59.28Q186.79-59.28 183.45-58.30Q180.11-57.32 179.45-56.92Q178.78-56.52 178.60-56.52L178.60-56.52Q178.07-56.52 178.07-57.28Q178.07-58.04 180.38-59.10L180.38-59.10Q190.53-64.00 200.23-72.14Q209.93-80.29 209.93-83.76L209.93-83.76Q209.93-85.36 207.44-85.36L207.44-85.36Q197.29-85.27 179.58-70.14L179.58-70.14Q176.02-60.97 167.88-47.62Q159.73-34.27 150.83-23.73Q141.93-13.18 137.57-13.18L137.57-13.18Q134.90-13.18 134.90-15.94L134.90-15.94Q134.90-22.26 146.87-38.46Q158.84-54.65 173.97-68.27L173.97-68.27Q176.64-74.77 176.64-77.75Q176.64-80.73 175.22-82.47Q173.79-84.20 171.04-85.00L171.04-85.00Q166.67-86.16 161.82-86.16Q156.97-86.16 154.39-85.94Q151.81-85.71 148.12-85.05Q144.42-84.38 142.11-82.73Q139.80-81.09 139.80-78.55Q139.80-76.01 142.29-74.63Q144.78-73.25 148.38-72.72Q151.99-72.19 155.55-71.56Q159.11-70.94 161.60-69.12Q164.09-67.29 164.09-64.00L164.09-64.00Q164.09-63.11 163.69-63.11Q163.29-63.11 163.07-63.38Q162.85-63.64 162.31-64.44L162.31-64.44Q161.51-65.60 159.95-66.22Q158.40-66.85 155.15-67.42Q151.90-68.00 149.01-68.67Q146.12-69.34 143.18-70.41Q140.24-71.47 138.46-73.43Q136.68-75.39 136.68-78.02Q136.68-80.64 138.91-82.69Q141.13-84.74 144.78-85.89L144.78-85.89Q152.26-88.12 160.36-88.12L160.36-88.12Q181.36-88.12 181.36-77.08L181.36-77.08Q181.36-76.10 180.91-74.14L180.91-74.14Q198.89-88.65 210.11-88.65L210.11-88.65Q215.09-88.65 215.09-85.63L215.09-85.63Q215.09-81.26 205.97-73.25Q196.85-65.24 187.14-60.79ZM139.80-15.76L139.80-15.76Q142.38-15.76 153.64-32.27Q164.89-48.78 171.66-63.02L171.66-63.02Q158.31-50.29 148.03-36.54Q137.75-22.79 137.75-17.81L137.75-17.81Q137.75-15.76 139.80-15.76ZM183.32-29.47L183.32-29.47L167.21-29.82Q160.36-29.82 160.36-27.78L160.36-27.78Q160.36-26.62 162.67-25.59Q164.98-24.57 168.01-24.57L168.01-24.57Q175.93-24.57 183.32-29.47ZM228.89-38.99L230.75-40.50Q231.38-40.95 231.91-40.95Q232.45-40.95 232.45-40.32L232.45-40.32L232.45-40.15Q225.77-34.81 219.27-30.13Q212.78-25.46 209.75-25.46L209.75-25.46Q207.53-25.46 207.53-27.86Q207.53-30.27 209.66-32.67Q211.80-35.07 213.89-36.85Q215.98-38.63 215.98-39.21Q215.98-39.79 215.31-40.55Q214.65-41.30 214.20-41.57L214.20-41.57Q212.69-40.06 207.61-36.05L207.61-36.05L207.26-37.39Q212.87-41.84 213.76-43.35L213.76-43.35L213.76-44.15Q213.76-46.38 214.20-47.18Q214.65-47.98 216.34-49.40Q218.03-50.83 218.65-50.83Q219.27-50.83 219.76-50.38Q220.25-49.94 220.25-49.49Q220.25-49.05 219.94-48.47Q219.63-47.89 219.32-47.49Q219.01-47.09 218.47-46.51Q217.94-45.93 217.80-45.71Q217.67-45.49 217.54-44.95Q217.40-44.42 216.96-44.06Q216.51-43.71 216.51-43.17Q216.51-42.64 217.23-40.81Q217.94-38.99 217.94-38.14Q217.94-37.30 214.65-34.14Q211.35-30.98 211.35-29.02L211.35-29.02Q211.35-27.95 212.33-27.95L212.33-27.95Q213.58-27.95 216.96-30.18L216.96-30.18L218.03-30.89Q223.81-34.90 228.89-38.99L228.89-38.99ZM240.32-52.61Q241.17-52.61 241.66-52.07Q242.15-51.54 242.15-50.56Q242.15-49.58 240.81-48.07Q239.48-46.55 238.50-46.55Q237.52-46.55 237.07-47.13Q236.63-47.71 236.63-48.47Q236.63-49.22 238.05-50.92Q239.48-52.61 240.32-52.61ZM245.71-38.99L247.66-40.59Q248.38-41.04 248.78-41.04Q249.18-41.04 249.18-40.50L249.18-40.50L249.18-40.24Q249.53-40.24 244.42-36.32Q239.30-32.40 233.47-28.49Q227.64-24.57 226.13-24.57L226.13-24.57Q223.55-24.57 223.55-26.71L223.55-26.71Q223.55-29.29 228.00-36.45Q232.45-43.62 234.49-43.62L234.49-43.62Q236.01-43.62 236.01-42.46Q236.01-41.30 231.91-36.14Q227.82-30.98 227.82-28.75L227.82-28.75Q227.82-27.51 228.75-27.51Q229.69-27.51 233.42-30.00L233.42-30.00Q240.10-34.45 245.71-38.99L245.71-38.99ZM266.71-38.63L268.94-40.50Q269.56-40.95 270.09-40.95Q270.63-40.95 270.63-40.32L270.63-40.32L270.63-40.15Q261.37-32.49 256.56-29.47L256.56-29.47Q250.33-24.75 246.06-24.75L246.06-24.75Q242.32-24.75 242.32-29.20L242.32-29.20Q242.32-35.16 250.02-46.87Q257.72-58.57 267.33-67.91Q276.95-77.26 281.84-77.26L281.84-77.26Q284.07-77.26 284.07-75.30L284.07-75.30Q284.07-70.41 272.36-59.15Q260.66-47.89 249.36-39.97L249.36-39.97Q246.06-33.65 246.06-30.36Q246.06-27.06 248.38-27.06Q250.69-27.06 254.43-29.73L254.43-29.73Q260.75-33.47 266.71-38.63L266.71-38.63ZM279.62-74.41L279.62-74.41Q275.88-74.41 266.35-63.64Q256.83-52.87 250.60-42.10L250.60-42.10Q260.84-49.40 270.63-59.95Q280.42-70.50 280.42-73.61L280.42-73.61Q280.42-74.41 279.62-74.41ZM275.43-38.46L275.43-38.46L278.28-42.82Q278.01-42.91 277.75-42.91L277.75-42.91Q274.01-42.91 267.96-37.21Q261.90-31.51 261.90-29.20L261.90-29.20Q261.90-28.58 262.62-28.58L262.62-28.58Q264.84-28.58 269.38-32.36Q273.92-36.14 275.43-38.46ZM295.28-40.32L295.28-40.15Q276.77-25.19 272.85-25.19L272.85-25.19Q271.34-25.19 271.34-26.97Q271.34-28.75 272.67-32.94L272.67-32.94Q272.67-33.03 272.50-33.03L272.50-33.03Q262.26-24.57 258.88-24.57L258.88-24.57Q256.56-24.57 256.56-26.26L256.56-26.26Q256.56-30.00 264.62-37.21Q272.67-44.42 277.48-44.42L277.48-44.42Q278.10-44.42 278.81-43.53L278.81-43.53Q280.86-46.55 301.78-76.37L301.78-76.37Q304.00-79.13 305.38-79.13Q306.76-79.13 306.76-78.24L306.76-78.24Q306.76-76.01 291.45-57.23L291.45-57.23Q285.76-50.11 280.99-42.42Q276.23-34.72 276.23-30.71L276.23-30.71Q276.23-29.02 277.21-29.02L277.21-29.02Q278.37-29.02 281.31-31.07L281.31-31.07Q287.36-35.43 291.90-39.08L291.90-39.08L293.59-40.50Q294.21-40.95 294.75-40.95Q295.28-40.95 295.28-40.32L295.28-40.32ZM314.24-38.63L316.46-40.50Q317.08-40.95 317.62-40.95Q318.15-40.95 318.15-40.32L318.15-40.32L318.15-40.15Q308.90-32.49 302.76-28.67Q296.61-24.84 291.63-24.84L291.63-24.84Q287.63-24.84 287.63-28.75L287.63-28.75Q287.63-34.54 293.50-40.64Q299.37-46.73 303.38-46.73L303.38-46.73Q305.60-46.73 305.60-44.24L305.60-44.24Q305.16-39.35 291.54-31.07L291.54-31.07L291.54-30.18Q291.54-27.24 294.61-27.24Q297.68-27.24 301.24-29.29L301.24-29.29Q308.18-33.38 314.24-38.63L314.24-38.63ZM301.06-43.97L301.06-43.97Q299.11-43.97 296.04-40.68Q292.97-37.39 291.90-33.20L291.90-33.20Q296.17-35.79 299.11-38.68Q302.04-41.57 302.04-42.77Q302.04-43.97 301.06-43.97ZM334.35-38.99L336.22-40.50Q336.84-40.95 337.38-40.95Q337.91-40.95 337.91-40.32L337.91-40.32L337.91-40.15Q331.24-34.81 324.74-30.13Q318.24-25.46 315.22-25.46L315.22-25.46Q312.99-25.46 312.99-27.86Q312.99-30.27 315.13-32.67Q317.26-35.07 319.35-36.85Q321.45-38.63 321.45-39.21Q321.45-39.79 320.78-40.55Q320.11-41.30 319.67-41.57L319.67-41.57Q318.15-40.06 313.08-36.05L313.08-36.05L312.72-37.39Q318.33-41.84 319.22-43.35L319.22-43.35L319.22-44.15Q319.22-46.38 319.67-47.18Q320.11-47.98 321.80-49.40Q323.49-50.83 324.12-50.83Q324.74-50.83 325.23-50.38Q325.72-49.94 325.72-49.49Q325.72-49.05 325.41-48.47Q325.09-47.89 324.78-47.49Q324.47-47.09 323.94-46.51Q323.40-45.93 323.27-45.71Q323.14-45.49 323.00-44.95Q322.87-44.42 322.42-44.06Q321.98-43.71 321.98-43.17Q321.98-42.64 322.69-40.81Q323.40-38.99 323.40-38.14Q323.40-37.30 320.11-34.14Q316.82-30.98 316.82-29.02L316.82-29.02Q316.82-27.95 317.80-27.95L317.80-27.95Q319.04-27.95 322.42-30.18L322.42-30.18L323.49-30.89Q329.28-34.90 334.35-38.99L334.35-38.99ZM389.62-91.23L389.62-91.23Q400.83-91.23 400.83-83.89Q400.83-76.55 390.64-64.00Q380.45-51.45 365.77-38.90L365.77-38.90Q369.06-37.65 373.73-34.67Q378.41-31.69 382.68-29.64Q386.95-27.60 391.44-27.60Q395.94-27.60 402.35-30.89L402.35-30.89Q403.15-31.34 403.68-31.34Q404.22-31.34 404.22-30.93Q404.22-30.53 403.06-29.64L403.06-29.64Q400.92-28.31 396.38-26.71Q391.84-25.11 387.66-25.11Q383.48-25.11 379.03-27.02Q374.58-28.93 369.82-32.09Q365.06-35.25 362.74-36.32L362.74-36.32Q352.06-27.60 343.03-22.12Q333.99-16.65 329.46-16.65L329.46-16.65Q326.25-16.65 326.25-18.88L326.25-18.88Q326.25-21.90 331.10-26.93Q335.95-31.96 343.74-36.10Q351.53-40.24 358.47-40.24L358.47-40.24Q360.78-40.24 363.54-39.61L363.54-39.61Q376.98-51.00 386.28-62.53Q395.58-74.06 395.58-81.18L395.58-81.18Q395.58-88.83 385.70-88.83L385.70-88.83Q379.03-88.83 371.20-85.54Q363.36-82.24 357.36-77.70Q351.35-73.17 347.30-68.23Q343.25-63.29 343.25-59.99L343.25-59.99Q343.25-55.99 349.26-55.99Q355.27-55.99 362.07-60.66Q368.88-65.33 372.44-70.50L372.44-70.50Q376.54-76.73 378.58-76.73L378.58-76.73Q379.56-76.73 379.56-75.39L379.56-75.39Q379.56-72.90 374.27-67.83Q368.97-62.75 361.23-58.48Q353.49-54.21 347.88-54.21L347.88-54.21Q340.31-54.21 340.31-59.28L340.31-59.28Q340.31-63.11 344.67-68.58Q349.04-74.06 355.75-79.08Q362.47-84.11 371.73-87.67Q380.99-91.23 389.62-91.23ZM329.63-21.01L329.63-21.01Q329.63-19.50 332.48-19.50Q335.33-19.50 343.29-24.44Q351.26-29.38 360.61-37.12L360.61-37.12Q358.11-38.01 355.89-38.01L355.89-38.01Q351.08-38.01 344.67-34.67Q338.27-31.34 333.95-27.29Q329.63-23.24 329.63-21.01ZM429.31-38.54L431.81-40.50Q432.52-40.95 433.01-40.95Q433.50-40.95 433.50-40.32L433.50-40.32L433.50-40.15Q426.64-34.36 419.03-29.29Q411.42-24.22 409.38-24.22Q407.33-24.22 405.95-24.97Q404.57-25.73 404.57-26.71Q404.57-27.69 405.11-28.35Q405.64-29.02 406.08-29.02Q406.53-29.02 407.55-27.64Q408.58-26.26 409.56-26.26L409.56-26.26Q411.60-26.26 412.76-30.62Q413.92-34.98 413.92-36.63Q413.92-38.28 413.69-38.28Q413.47-38.28 413.29-38.10L413.29-38.10L410.71-36.05L410.36-37.39Q415.96-41.84 416.85-43.35L416.85-43.35Q417.39-44.77 418.37-44.77L418.37-44.77Q418.99-44.77 418.99-44.33Q418.99-43.88 418.37-42.42Q417.74-40.95 416.72-35.79Q415.70-30.62 415.70-29.82Q415.70-29.02 416.14-29.02L416.14-29.02Q422.37-32.85 429.31-38.54L429.31-38.54ZM479.87-63.46L479.87-63.46L467.14-64.09Q459.31-64.09 451.56-63.46L451.56-63.46L452.01-61.68Q452.01-60.71 446.22-54.25Q440.44-47.80 434.65-40.19Q428.87-32.58 428.87-28.93L428.87-28.93Q428.87-27.51 429.89-27.51Q430.92-27.51 434.56-30.00L434.56-30.00Q441.33-34.45 446.94-38.99L446.94-38.99L448.89-40.59Q449.52-41.04 449.96-41.04Q450.41-41.04 450.41-40.50L450.41-40.50L450.41-40.24Q450.76-40.24 445.64-36.32Q440.53-32.40 434.70-28.49Q428.87-24.57 427.36-24.57L427.36-24.57Q424.77-24.57 424.77-26.89L424.77-26.89Q424.77-30.27 428.56-36.23Q432.34-42.19 436.83-47.49Q441.33-52.78 445.38-57.50Q449.43-62.22 449.78-63.29L449.78-63.29Q439.99-62.40 434.74-61.15L434.74-61.15L432.96-60.79Q432.25-60.71 432.25-59.46L432.25-59.46Q432.25-58.93 431.00-58.93Q429.76-58.93 427.93-59.50Q426.11-60.08 426.11-61.15Q426.11-62.22 427.89-62.57L427.89-62.57Q441.06-64.89 446.58-65.38Q452.10-65.87 453.92-66.00Q455.75-66.13 459.62-66.22Q463.49-66.31 464.82-66.31L464.82-66.31Q468.83-66.49 474.21-66.49Q479.60-66.49 480.76-66.05Q481.91-65.60 481.91-64.35L481.91-64.35Q481.91-63.46 479.87-63.46ZM455.57-33.38L455.57-33.38Q460.55-33.38 467.49-38.99L467.49-38.99L469.01-38.54Q460.29-31.25 453.97-31.25L453.97-31.25Q453.25-31.25 452.90-31.34L452.90-31.34Q450.50-28.40 447.65-26.57Q444.80-24.75 442.66-24.75L442.66-24.75Q439.28-24.75 439.28-28.53Q439.28-32.31 445.60-38.63L445.60-38.63Q444.53-41.21 444.53-44.06Q444.53-46.91 446.58-48.69Q448.63-50.47 451.34-50.47Q454.06-50.47 455.92-48.69Q457.79-46.91 457.79-43.62L457.79-43.62Q457.79-38.54 454.50-33.47L454.50-33.47Q454.86-33.38 455.57-33.38ZM452.72-34.27L452.72-34.27Q455.48-38.90 455.48-42.15Q455.48-45.40 453.88-46.95Q452.28-48.51 450.76-48.51L450.76-48.51Q447.65-48.51 447.65-45.31Q447.65-42.10 449.07-38.94Q450.50-35.79 452.72-34.27ZM442.93-29.02L442.93-29.02Q442.93-27.24 445.24-27.24Q447.56-27.24 451.12-31.96L451.12-31.96Q448.72-33.20 446.85-36.32L446.85-36.32Q442.93-32.05 442.93-29.02ZM475.68-38.46L475.68-38.46L478.53-42.82Q478.26-42.91 478.00-42.91L478.00-42.91Q474.26-42.91 468.21-37.21Q462.15-31.51 462.15-29.20L462.15-29.20Q462.15-28.58 462.87-28.58L462.87-28.58Q465.09-28.58 469.63-32.36Q474.17-36.14 475.68-38.46ZM495.53-40.32L495.53-40.15Q477.02-25.19 473.10-25.19L473.10-25.19Q471.59-25.19 471.59-26.97Q471.59-28.75 472.92-32.94L472.92-32.94Q472.92-33.03 472.75-33.03L472.75-33.03Q462.51-24.57 459.13-24.57L459.13-24.57Q456.81-24.57 456.81-26.26L456.81-26.26Q456.81-30.00 464.87-37.21Q472.92-44.42 477.73-44.42L477.73-44.42Q478.35-44.42 479.06-43.53L479.06-43.53Q481.11-46.55 502.03-76.37L502.03-76.37Q504.25-79.13 505.63-79.13Q507.01-79.13 507.01-78.24L507.01-78.24Q507.01-76.01 491.70-57.23L491.70-57.23Q486.01-50.11 481.24-42.42Q476.48-34.72 476.48-30.71L476.48-30.71Q476.48-29.02 477.46-29.02L477.46-29.02Q478.62-29.02 481.56-31.07L481.56-31.07Q487.61-35.43 492.15-39.08L492.15-39.08L493.84-40.50Q494.46-40.95 495.00-40.95Q495.53-40.95 495.53-40.32L495.53-40.32ZM503.01-36.41L503.01-36.41Q502.47-36.41 502.47-36.81Q502.47-37.21 503.09-37.74L503.09-37.74Q506.03-40.15 506.03-42.10L506.03-42.10Q506.03-43.35 503.81-43.53L503.81-43.53Q499.80-43.44 494.24-37.74Q488.68-32.05 488.68-29.20L488.68-29.20Q488.68-28.22 489.79-28.22Q490.90-28.22 492.77-29.73L492.77-29.73Q494.46-30.80 499.09-35.07L499.09-35.07Q500.16-36.14 501.14-36.14L501.14-36.14Q502.38-36.14 502.38-34.98L502.38-34.98Q502.38-34.54 502.12-34.27Q501.85-34.01 501.14-33.16Q500.42-32.31 499.89-31.60L499.89-31.60Q498.29-29.29 498.29-28.58L498.29-28.58Q498.29-26.80 499.71-26.80L499.71-26.80Q501.58-26.80 506.74-30.22Q511.91-33.65 516.18-37.12L516.18-37.12L520.45-40.50Q521.07-40.95 521.61-40.95Q522.14-40.95 522.14-40.32L522.14-40.32L522.14-40.15Q515.29-34.36 507.68-29.29Q500.07-24.22 497.67-24.22L497.67-24.22Q494.82-24.22 494.82-27.24L494.82-27.24Q494.82-27.95 495.08-28.58Q495.35-29.20 495.35-29.47Q495.35-29.73 495.17-29.82L495.17-29.82Q494.91-29.82 491.75-27.42Q488.59-25.02 486.23-25.02Q483.87-25.02 483.87-27.51Q483.87-30.00 487.21-34.23Q490.55-38.46 496.15-41.93Q501.76-45.40 507.10-45.40L507.10-45.40Q508.35-45.40 509.19-44.77Q510.04-44.15 510.04-42.86Q510.04-41.57 507.46-38.99Q504.87-36.41 503.01-36.41ZM538.34-38.99L540.21-40.50Q540.83-40.95 541.36-40.95Q541.90-40.95 541.90-40.32L541.90-40.32L541.90-40.15Q535.22-34.81 528.73-30.13Q522.23-25.46 519.20-25.46L519.20-25.46Q516.98-25.46 516.98-27.86Q516.98-30.27 519.11-32.67Q521.25-35.07 523.34-36.85Q525.43-38.63 525.43-39.21Q525.43-39.79 524.77-40.55Q524.10-41.30 523.65-41.57L523.65-41.57Q522.14-40.06 517.07-36.05L517.07-36.05L516.71-37.39Q522.32-41.84 523.21-43.35L523.21-43.35L523.21-44.15Q523.21-46.38 523.65-47.18Q524.10-47.98 525.79-49.40Q527.48-50.83 528.10-50.83Q528.73-50.83 529.22-50.38Q529.71-49.94 529.71-49.49Q529.71-49.05 529.39-48.47Q529.08-47.89 528.77-47.49Q528.46-47.09 527.93-46.51Q527.39-45.93 527.26-45.71Q527.12-45.49 526.99-44.95Q526.86-44.42 526.41-44.06Q525.97-43.71 525.97-43.17Q525.97-42.64 526.68-40.81Q527.39-38.99 527.39-38.14Q527.39-37.30 524.10-34.14Q520.81-30.98 520.81-29.02L520.81-29.02Q520.81-27.95 521.78-27.95L521.78-27.95Q523.03-27.95 526.41-30.18L526.41-30.18L527.48-30.89Q533.27-34.90 538.34-38.99L538.34-38.99Z"></path></g></g></svg>