<svg version="1.1" xmlns="http://www.w3.org/2000/svg" xmlns:xlink="http://www.w3.org/1999/xlink" width="515.02001953125" height="72.20000457763672"><defs></defs><g transform="translate(-253.47093200683594,45.910003662109375)"><rect fill="rgb(255,255,255)" stroke="none" x="0" y="0" width="515.02001953125" height="72.20000457763672" fill-opacity="0" transform="translate(253.47093200683594,-45.910003662109375)"></rect><g transform="translate(258.45092010498047,36.5) rotate(0,0,0) translate(-258.45092010498047,-36.5) matrix(1,0,0,1,258.45092010498047,36.5)"><path fill="rgb(0,0,0)" fill-opacity="1" d="M109.70-78.08L109.70-78.08Q106.22-78.08 94.47-66.80L94.47-66.80Q101.24-69.53 106.31-72.72Q111.39-75.92 111.39-77.33L111.39-77.33Q111.39-78.08 109.70-78.08ZM74.73-79.49L74.73-79.49Q74.73-80.15 73.88-80.15L73.88-80.15Q69.18-80.15 62.41-66.99L62.41-66.99Q68.05-70.47 71.39-73.81Q74.73-77.14 74.73-79.49ZM-2.54-70.47Q-2.54-64.64 4.70-59.47Q11.94-54.30 22.09-54.30Q32.24-54.30 43.24-58.06L43.24-58.06Q39.20-67.74 30.45-73.38Q21.71-79.02 11.65-79.02L11.65-79.02Q4.51-79.02 0.98-76.63Q-2.54-74.23-2.54-70.47L-2.54-70.47ZM47.28-44.81L47.19-43.77Q47.09-42.83 46.53-42.83Q45.96-42.83 45.96-43.87L45.96-43.87Q45.96-50.54 43.71-56.74L43.71-56.74Q32.15-52.80 21.24-52.80Q10.34-52.80 2.68-58.25Q-4.98-63.70-4.98-70.00L-4.98-70.00Q-4.98-74.51-0.57-77.42Q3.85-80.34 13.53-80.34Q23.22-80.34 32.15-74.23Q41.08-68.12 44.93-58.62L44.93-58.62Q52.45-61.44 59.12-65.11L59.12-65.11Q63.26-73.38 67.35-77.89Q71.44-82.41 76.14-82.41L76.14-82.41Q76.80-82.41 77.31-81.84Q77.83-81.28 77.83-80.71L77.83-80.71Q77.83-77.71 73.27-73.34Q68.71-68.96 61.29-64.64L61.29-64.64Q58.56-59.00 53.48-46.59Q48.41-34.18 44.32-25.68Q40.23-17.17 36.66-13.60L36.66-13.60L36.47-13.32L36.85-13.32Q42.11-15.67 50.19-23.56Q58.28-31.46 69.89-44.29Q81.50-57.12 87.42-62.95L87.42-62.95Q85.44-62.29 81.50-61.35L81.50-61.35Q80.74-61.35 80.74-61.82L80.74-61.82Q80.74-62.76 82.72-63.14L82.72-63.14Q86.85-63.98 89.39-64.92L89.39-64.92Q105.09-79.96 112.80-79.96L112.80-79.96Q115.52-79.96 115.52-78.74L115.52-78.74Q115.52-76.58 108.66-72.30Q101.80-68.02 92.21-64.55L92.21-64.55Q87.23-59.66 71.53-43.16Q55.83-26.66 46.72-18.44Q37.60-10.21 33.84-10.21L33.84-10.21Q33.65-10.21 33.18-10.50Q32.71-10.78 32.71-11.11Q32.71-11.44 34.87-13.88L34.87-13.88Q39.01-19.05 42.91-27.32Q46.81-35.59 51.27-46.69Q55.74-57.78 58.09-62.85L58.09-62.85Q51.98-59.66 45.49-57.31L45.49-57.31Q47.37-52.23 47.37-46.78L47.37-46.78Q47.37-45.84 47.28-44.81L47.28-44.81ZM71.34-15.29L71.34-15.29Q71.34-16.79 72.38-18.49L72.38-18.49Q72.38-18.58 72.38-18.67Q72.38-18.77 72.28-18.67L72.28-18.67Q65.99-13.32 61.85-13.32L61.85-13.32Q59.12-13.32 59.12-15.20Q59.12-17.08 61.76-20.60Q64.39-24.13 67.07-26.85Q69.75-29.58 69.56-29.20L69.56-29.20Q70.03-29.67 70.69-29.67Q71.34-29.67 71.34-29.06Q71.34-28.45 70.78-27.89Q70.22-27.32 68.66-25.58Q67.11-23.84 66.22-22.81Q65.33-21.78 64.11-20.37L64.11-20.37Q61.85-17.45 61.85-16.14L61.85-16.14Q61.85-15.10 63.35-15.10Q64.86-15.10 67.58-16.89Q70.31-18.67 72.28-20.55L72.28-20.55L74.26-22.34Q78.21-25.82 79.62-27.89L79.62-27.89Q80.46-28.92 81.31-28.92Q82.15-28.92 82.15-28.26L82.15-28.26Q82.15-27.70 79.71-25.16L79.71-25.16Q74.82-19.99 74.45-19.14L74.45-19.14Q73.51-16.98 73.51-16.23L73.51-16.23Q73.51-14.73 75.81-14.73Q78.11-14.73 83.09-19.24L83.09-19.24Q83.38-19.61 83.70-19.61Q84.03-19.61 84.03-19.14L84.03-19.14Q84.03-18.02 80.23-15.57Q76.42-13.13 73.41-13.13L73.41-13.13Q71.34-13.13 71.34-15.29ZM97.76-21.78L97.76-21.78Q98.60-21.78 99.92-22.53L99.92-22.53Q100.39-22.53 100.39-22.20Q100.39-21.87 100.15-21.68Q99.92-21.49 98.42-21.02Q96.91-20.55 95.97-20.55L95.97-20.55Q92.87-20.55 92.87-22.53L92.87-22.53Q92.87-23.28 93.29-24.13Q93.72-24.97 93.72-25.25Q93.72-25.54 93.53-25.54L93.53-25.54Q91.65-24.88 88.08-22.25L88.08-22.25L81.40-13.88Q80.65-12.94 79.94-12.94Q79.24-12.94 79.24-13.41Q79.24-13.88 79.90-14.91L79.90-14.91L85.82-22.34Q86.48-23.19 88.26-25.54Q90.05-27.89 90.38-28.36Q90.71-28.83 91.69-28.83Q92.68-28.83 92.68-28.45Q92.68-28.07 92.49-27.89L92.49-27.89L91.18-26.01Q90.90-25.63 90.52-25.25L90.52-25.25Q91.37-25.44 97.29-28.64L97.29-28.64Q97.48-28.73 97.95-28.73Q98.42-28.73 98.42-28.50Q98.42-28.26 98.27-28.03Q98.13-27.79 97.29-26.76L97.29-26.76Q95.60-24.69 95.60-23.66L95.60-23.66Q95.60-21.78 97.76-21.78ZM119.28-15.20L119.28-15.20Q119.28-14.16 120.60-14.16L120.60-14.16Q123.23-14.16 128.87-19.24L128.87-19.24Q129.15-19.61 129.48-19.61Q129.81-19.61 129.81-19.14L129.81-19.14Q129.81-17.92 125.72-15.24Q121.63-12.56 118.63-12.56L118.63-12.56Q116.56-12.56 116.56-14.73L116.56-14.73Q116.56-16.61 120.13-20.60Q123.70-24.60 123.70-25.96Q123.70-27.32 121.26-27.28Q118.81-27.23 112.61-23.47L112.61-23.47Q106.12-14.44 105.79-14.02Q105.47-13.60 104.71-13.60Q103.96-13.60 103.96-14.35Q103.96-15.10 104.81-15.95L104.81-15.95Q106.03-17.64 107.16-19.10Q108.29-20.55 108.94-21.45Q109.60-22.34 110.21-23.09Q110.82-23.84 111.11-24.27Q111.39-24.69 111.62-24.97Q111.86-25.25 111.90-25.49Q111.95-25.72 112.00-25.91Q112.05-26.10 112.05-26.38L112.05-26.38Q112.05-27.42 110.78-27.42Q109.51-27.42 107.20-26.29Q104.90-25.16 103.96-24.46Q103.02-23.75 99.68-19.38Q96.35-15.01 95.31-13.50L95.31-13.50Q94.66-12.75 94.00-12.75Q93.34-12.75 93.34-13.50Q93.34-14.26 93.62-14.59Q93.90-14.91 94.70-15.95Q95.50-16.98 96.68-18.53Q97.85-20.08 98.51-20.93Q99.17-21.78 104.62-29.01L104.62-29.01Q105.18-29.77 106.03-29.77Q106.88-29.77 106.88-28.83Q106.88-27.89 106.22-27.23L106.22-27.23L106.31-27.13Q109.13-29.01 111.81-29.01Q114.49-29.01 114.49-27.04L114.49-27.04Q114.49-26.19 114.11-25.63L114.11-25.63Q120.22-29.20 123.33-29.20L123.33-29.20Q124.74-29.20 125.53-28.64Q126.33-28.07 126.62-26.85L126.62-26.85Q126.62-24.69 122.95-20.70Q119.28-16.70 119.28-15.20ZM142.41-35.88Q142.41-36.72 143.25-37.71Q144.10-38.70 144.80-38.70Q145.51-38.70 145.93-38.27Q146.36-37.85 146.36-37.00Q146.36-36.16 145.37-35.41Q144.38-34.65 143.72-34.65L143.72-34.65Q142.41-34.65 142.41-35.88L142.41-35.88ZM129.15-15.76L129.15-15.76Q129.15-17.26 131.60-19.90L131.60-19.90L138.65-27.89Q139.21-28.45 139.21-28.83Q139.21-29.20 138.88-29.48Q138.55-29.77 138.04-29.77Q137.52-29.77 137.14-29.44Q136.77-29.11 135.69-27.79Q134.61-26.48 132.73-24.27Q130.85-22.06 130.23-21.31Q129.62-20.55 128.87-19.66Q128.12-18.77 127.65-18.20L127.65-18.20Q126.43-16.51 126.43-15.29L126.43-15.29Q126.43-13.13 128.50-13.13L128.50-13.13Q131.50-13.13 135.31-15.57Q139.12-18.02 139.12-19.14L139.12-19.14Q139.12-19.61 138.79-19.61Q138.46-19.61 138.18-19.24L138.18-19.24Q133.20-14.73 130.47-14.73L130.47-14.73Q129.15-14.73 129.15-15.76ZM152.37-21.78L152.37-21.78Q153.22-21.78 154.53-22.53L154.53-22.53Q155.00-22.53 155.00-22.20Q155.00-21.87 154.77-21.68Q154.53-21.49 153.03-21.02Q151.53-20.55 150.59-20.55L150.59-20.55Q147.48-20.55 147.48-22.53L147.48-22.53Q147.48-23.28 147.91-24.13Q148.33-24.97 148.33-25.25Q148.33-25.54 148.14-25.54L148.14-25.54Q146.26-24.88 142.69-22.25L142.69-22.25L136.02-13.88Q135.26-12.94 134.56-12.94Q133.85-12.94 133.85-13.41Q133.85-13.88 134.51-14.91L134.51-14.91L140.43-22.34Q141.09-23.19 142.88-25.54Q144.66-27.89 144.99-28.36Q145.32-28.83 146.31-28.83Q147.30-28.83 147.30-28.45Q147.30-28.07 147.11-27.89L147.11-27.89L145.79-26.01Q145.51-25.63 145.13-25.25L145.13-25.25Q145.98-25.44 151.90-28.64L151.90-28.64Q152.09-28.73 152.56-28.73Q153.03-28.73 153.03-28.50Q153.03-28.26 152.89-28.03Q152.75-27.79 151.90-26.76L151.90-26.76Q150.21-24.69 150.21-23.66L150.21-23.66Q150.21-21.78 152.37-21.78ZM160.08-14.54L160.08-14.54Q163.75-14.54 168.26-18.35Q172.77-22.15 173.52-24.88L173.52-24.88Q173.52-26.01 172.11-26.81Q170.70-27.60 168.92-27.60L168.92-27.60Q164.59-27.60 160.97-23.89Q157.35-20.18 157.35-17.36Q157.35-14.54 160.08-14.54ZM169.76-29.11L169.76-29.11Q173.05-29.11 175.21-26.76L175.21-26.76Q175.31-26.76 176.72-28.17L176.72-28.17Q177.38-29.20 178.22-29.20Q179.07-29.20 179.07-28.36L179.07-28.36L178.69-27.51Q178.41-27.04 174.98-22.90Q171.55-18.77 171.03-18.02Q170.51-17.26 170.51-15.76L170.51-15.76Q170.51-14.73 171.83-14.73L171.83-14.73Q174.56-14.73 179.54-19.24L179.54-19.24Q179.82-19.61 180.15-19.61Q180.48-19.61 180.48-19.14L180.48-19.14Q180.48-18.02 176.67-15.57Q172.86-13.13 169.86-13.13L169.86-13.13Q167.79-13.13 167.79-15.29L167.79-15.29Q167.79-16.04 167.55-16.04Q167.32-16.04 167.22-15.95L167.22-15.95Q162.52-12.85 158.34-12.85Q154.16-12.85 154.16-16.61L154.16-16.61Q154.16-20.55 158.86-24.83Q163.56-29.11 169.76-29.11ZM241.77-62.01L241.77-62.01Q240.45-62.01 239.79-61.91L239.79-61.91Q242.14-58.81 246.09-58.81L246.09-58.81Q248.53-58.81 248.53-59.85L248.53-59.85Q248.53-61.63 241.77-62.01ZM213.19-30.42L213.19-30.42Q220.62-36.63 222.21-45.09L222.21-45.09Q214.32-39.82 213.19-30.42ZM222.59-46.97L222.59-46.97L222.59-48.28Q222.59-52.23 220.43-55.15L220.43-55.15Q212.44-50.07 207.50-42.83Q202.57-35.59 202.57-28.64L202.57-28.64Q202.57-26.85 202.85-25.16L202.85-25.16Q207.08-26.19 210.93-28.73L210.93-28.73Q211.12-34.28 214.32-39.17Q217.51-44.05 222.59-46.97ZM209.90-60.79L209.90-60.79Q216.95-60.79 221.09-57.59L221.09-57.59Q224.47-59.28 226.63-60.03L226.63-60.03Q216.01-66.33 209.34-66.33L209.34-66.33Q197.21-66.24 189.50-57.45Q181.79-48.66 181.79-38.60L181.79-38.60Q181.79-32.30 185.32-28.26Q188.84-24.22 195.61-24.22L195.61-24.22L195.71-24.22Q197.68-24.22 199.56-24.50L199.56-24.50Q199.28-26.19 199.28-28.17L199.28-28.17Q199.28-37.29 204.78-44.57Q210.28-51.86 219.02-56.65L219.02-56.65Q216.01-59.19 210.75-59.19L210.75-59.19Q209.24-59.19 207.55-58.91L207.55-58.91Q207.08-58.91 207.08-59.47L207.08-59.47Q207.08-60.79 209.90-60.79ZM212.53-23.47L212.53-23.47Q210.93-23.47 210.93-26.85L210.93-26.85Q206.99-24.50 203.13-23.47L203.13-23.47Q204.26-18.77 207.69-15.81Q211.12-12.85 217.18-12.85Q223.25-12.85 228.89-15.29Q234.53-17.73 238.24-21.45Q241.95-25.16 244.07-29.53Q246.18-33.90 246.18-38.32Q246.18-42.74 243.13-45.65Q240.07-48.57 234.62-48.57Q229.17-48.57 225.13-46.69L225.13-46.69Q224.56-41.80 221.32-36.77Q218.08-31.74 213.00-28.17L213.00-28.17L213.00-27.89Q213.00-27.04 213.38-26.01Q213.75-24.97 213.75-24.55Q213.75-24.13 213.33-23.80Q212.91-23.47 212.53-23.47ZM261.04-65.20L261.04-65.20Q259.91-65.30 259.91-65.67Q259.91-66.05 260.57-66.61L260.57-66.61Q263.39-69.34 263.39-72.07Q263.39-74.79 259.53-76.91Q255.68-79.02 251.35-79.02L251.35-79.02Q244.96-79.02 241.53-75.54Q238.10-72.07 238.10-67.55L238.10-67.55Q238.10-65.20 239.13-62.95L239.13-62.95Q241.01-63.14 243.32-63.14Q245.62-63.14 248.16-62.29Q250.70-61.44 250.70-59.75L250.70-59.75Q250.41-57.68 247.22-57.68L247.22-57.68Q240.36-57.68 237.16-61.63L237.16-61.63Q234.06-61.16 230.20-59.85L230.20-59.85Q236.03-56.46 241.39-54.58Q246.75-52.70 253.61-52.70L253.61-52.70Q263.86-52.70 270.44-58.53Q277.02-64.36 277.02-70.66L277.02-70.66Q277.02-73.95 274.85-76.01Q272.69-78.08 268.46-78.08L268.46-78.08Q266.96-78.08 266.96-78.83L266.96-78.83Q266.96-79.30 269.12-79.30L269.12-79.30Q273.91-79.30 276.69-76.58Q279.46-73.85 279.46-69.72L279.46-69.72Q279.46-62.76 271.99-57.03Q264.51-51.29 250.79-51.29L250.79-51.29Q246.65-51.29 242.33-52.56Q238.01-53.83 235.19-55.29Q232.37-56.74 228.23-59.19L228.23-59.19Q225.50-58.06 222.40-56.37L222.40-56.37Q225.22-53.08 225.22-48.57L225.22-48.57L225.22-48.19Q229.92-50.16 234.90-50.16L234.90-50.16Q242.24-50.16 245.90-47.06Q249.57-43.96 249.57-39.26Q249.57-34.56 246.98-29.67Q244.40-24.78 239.98-20.65Q235.56-16.51 229.08-13.83Q222.59-11.15 216.01-11.15Q209.43-11.15 205.43-14.35Q201.44-17.55 199.94-22.81L199.94-22.81Q197.96-22.43 195.14-22.43L195.14-22.43Q187.06-22.43 182.92-26.81Q178.79-31.18 178.79-37.94Q178.79-44.71 182.45-51.43Q186.12-58.15 193.40-62.90Q200.69-67.65 209.62-67.65L209.62-67.65Q213.10-67.65 216.71-66.52Q220.33-65.39 222.50-64.26Q224.66-63.14 228.70-60.79L228.70-60.79Q232.84-62.10 236.41-62.67L236.41-62.67Q235.28-64.64 235.28-67.08L235.28-67.08Q235.28-72.07 239.65-76.01Q244.02-79.96 251.02-79.96Q258.03-79.96 261.93-77.52Q265.83-75.07 265.83-71.36Q265.83-67.65 261.04-65.20ZM261.55-37.52Q266.77-43.96 272.22-50.49Q277.67-57.03 278.00-57.40Q278.33-57.78 279.32-57.78Q280.31-57.78 280.31-57.21L280.31-57.21L280.31-56.93Q280.31-56.37 279.84-56.09L279.84-56.09Q275.70-52.14 262.63-35.97Q249.57-19.80 249.57-17.50Q249.57-15.20 251.82-15.20L251.82-15.20Q252.58-15.20 254.27-15.67L254.27-15.67Q257.28-16.89 258.69-18.25Q260.10-19.61 260.42-19.61Q260.75-19.61 260.75-19.05Q260.75-18.49 259.06-17.03Q257.37-15.57 254.83-14.44Q252.29-13.32 250.23-13.32L250.23-13.32Q247.12-13.32 247.12-16.23L247.12-16.23Q247.12-18.02 251.73-24.55Q256.34-31.08 261.55-37.52ZM273.26-35.88Q273.26-36.72 274.10-37.71Q274.95-38.70 275.65-38.70Q276.36-38.70 276.78-38.27Q277.20-37.85 277.20-37.00Q277.20-36.16 276.22-35.41Q275.23-34.65 274.57-34.65L274.57-34.65Q273.26-34.65 273.26-35.88L273.26-35.88ZM260.00-15.76L260.00-15.76Q260.00-17.26 262.45-19.90L262.45-19.90L269.50-27.89Q270.06-28.45 270.06-28.83Q270.06-29.20 269.73-29.48Q269.40-29.77 268.88-29.77Q268.37-29.77 267.99-29.44Q267.62-29.11 266.53-27.79Q265.45-26.48 263.57-24.27Q261.69-22.06 261.08-21.31Q260.47-20.55 259.72-19.66Q258.97-18.77 258.50-18.20L258.50-18.20Q257.28-16.51 257.28-15.29L257.28-15.29Q257.28-13.13 259.34-13.13L259.34-13.13Q262.35-13.13 266.16-15.57Q269.97-18.02 269.97-19.14L269.97-19.14Q269.97-19.61 269.64-19.61Q269.31-19.61 269.03-19.24L269.03-19.24Q264.04-14.73 261.32-14.73L261.32-14.73Q260.00-14.73 260.00-15.76ZM275.51-12.38L275.51-12.38Q268.56-12.38 268.56-16.89L268.56-16.89Q268.56-20.93 273.44-25.21Q278.33-29.48 283.64-29.48Q288.95-29.48 288.95-26.01L288.95-26.01Q288.95-23.84 286.79-22.15Q284.63-20.46 282.89-20.46Q281.15-20.46 280.35-21.17Q279.55-21.87 279.55-22.48Q279.55-23.09 280.26-23.89Q280.96-24.69 281.43-24.78L281.43-24.78Q282.28-24.78 282.28-24.03L282.28-24.03Q282.28-23.84 282.09-23.61Q281.90-23.37 281.90-22.34L281.90-22.34Q281.90-21.59 282.98-21.59Q284.07-21.59 285.24-22.67Q286.42-23.75 286.42-25.25L286.42-25.25Q286.42-28.45 282.84-28.45Q279.27-28.45 275.42-24.64Q271.56-20.84 271.56-17.45L271.56-17.45Q271.56-13.69 276.92-13.69L276.92-13.69Q284.54-13.69 289.89-19.24L289.89-19.24Q290.18-19.61 290.50-19.61Q290.83-19.61 290.83-19.10Q290.83-18.58 289.33-17.08Q287.83-15.57 284.07-13.97Q280.31-12.38 275.51-12.38ZM303.24-35.88Q303.24-36.72 304.09-37.71Q304.93-38.70 305.64-38.70Q306.34-38.70 306.77-38.27Q307.19-37.85 307.19-37.00Q307.19-36.16 306.20-35.41Q305.22-34.65 304.56-34.65L304.56-34.65Q303.24-34.65 303.24-35.88L303.24-35.88ZM289.99-15.76L289.99-15.76Q289.99-17.26 292.43-19.90L292.43-19.90L299.48-27.89Q300.05-28.45 300.05-28.83Q300.05-29.20 299.72-29.48Q299.39-29.77 298.87-29.77Q298.35-29.77 297.98-29.44Q297.60-29.11 296.52-27.79Q295.44-26.48 293.56-24.27Q291.68-22.06 291.07-21.31Q290.46-20.55 289.71-19.66Q288.95-18.77 288.48-18.20L288.48-18.20Q287.26-16.51 287.26-15.29L287.26-15.29Q287.26-13.13 289.33-13.13L289.33-13.13Q292.34-13.13 296.14-15.57Q299.95-18.02 299.95-19.14L299.95-19.14Q299.95-19.61 299.62-19.61Q299.29-19.61 299.01-19.24L299.01-19.24Q294.03-14.73 291.30-14.73L291.30-14.73Q289.99-14.73 289.99-15.76ZM304.18-14.54L304.18-14.54Q307.85-14.54 312.36-18.35Q316.87-22.15 317.62-24.88L317.62-24.88Q317.62-26.01 316.21-26.81Q314.80-27.60 313.02-27.60L313.02-27.60Q308.69-27.60 305.07-23.89Q301.46-20.18 301.46-17.36Q301.46-14.54 304.18-14.54ZM313.86-29.11L313.86-29.11Q317.15-29.11 319.32-26.76L319.32-26.76Q319.41-26.76 320.82-28.17L320.82-28.17Q321.48-29.20 322.32-29.20Q323.17-29.20 323.17-28.36L323.17-28.36L322.79-27.51Q322.51-27.04 319.08-22.90Q315.65-18.77 315.13-18.02Q314.62-17.26 314.62-15.76L314.62-15.76Q314.62-14.73 315.93-14.73L315.93-14.73Q318.66-14.73 323.64-19.24L323.64-19.24Q323.92-19.61 324.25-19.61Q324.58-19.61 324.58-19.14L324.58-19.14Q324.58-18.02 320.77-15.57Q316.97-13.13 313.96-13.13L313.96-13.13Q311.89-13.13 311.89-15.29L311.89-15.29Q311.89-16.04 311.65-16.04Q311.42-16.04 311.33-15.95L311.33-15.95Q306.63-12.85 302.44-12.85Q298.26-12.85 298.26-16.61L298.26-16.61Q298.26-20.55 302.96-24.83Q307.66-29.11 313.86-29.11ZM410.97-78.08L410.97-78.08Q407.49-78.08 395.74-66.80L395.74-66.80Q402.51-69.53 407.58-72.72Q412.66-75.92 412.66-77.33L412.66-77.33Q412.66-78.08 410.97-78.08ZM376.00-79.49L376.00-79.49Q376.00-80.15 375.15-80.15L375.15-80.15Q370.45-80.15 363.68-66.99L363.68-66.99Q369.32-70.47 372.66-73.81Q376.00-77.14 376.00-79.49ZM298.73-70.47Q298.73-64.64 305.97-59.47Q313.21-54.30 323.36-54.30Q333.51-54.30 344.51-58.06L344.51-58.06Q340.47-67.74 331.72-73.38Q322.98-79.02 312.92-79.02L312.92-79.02Q305.78-79.02 302.25-76.63Q298.73-74.23 298.73-70.47L298.73-70.47ZM348.55-44.81L348.46-43.77Q348.36-42.83 347.80-42.83Q347.23-42.83 347.23-43.87L347.23-43.87Q347.23-50.54 344.98-56.74L344.98-56.74Q333.42-52.80 322.51-52.80Q311.61-52.80 303.95-58.25Q296.29-63.70 296.29-70.00L296.29-70.00Q296.29-74.51 300.70-77.42Q305.12-80.34 314.80-80.34Q324.49-80.34 333.42-74.23Q342.35-68.12 346.20-58.62L346.20-58.62Q353.72-61.44 360.39-65.11L360.39-65.11Q364.53-73.38 368.62-77.89Q372.71-82.41 377.41-82.41L377.41-82.41Q378.07-82.41 378.58-81.84Q379.10-81.28 379.10-80.71L379.10-80.71Q379.10-77.71 374.54-73.34Q369.98-68.96 362.56-64.64L362.56-64.64Q359.83-59.00 354.75-46.59Q349.68-34.18 345.59-25.68Q341.50-17.17 337.93-13.60L337.93-13.60L337.74-13.32L338.12-13.32Q343.38-15.67 351.46-23.56Q359.55-31.46 371.16-44.29Q382.77-57.12 388.69-62.95L388.69-62.95Q386.71-62.29 382.77-61.35L382.77-61.35Q382.01-61.35 382.01-61.82L382.01-61.82Q382.01-62.76 383.99-63.14L383.99-63.14Q388.12-63.98 390.66-64.92L390.66-64.92Q406.36-79.96 414.07-79.96L414.07-79.96Q416.79-79.96 416.79-78.74L416.79-78.74Q416.79-76.58 409.93-72.30Q403.07-68.02 393.48-64.55L393.48-64.55Q388.50-59.66 372.80-43.16Q357.10-26.66 347.99-18.44Q338.87-10.21 335.11-10.21L335.11-10.21Q334.92-10.21 334.45-10.50Q333.98-10.78 333.98-11.11Q333.98-11.44 336.14-13.88L336.14-13.88Q340.28-19.05 344.18-27.32Q348.08-35.59 352.54-46.69Q357.01-57.78 359.36-62.85L359.36-62.85Q353.25-59.66 346.76-57.31L346.76-57.31Q348.64-52.23 348.64-46.78L348.64-46.78Q348.64-45.84 348.55-44.81L348.55-44.81ZM365.75-18.30L365.75-18.30L365.75-17.64Q376.28-21.68 376.28-25.72L376.28-25.72Q376.28-27.79 373.69-27.79Q371.11-27.79 368.43-24.60Q365.75-21.40 365.75-18.30ZM378.63-26.48L378.63-26.48Q378.63-20.84 366.03-16.70L366.03-16.70Q366.79-14.54 370.17-14.54L370.17-14.54Q375.90-14.54 381.07-19.24L381.07-19.24Q381.36-19.61 381.68-19.61Q382.01-19.61 382.01-19.00Q382.01-18.39 380.32-16.98Q378.63-15.57 375.53-14.26Q372.43-12.94 369.42-12.94L369.42-12.94Q363.03-12.94 363.03-17.64L363.03-17.64Q363.03-21.49 366.93-25.44Q370.83-29.39 375.34-29.39L375.34-29.39Q378.63-29.39 378.63-26.48ZM395.17-21.78L395.17-21.78Q396.02-21.78 397.34-22.53L397.34-22.53Q397.81-22.53 397.81-22.20Q397.81-21.87 397.57-21.68Q397.34-21.49 395.83-21.02Q394.33-20.55 393.39-20.55L393.39-20.55Q390.29-20.55 390.29-22.53L390.29-22.53Q390.29-23.28 390.71-24.13Q391.13-24.97 391.13-25.25Q391.13-25.54 390.94-25.54L390.94-25.54Q389.06-24.88 385.49-22.25L385.49-22.25L378.82-13.88Q378.07-12.94 377.36-12.94Q376.66-12.94 376.66-13.41Q376.66-13.88 377.31-14.91L377.31-14.91L383.24-22.34Q383.89-23.19 385.68-25.54Q387.47-27.89 387.79-28.36Q388.12-28.83 389.11-28.83Q390.10-28.83 390.10-28.45Q390.10-28.07 389.91-27.89L389.91-27.89L388.59-26.01Q388.31-25.63 387.94-25.25L387.94-25.25Q388.78-25.44 394.70-28.64L394.70-28.64Q394.89-28.73 395.36-28.73Q395.83-28.73 395.83-28.50Q395.83-28.26 395.69-28.03Q395.55-27.79 394.70-26.76L394.70-26.76Q393.01-24.69 393.01-23.66L393.01-23.66Q393.01-21.78 395.17-21.78ZM413.60-50.07Q413.60-45.84 416.14-41.89Q418.67-37.94 422.90-36.35L422.90-36.35Q425.82-44.81 425.82-50.82L425.82-50.82Q425.82-59.75 420.08-59.75L420.08-59.75Q417.64-59.75 416.04-57.59L416.04-57.59Q413.60-54.30 413.60-50.07ZM411.44-29.58L411.44-29.58Q413.13-29.58 414.49-28.92Q415.85-28.26 416.42-27.51L416.42-27.51L416.89-26.85Q416.89-25.72 415.95-25.72L415.95-25.72Q415.38-25.72 415.10-26.48L415.10-26.48Q413.13-28.07 410.59-28.07L410.59-28.07Q406.17-28.07 402.88-24.50Q399.59-20.93 399.59-17.64Q399.59-14.35 402.79-14.35L402.79-14.35Q408.43-14.35 413.64-20.27Q418.86-26.19 422.25-34.84L422.25-34.84Q417.83-36.16 414.73-40.11Q411.62-44.05 411.62-48.38Q411.62-52.70 414.11-57.12Q416.61-61.54 420.84-61.54L420.84-61.54Q423.94-61.54 426.05-58.44Q428.17-55.33 428.17-49.98Q428.17-44.62 424.97-35.78L424.97-35.78Q425.72-35.59 427.23-35.59L427.23-35.59Q433.53-35.59 438.41-40.76L438.41-40.76Q439.64-41.99 440.06-41.99Q440.48-41.99 440.48-41.38Q440.48-40.76 439.73-40.01L439.73-40.01Q434.18-34.28 425.91-34.28L425.91-34.28Q424.88-34.28 424.41-34.37L424.41-34.37Q420.65-25.16 414.58-18.91Q408.52-12.66 401.38-12.66L401.38-12.66Q397.24-12.66 397.24-16.98Q397.24-21.31 401.24-25.44Q405.23-29.58 411.44-29.58ZM425.72-14.54L425.72-14.54Q429.39-14.54 433.90-18.35Q438.41-22.15 439.17-24.88L439.17-24.88Q439.17-26.01 437.76-26.81Q436.35-27.60 434.56-27.60L434.56-27.60Q430.24-27.60 426.62-23.89Q423.00-20.18 423.00-17.36Q423.00-14.54 425.72-14.54ZM435.41-29.11L435.41-29.11Q438.70-29.11 440.86-26.76L440.86-26.76Q440.95-26.76 442.36-28.17L442.36-28.17Q443.02-29.20 443.87-29.20Q444.71-29.20 444.71-28.36L444.71-28.36L444.34-27.51Q444.05-27.04 440.62-22.90Q437.19-18.77 436.67-18.02Q436.16-17.26 436.16-15.76L436.16-15.76Q436.16-14.73 437.47-14.73L437.47-14.73Q440.20-14.73 445.18-19.24L445.18-19.24Q445.46-19.61 445.79-19.61Q446.12-19.61 446.12-19.14L446.12-19.14Q446.12-18.02 442.31-15.57Q438.51-13.13 435.50-13.13L435.50-13.13Q433.43-13.13 433.43-15.29L433.43-15.29Q433.43-16.04 433.20-16.04Q432.96-16.04 432.87-15.95L432.87-15.95Q428.17-12.85 423.98-12.85Q419.80-12.85 419.80-16.61L419.80-16.61Q419.80-20.55 424.50-24.83Q429.20-29.11 435.41-29.11ZM465.67-27.42L465.67-27.42Q465.67-25.25 462.01-21.26Q458.34-17.26 458.34-15.76L458.34-15.76Q458.34-14.73 459.66-14.73L459.66-14.73Q462.38-14.73 467.37-19.24L467.37-19.24Q467.65-19.61 467.98-19.61Q468.31-19.61 468.31-19.14L468.31-19.14Q468.31-18.02 464.50-15.57Q460.69-13.13 457.68-13.13L457.68-13.13Q455.62-13.13 455.62-15.20Q455.62-17.26 459.19-21.26Q462.76-25.25 462.76-26.57Q462.76-27.89 460.46-27.84Q458.15-27.79 452.23-24.60L452.23-24.60Q450.92-23.37 446.54-18.30Q442.17-13.22 441.89-13.13L441.89-13.13Q440.86-13.13 440.86-14.07L440.86-14.07Q440.95-14.35 442.22-15.95Q443.49-17.55 443.87-17.92L443.87-17.92L451.48-27.42Q454.30-30.61 454.86-30.61L454.86-30.61Q455.99-30.61 455.99-29.67L455.99-29.67Q455.71-29.20 454.86-28.26Q454.02-27.32 453.64-26.66L453.64-26.66Q459.00-30.05 462.29-30.05L462.29-30.05Q463.70-30.05 464.55-29.39Q465.39-28.73 465.67-27.42ZM483.16-50.07Q483.16-45.84 485.70-41.89Q488.23-37.94 492.46-36.35L492.46-36.35Q495.38-44.81 495.38-50.82L495.38-50.82Q495.38-59.75 489.64-59.75L489.64-59.75Q487.20-59.75 485.60-57.59L485.60-57.59Q483.16-54.30 483.16-50.07ZM481.00-29.58L481.00-29.58Q482.69-29.58 484.05-28.92Q485.41-28.26 485.98-27.51L485.98-27.51L486.45-26.85Q486.45-25.72 485.51-25.72L485.51-25.72Q484.94-25.72 484.66-26.48L484.66-26.48Q482.69-28.07 480.15-28.07L480.15-28.07Q475.73-28.07 472.44-24.50Q469.15-20.93 469.15-17.64Q469.15-14.35 472.35-14.35L472.35-14.35Q477.99-14.35 483.20-20.27Q488.42-26.19 491.81-34.84L491.81-34.84Q487.39-36.16 484.29-40.11Q481.18-44.05 481.18-48.38Q481.18-52.70 483.67-57.12Q486.17-61.54 490.40-61.54L490.40-61.54Q493.50-61.54 495.61-58.44Q497.73-55.33 497.73-49.98Q497.73-44.62 494.53-35.78L494.53-35.78Q495.28-35.59 496.79-35.59L496.79-35.59Q503.09-35.59 507.97-40.76L507.97-40.76Q509.20-41.99 509.62-41.99Q510.04-41.99 510.04-41.38Q510.04-40.76 509.29-40.01L509.29-40.01Q503.74-34.28 495.47-34.28L495.47-34.28Q494.44-34.28 493.97-34.37L493.97-34.37Q490.21-25.16 484.14-18.91Q478.08-12.66 470.94-12.66L470.94-12.66Q466.80-12.66 466.80-16.98Q466.80-21.31 470.80-25.44Q474.79-29.58 481.00-29.58ZM503.84-35.88Q503.84-36.72 504.68-37.71Q505.53-38.70 506.23-38.70Q506.94-38.70 507.36-38.27Q507.79-37.85 507.79-37.00Q507.79-36.16 506.80-35.41Q505.81-34.65 505.15-34.65L505.15-34.65Q503.84-34.65 503.84-35.88L503.84-35.88ZM490.58-15.76L490.58-15.76Q490.58-17.26 493.03-19.90L493.03-19.90L500.08-27.89Q500.64-28.45 500.64-28.83Q500.64-29.20 500.31-29.48Q499.98-29.77 499.47-29.77Q498.95-29.77 498.57-29.44Q498.20-29.11 497.12-27.79Q496.04-26.48 494.16-24.27Q492.28-22.06 491.66-21.31Q491.05-20.55 490.30-19.66Q489.55-18.77 489.08-18.20L489.08-18.20Q487.86-16.51 487.86-15.29L487.86-15.29Q487.86-13.13 489.93-13.13L489.93-13.13Q492.93-13.13 496.74-15.57Q500.55-18.02 500.55-19.14L500.55-19.14Q500.55-19.61 500.22-19.61Q499.89-19.61 499.61-19.24L499.61-19.24Q494.63-14.73 491.90-14.73L491.90-14.73Q490.58-14.73 490.58-15.76Z"></path></g></g></svg>