<svg version="1.1" xmlns="http://www.w3.org/2000/svg" xmlns:xlink="http://www.w3.org/1999/xlink" width="411.6500244140625" height="37.05999755859375"><defs></defs><g transform="translate(-207.74192810058594,17.959999084472656)"><rect fill="rgb(255,255,255)" stroke="none" x="0" y="0" width="411.6500244140625" height="37.05999755859375" fill-opacity="0" transform="translate(207.74192810058594,-17.959999084472656)"></rect><g transform="translate(206.29193115234375,19) rotate(0,0,0) translate(-206.29193115234375,-19) matrix(1,0,0,1,206.29193115234375,19)"><path fill="rgb(0,0,0)" fill-opacity="1" d="M16.38-7.82L16.38-7.82Q35.05-36.14 45.04-36.14L45.04-36.14Q46.57-36.14 47.15-35.33L47.15-35.33Q47.24-35.18 47.24-35.06Q47.24-34.94 47.03-34.90Q46.81-34.85 46.57-34.90Q46.33-34.94 46.19-34.94L46.19-34.94Q43.40-34.94 39.28-32.02Q35.15-29.09 31.04-24.58Q26.94-20.06 22.96-14.93L22.96-14.93Q15.23-5.04 12.64-0.24L12.64-0.24Q12.44 0.10 12.28 0.10Q12.11 0.10 11.89-0.02Q11.68-0.14 11.87-0.53L11.87-0.53Q14.08-4.22 14.27-4.51L14.27-4.51Q11.34-3.17 10.24-3.17L10.24-3.17Q10.09-3.17 10.04-3.26L10.04-3.26Q14.56-19.92 14.56-27.55L14.56-27.55Q14.56-29.62 14.08-31.51Q13.60-33.41 12.64-34.18Q11.68-34.94 10.67-34.94L10.67-34.94Q9.04-34.94 7.36-33Q5.68-31.06 4.07-27.43Q2.46-23.81 2.46-19.78L2.46-19.78Q2.46-19.15 2.51-18.53Q2.56-17.90 2.27-17.90L2.27-17.90Q2.17-17.95 2.08-18.19L2.08-18.19Q1.45-19.39 1.45-20.98L1.45-20.98Q1.45-26.45 2.94-29.28Q4.43-32.11 6.64-33.84L6.64-33.84Q9.76-36.34 12.44-36.34L12.44-36.34Q13.98-36.34 15.42-35.42L15.42-35.42Q19.07-33.07 19.07-24.53L19.07-24.53Q19.07-17.71 16.38-7.82ZM34.96-12.19Q34.48-11.47 33.66-10.37Q32.84-9.26 32.12-8.26Q31.40-7.25 31.40-6.74Q31.40-6.24 31.88-6.24L31.88-6.24Q32.75-6.24 34.43-7.78L34.43-7.78L35.96-9.26Q38.32-11.81 40.09-14.16L40.09-14.16L41.87-16.32Q42.68-17.23 43.60-17.28L43.60-17.28Q44.99-17.28 46.19-16.22L46.19-16.22Q45.90-15.79 45.25-14.98Q44.60-14.16 43.96-13.32Q43.31-12.48 42.47-11.38Q41.63-10.27 41.00-9.31Q40.38-8.35 39.73-7.27Q39.08-6.19 38.80-5.42L38.80-5.42Q38.08-3.31 38.84-2.78L38.84-2.78Q39.08-2.54 38.75-2.54L38.75-2.54Q38.65-2.54 38.56-2.59L38.56-2.59Q36.73-3.22 36.73-5.57Q36.73-7.92 38.27-11.14L38.27-11.14Q33.13-4.51 29.92-4.51L29.92-4.51Q27.47-4.51 27.47-6.82L27.47-6.82Q27.47-7.63 27.80-8.74L27.80-8.74Q28.52-10.90 32.70-15.55L32.70-15.55Q33.23-16.18 33.23-16.61Q33.23-17.04 32.65-17.04Q32.08-17.04 30.92-16.18Q29.77-15.31 27.71-13.37Q25.64-11.42 25.19-11.04Q24.73-10.66 24.73-11.23L24.73-11.23Q24.73-11.52 25.64-12.26Q26.56-13.01 28.14-14.66Q29.72-16.32 30.90-17.21Q32.08-18.10 33.61-18.10L33.61-18.10Q35.34-18.10 35.96-16.80L35.96-16.80Q36.20-16.32 36.20-15.55Q36.20-14.78 35.82-13.85Q35.44-12.91 34.96-12.19ZM59.39-14.40L59.39-14.40Q57.28-11.95 55.96-9.91Q54.64-7.87 54.64-7.03Q54.64-6.19 55.62-6.19Q56.60-6.19 59.65-8.16Q62.70-10.13 65.29-12.58L65.29-12.58Q65.53-12.82 65.72-12.77Q65.92-12.72 65.92-12.53Q65.92-12.34 65.72-12.10L65.72-12.10Q59.53-6.43 56.27-4.99L56.27-4.99Q54.83-4.42 54.20-4.42L54.20-4.42Q51.90-4.42 51.06-5.18Q50.22-5.95 50.22-6.86L50.22-6.86Q50.22-8.69 50.94-9.65L50.94-9.65Q53.29-12.96 54.68-15.26L54.68-15.26Q55.12-15.94 54.52-16.20Q53.92-16.46 53.03-16.46Q52.14-16.46 52.09-16.51L52.09-16.51Q48.88-12.19 45.71-9.70L45.71-9.70Q45.32-9.36 45.28-9.70L45.28-9.70Q45.28-10.08 45.80-10.61L45.80-10.61Q49.16-13.49 51.32-16.70L51.32-16.70Q50.89-16.99 50.89-17.50Q50.89-18 50.96-18.72Q51.04-19.44 51.71-20.64L51.71-20.64Q52.86-22.66 54.11-22.66L54.11-22.66Q55.16-22.66 55.16-21.50L55.16-21.50Q55.16-19.92 53.68-18.05L53.68-18.05Q52.96-17.18 52.33-16.80L52.33-16.80Q54.11-17.38 57.52-17.38L57.52-17.38Q59.20-17.38 59.92-16.13L59.92-16.13Q60.01-15.94 60.01-15.55Q60.01-15.17 59.39-14.40ZM85.88-15.50L85.88-15.50Q85.88-13.73 82.86-9.65L82.86-9.65Q81.04-7.20 81.04-6.62Q81.04-6.05 81.64-6.05Q82.24-6.05 83.34-6.77L83.34-6.77Q86.08-8.64 88.81-11.28L88.81-11.28Q89.20-11.66 89.34-11.47Q89.48-11.28 89.48-11.18Q89.48-11.09 88.43-10.08Q87.37-9.07 86.10-7.97Q84.83-6.86 82.91-5.69Q80.99-4.51 79.74-4.51L79.74-4.51Q77.15-4.51 77.15-6.82L77.15-6.82Q77.15-7.63 77.44-8.74L77.44-8.74Q78.06-10.61 82.86-15.98L82.86-15.98Q83.48-16.66 83.48-17.04Q83.48-17.42 82.52-17.42Q81.56-17.42 79.50-15.74L79.50-15.74Q78.78-15.17 77.72-14.04Q76.67-12.91 75.25-10.42Q73.84-7.92 73.16-6.00L73.16-6.00Q72.88-5.14 72.01-5.14L72.01-5.14Q71.82-5.14 71.53-5.18L71.53-5.18Q70.62-5.42 70.81-6.05L70.81-6.05Q74.56-12.72 75.28-14.40Q76.00-16.08 76.00-16.80Q76.00-17.52 75.42-17.52L75.42-17.52Q72.88-17.52 68.12-9.22L68.12-9.22Q66.40-6.53 65.34-5.38Q64.28-4.22 63.42-4.22L63.42-4.22Q63.32-4.22 63.23-4.22L63.23-4.22Q61.98-4.22 60.78-5.23L60.78-5.23Q61.07-5.66 62.17-7.10L62.17-7.10Q64.62-10.08 66.44-12.86L66.44-12.86Q64.38-10.80 62.94-9.65L62.94-9.65Q62.46-9.26 62.39-9.60Q62.32-9.94 62.60-10.20Q62.89-10.46 63.56-11.06Q64.24-11.66 64.45-11.86Q64.67-12.05 65.27-12.60Q65.87-13.15 66.16-13.49L66.16-13.49Q67.50-15.07 68.12-16.18L68.12-16.18Q68.36-16.75 68.34-17.30Q68.32-17.86 68.10-18.02Q67.88-18.19 67.93-18.43L67.93-18.43Q67.93-18.82 68.32-18.82L68.32-18.82Q68.51-18.82 68.75-18.72L68.75-18.72Q70.24-18.05 70.24-15.79L70.24-15.79Q70.24-14.45 69.71-12.86L69.71-12.86Q70.67-14.35 71.77-15.79L71.77-15.79Q73.74-18.34 75.71-18.34L75.71-18.34Q77.05-18.34 77.05-16.80L77.05-16.80Q77.05-15.36 75.04-11.66L75.04-11.66Q77.05-14.26 78.16-15.46L78.16-15.46Q80.70-18.10 83.05-18.10L83.05-18.10Q85.55-18.10 85.88-15.94L85.88-15.94Q85.88-15.70 85.88-15.50ZM98.08-19.44Q97.55-19.87 97.64-20.69Q97.74-21.50 98.51-22.42Q99.28-23.33 100.57-23.33L100.57-23.33Q100.96-23.33 101.39-22.97Q101.82-22.61 101.72-21.77Q101.63-20.93 100.96-20.18Q100.28-19.44 99.44-19.22Q98.60-19.01 98.08-19.44ZM97.45-16.90L97.45-16.90Q95.48-14.88 94.16-11.78Q92.84-8.69 92.84-7.44Q92.84-6.19 93.83-6.19Q94.81-6.19 97.09-7.63Q99.37-9.07 102.30-11.71L102.30-11.71Q102.92-12.29 102.92-11.57L102.92-11.57Q102.92-11.47 102.83-11.38L102.83-11.38Q100.52-9.36 98.94-8.06Q97.36-6.77 95.17-5.59Q92.99-4.42 91.60-4.42L91.60-4.42Q89.87-4.42 89.03-5.18Q88.19-5.95 88.19-6.86L88.19-6.86Q88.19-8.59 88.81-9.60Q89.44-10.61 90.92-12.38L90.92-12.38Q90.40-11.95 89.27-10.94Q88.14-9.94 87.71-9.60Q87.28-9.26 87.28-9.79L87.28-9.79Q87.28-10.13 88.04-10.75Q88.81-11.38 91.38-13.92Q93.95-16.46 94.88-16.94Q95.82-17.42 96.42-17.42Q97.02-17.42 97.31-17.26Q97.60-17.09 97.45-16.90ZM114.64-14.40L114.64-14.40Q112.52-11.95 111.20-9.91Q109.88-7.87 109.88-7.03Q109.88-6.19 110.87-6.19Q111.85-6.19 114.90-8.16Q117.95-10.13 120.54-12.58L120.54-12.58Q120.78-12.82 120.97-12.77Q121.16-12.72 121.16-12.53Q121.16-12.34 120.97-12.10L120.97-12.10Q114.78-6.43 111.52-4.99L111.52-4.99Q110.08-4.42 109.45-4.42L109.45-4.42Q107.15-4.42 106.31-5.18Q105.47-5.95 105.47-6.86L105.47-6.86Q105.47-8.69 106.19-9.65L106.19-9.65Q108.54-12.96 109.93-15.26L109.93-15.26Q110.36-15.94 109.76-16.20Q109.16-16.46 108.28-16.46Q107.39-16.46 107.34-16.51L107.34-16.51Q104.12-12.19 100.96-9.70L100.96-9.70Q100.57-9.36 100.52-9.70L100.52-9.70Q100.52-10.08 101.05-10.61L101.05-10.61Q104.41-13.49 106.57-16.70L106.57-16.70Q106.14-16.99 106.14-17.50Q106.14-18 106.21-18.72Q106.28-19.44 106.96-20.64L106.96-20.64Q108.11-22.66 109.36-22.66L109.36-22.66Q110.41-22.66 110.41-21.50L110.41-21.50Q110.41-19.92 108.92-18.05L108.92-18.05Q108.20-17.18 107.58-16.80L107.58-16.80Q109.36-17.38 112.76-17.38L112.76-17.38Q114.44-17.38 115.16-16.13L115.16-16.13Q115.26-15.94 115.26-15.55Q115.26-15.17 114.64-14.40ZM136.38-12.19Q135.85-11.57 135.30-10.85Q134.75-10.13 133.91-8.88Q133.07-7.63 133.07-6.77Q133.07-5.90 133.81-5.90Q134.56-5.90 136.24-6.82L136.24-6.82Q139.60-8.74 143.68-12.58L143.68-12.58Q144.16-13.06 144.30-12.72L144.30-12.72Q144.30-12.67 144.30-12.53Q144.30-12.38 144.11-12.19L144.11-12.19Q135.85-4.42 132.11-4.42L132.11-4.42Q131.00-4.42 130.26-5.16Q129.52-5.90 129.52-6.91L129.52-6.91Q129.52-7.92 130.38-9.98L130.38-9.98Q128.22-7.30 125.75-5.83Q123.28-4.37 121.88-4.37Q120.49-4.37 119.51-5.21Q118.52-6.05 118.52-7.30L118.52-7.30Q118.52-10.85 121.69-14.26L121.69-14.26Q124.09-16.80 127.64-17.86L127.64-17.86Q129.23-18.38 130.74-18.38Q132.25-18.38 133.67-17.54Q135.08-16.70 135.47-15.55L135.47-15.55Q136.91-15.55 137.53-14.50L137.53-14.50Q137.63-14.35 137.63-14.02Q137.63-13.68 137.27-13.25Q136.91-12.82 136.38-12.19ZM132.88-16.94L132.88-16.94Q131.87-16.94 130.48-16.32L130.48-16.32Q128.03-15.26 125.82-12.67L125.82-12.67Q122.32-8.54 122.32-6.62L122.32-6.62Q122.32-5.62 123.13-5.62L123.13-5.62Q123.80-5.62 125.36-6.48Q126.92-7.34 129.47-9.89L129.47-9.89Q129.61-10.03 130.57-10.94Q131.53-11.86 132.20-12.53L132.20-12.53Q134.46-14.88 134.46-15.91Q134.46-16.94 132.88-16.94ZM180.92-30.14L180.92-30.14Q180.92-32.35 176.94-32.35L176.94-32.35Q172.00-32.35 163.50-28.82Q155.00-25.30 150.20-20.88L150.20-20.88Q147.28-18.14 145.69-15.58Q144.11-13.01 144.11-11.09Q144.11-9.17 145.16-7.68L145.16-7.68Q146.99-4.90 153.37-4.37L153.37-4.37Q154.09-4.32 155.63-4.32Q157.16-4.32 159.90-4.85L159.90-4.85Q167.00-6.14 173.82-9.79Q180.64-13.44 183.85-18.10L183.85-18.10Q184.48-19.01 184.48-18.58L184.48-18.58Q184.48-18.38 184.38-18L184.38-18Q183.08-14.35 175.60-9.46L175.60-9.46Q164.60-2.26 154.38-2.26L154.38-2.26Q148.43-2.26 144.97-5.76L144.97-5.76Q142.67-8.02 142.67-11.81L142.67-11.81Q142.67-15.07 144.35-18.14L144.35-18.14Q148.43-25.82 158.51-31.73L158.51-31.73Q164.46-35.23 169.21-36.38L169.21-36.38Q172.24-36.96 174.97-36.96Q177.71-36.96 179.72-35.71L179.72-35.71Q181.84-34.32 181.84-31.78L181.84-31.78Q181.84-30.14 180.88-28.18L180.88-28.18Q180.59-27.60 180.49-27.89Q180.40-28.18 180.66-28.78Q180.92-29.38 180.92-30.14ZM169.12-19.34L169.12-19.34Q169.40-19.01 169.40-18.79Q169.40-18.58 169.36-18.43L169.36-18.43Q169.07-18.05 168.35-18.53L168.35-18.53Q166.72-19.73 163.12-19.73L163.12-19.73Q158.65-19.73 154.28-18.53L154.28-18.53Q152.41-18 151.69-18L151.69-18Q150.59-18 150.25-19.01L150.25-19.01Q150.20-19.06 150.20-19.15L150.20-19.15Q150.20-19.68 151.12-20.40Q152.03-21.12 154.57-21.60L154.57-21.60Q156.16-21.98 158.17-21.98Q160.19-21.98 162.54-21.70L162.54-21.70Q167.53-21.07 169.12-19.34ZM185.53-6.77L185.53-6.77Q185.53-5.47 186.83-5.47L186.83-5.47Q187.60-5.47 189.25-6.10Q190.91-6.72 193.55-8.83Q196.19-10.94 197.10-11.88Q198.01-12.82 198.20-12.79Q198.40-12.77 198.35-12.50Q198.30-12.24 198.11-12.05L198.11-12.05Q194.03-7.87 191.34-6.05Q188.65-4.22 186.35-4.22L186.35-4.22Q184.38-4.22 183.61-5.14Q182.84-6.05 182.84-7.25L182.84-7.25Q182.84-9.41 184.38-12.43L184.38-12.43Q181.60-9.46 181.60-10.51L181.60-10.51Q181.60-10.70 181.88-10.94L181.88-10.94Q184.14-12.77 186.73-16.22L186.73-16.22Q191.48-22.42 194.17-27.12L194.17-27.12Q194.65-28.03 194.65-28.46L194.65-28.46Q194.65-29.47 193.55-28.85L193.55-28.85Q192.30-28.22 192.20-28.37Q192.11-28.51 192.35-28.75L192.35-28.75Q193.50-29.62 195.52-30.38Q197.53-31.15 198.83-31.20L198.83-31.20Q200.84-31.20 200.84-29.95L200.84-29.95Q200.84-29.23 200.15-28.03Q199.45-26.83 196.16-23.26Q192.88-19.68 192.16-18.77L192.16-18.77Q187.21-12.29 185.87-8.45L185.87-8.45Q185.53-7.44 185.53-6.77ZM205.74-19.44Q205.21-19.87 205.31-20.69Q205.40-21.50 206.17-22.42Q206.94-23.33 208.24-23.33L208.24-23.33Q208.62-23.33 209.05-22.97Q209.48-22.61 209.39-21.77Q209.29-20.93 208.62-20.18Q207.95-19.44 207.11-19.22Q206.27-19.01 205.74-19.44ZM205.12-16.90L205.12-16.90Q203.15-14.88 201.83-11.78Q200.51-8.69 200.51-7.44Q200.51-6.19 201.49-6.19Q202.48-6.19 204.76-7.63Q207.04-9.07 209.96-11.71L209.96-11.71Q210.59-12.29 210.59-11.57L210.59-11.57Q210.59-11.47 210.49-11.38L210.49-11.38Q208.19-9.36 206.60-8.06Q205.02-6.77 202.84-5.59Q200.65-4.42 199.26-4.42L199.26-4.42Q197.53-4.42 196.69-5.18Q195.85-5.95 195.85-6.86L195.85-6.86Q195.85-8.59 196.48-9.60Q197.10-10.61 198.59-12.38L198.59-12.38Q198.06-11.95 196.93-10.94Q195.80-9.94 195.37-9.60Q194.94-9.26 194.94-9.79L194.94-9.79Q194.94-10.13 195.71-10.75Q196.48-11.38 199.04-13.92Q201.61-16.46 202.55-16.94Q203.48-17.42 204.08-17.42Q204.68-17.42 204.97-17.26Q205.26-17.09 205.12-16.90ZM223.02-16.18L223.02-16.18Q223.02-17.09 222.06-17.09L222.06-17.09Q221.24-17.09 219.54-16.34Q217.84-15.60 215.72-13.15L215.72-13.15Q213.18-10.13 213.18-7.78L213.18-7.78Q213.18-6.00 214.52-5.38L214.52-5.38Q214.96-5.18 215.53-5.18L215.53-5.18Q217.50-5.18 220.16-6.86Q222.83-8.54 227.05-12.43L227.05-12.43Q227.72-13.10 227.72-12.43L227.72-12.43Q227.72-12.14 227.44-11.90L227.44-11.90Q221.58-6.53 218.82-5.26Q216.06-3.98 214.48-3.98L214.48-3.98Q208.91-3.98 208.91-8.06Q208.91-12.14 212.58-15.10Q216.25-18.05 220.24-18.05L220.24-18.05Q222.73-18.05 223.60-16.90L223.60-16.90Q224.12-16.32 224.12-15.67Q224.12-15.02 223.79-14.33Q223.45-13.63 222.71-13.63Q221.96-13.63 222.49-14.57Q223.02-15.50 223.02-16.18ZM235.21-19.44Q234.68-19.87 234.78-20.69Q234.88-21.50 235.64-22.42Q236.41-23.33 237.71-23.33L237.71-23.33Q238.09-23.33 238.52-22.97Q238.96-22.61 238.86-21.77Q238.76-20.93 238.09-20.18Q237.42-19.44 236.58-19.22Q235.74-19.01 235.21-19.44ZM234.59-16.90L234.59-16.90Q232.62-14.88 231.30-11.78Q229.98-8.69 229.98-7.44Q229.98-6.19 230.96-6.19Q231.95-6.19 234.23-7.63Q236.51-9.07 239.44-11.71L239.44-11.71Q240.06-12.29 240.06-11.57L240.06-11.57Q240.06-11.47 239.96-11.38L239.96-11.38Q237.66-9.36 236.08-8.06Q234.49-6.77 232.31-5.59Q230.12-4.42 228.73-4.42L228.73-4.42Q227.00-4.42 226.16-5.18Q225.32-5.95 225.32-6.86L225.32-6.86Q225.32-8.59 225.95-9.60Q226.57-10.61 228.06-12.38L228.06-12.38Q227.53-11.95 226.40-10.94Q225.28-9.94 224.84-9.60Q224.41-9.26 224.41-9.79L224.41-9.79Q224.41-10.13 225.18-10.75Q225.95-11.38 228.52-13.92Q231.08-16.46 232.02-16.94Q232.96-17.42 233.56-17.42Q234.16-17.42 234.44-17.26Q234.73-17.09 234.59-16.90ZM256.19-12.19Q255.66-11.57 255.11-10.85Q254.56-10.13 253.72-8.88Q252.88-7.63 252.88-6.77Q252.88-5.90 253.62-5.90Q254.36-5.90 256.04-6.82L256.04-6.82Q259.40-8.74 263.48-12.58L263.48-12.58Q263.96-13.06 264.11-12.72L264.11-12.72Q264.11-12.67 264.11-12.53Q264.11-12.38 263.92-12.19L263.92-12.19Q255.66-4.42 251.92-4.42L251.92-4.42Q250.81-4.42 250.07-5.16Q249.32-5.90 249.32-6.91L249.32-6.91Q249.32-7.92 250.19-9.98L250.19-9.98Q248.03-7.30 245.56-5.83Q243.08-4.37 241.69-4.37Q240.30-4.37 239.32-5.21Q238.33-6.05 238.33-7.30L238.33-7.30Q238.33-10.85 241.50-14.26L241.50-14.26Q243.90-16.80 247.45-17.86L247.45-17.86Q249.04-18.38 250.55-18.38Q252.06-18.38 253.48-17.54Q254.89-16.70 255.28-15.55L255.28-15.55Q256.72-15.55 257.34-14.50L257.34-14.50Q257.44-14.35 257.44-14.02Q257.44-13.68 257.08-13.25Q256.72-12.82 256.19-12.19ZM252.68-16.94L252.68-16.94Q251.68-16.94 250.28-16.32L250.28-16.32Q247.84-15.26 245.63-12.67L245.63-12.67Q242.12-8.54 242.12-6.62L242.12-6.62Q242.12-5.62 242.94-5.62L242.94-5.62Q243.61-5.62 245.17-6.48Q246.73-7.34 249.28-9.89L249.28-9.89Q249.42-10.03 250.38-10.94Q251.34-11.86 252.01-12.53L252.01-12.53Q254.27-14.88 254.27-15.91Q254.27-16.94 252.68-16.94ZM277.12-7.82L277.12-7.82Q295.79-36.14 305.77-36.14L305.77-36.14Q307.31-36.14 307.88-35.33L307.88-35.33Q307.98-35.18 307.98-35.06Q307.98-34.94 307.76-34.90Q307.55-34.85 307.31-34.90Q307.07-34.94 306.92-34.94L306.92-34.94Q304.14-34.94 300.01-32.02Q295.88-29.09 291.78-24.58Q287.68-20.06 283.69-14.93L283.69-14.93Q275.96-5.04 273.37-0.24L273.37-0.24Q273.18 0.10 273.01 0.10Q272.84 0.10 272.63-0.02Q272.41-0.14 272.60-0.53L272.60-0.53Q274.81-4.22 275.00-4.51L275.00-4.51Q272.08-3.17 270.97-3.17L270.97-3.17Q270.83-3.17 270.78-3.26L270.78-3.26Q275.29-19.92 275.29-27.55L275.29-27.55Q275.29-29.62 274.81-31.51Q274.33-33.41 273.37-34.18Q272.41-34.94 271.40-34.94L271.40-34.94Q269.77-34.94 268.09-33Q266.41-31.06 264.80-27.43Q263.20-23.81 263.20-19.78L263.20-19.78Q263.20-19.15 263.24-18.53Q263.29-17.90 263.00-17.90L263.00-17.90Q262.91-17.95 262.81-18.19L262.81-18.19Q262.19-19.39 262.19-20.98L262.19-20.98Q262.19-26.45 263.68-29.28Q265.16-32.11 267.37-33.84L267.37-33.84Q270.49-36.34 273.18-36.34L273.18-36.34Q274.72-36.34 276.16-35.42L276.16-35.42Q279.80-33.07 279.80-24.53L279.80-24.53Q279.80-17.71 277.12-7.82ZM296.12-12.29L296.12-12.29Q298.67-13.68 298.67-15.12Q298.67-16.56 296.94-16.56L296.94-16.56Q296.12-16.56 295.21-16.13L295.21-16.13Q293.20-15.22 291.32-12.96L291.32-12.96Q289.02-10.18 289.02-7.78L289.02-7.78Q289.02-6.86 289.52-6.07Q290.03-5.28 291.32-5.28L291.32-5.28Q293.58-5.28 297.04-7.66Q300.49-10.03 302.99-12.43L302.99-12.43Q303.56-13.01 303.56-12.48L303.56-12.48Q303.56-12.14 303.28-11.90L303.28-11.90Q301.50-10.27 300.90-9.72Q300.30-9.17 298.52-7.75Q296.75-6.34 295.64-5.76L295.64-5.76Q292.24-3.98 289.86-3.98Q287.48-3.98 286.12-5.06Q284.75-6.14 284.75-8.06L284.75-8.06Q284.75-12.14 288.40-15.10Q292.04-18.05 296.03-18.05L296.03-18.05Q298.72-18.05 299.63-16.90L299.63-16.90Q300.01-16.32 300.01-15.67Q300.01-15.02 299.58-14.26L299.58-14.26Q298.72-12.77 296.34-11.64Q293.96-10.51 291.85-10.51L291.85-10.51Q291.04-10.51 290.96-10.66Q290.89-10.80 291.08-10.87Q291.28-10.94 291.61-10.94L291.61-10.94Q293.53-10.94 296.12-12.29ZM314.56-14.40L314.56-14.40Q312.44-11.95 311.12-9.91Q309.80-7.87 309.80-7.03Q309.80-6.19 310.79-6.19Q311.77-6.19 314.82-8.16Q317.87-10.13 320.46-12.58L320.46-12.58Q320.70-12.82 320.89-12.77Q321.08-12.72 321.08-12.53Q321.08-12.34 320.89-12.10L320.89-12.10Q314.70-6.43 311.44-4.99L311.44-4.99Q310.00-4.42 309.37-4.42L309.37-4.42Q307.07-4.42 306.23-5.18Q305.39-5.95 305.39-6.86L305.39-6.86Q305.39-8.69 306.11-9.65L306.11-9.65Q308.46-12.96 309.85-15.26L309.85-15.26Q310.28-15.94 309.68-16.20Q309.08-16.46 308.20-16.46Q307.31-16.46 307.26-16.51L307.26-16.51Q304.04-12.19 300.88-9.70L300.88-9.70Q300.49-9.36 300.44-9.70L300.44-9.70Q300.44-10.08 300.97-10.61L300.97-10.61Q304.33-13.49 306.49-16.70L306.49-16.70Q306.06-16.99 306.06-17.50Q306.06-18 306.13-18.72Q306.20-19.44 306.88-20.64L306.88-20.64Q308.03-22.66 309.28-22.66L309.28-22.66Q310.33-22.66 310.33-21.50L310.33-21.50Q310.33-19.92 308.84-18.05L308.84-18.05Q308.12-17.18 307.50-16.80L307.50-16.80Q309.28-17.38 312.68-17.38L312.68-17.38Q314.36-17.38 315.08-16.13L315.08-16.13Q315.18-15.94 315.18-15.55Q315.18-15.17 314.56-14.40ZM332.60-7.01L332.60-7.01Q331.69-4.51 331.69-2.93Q331.69-1.34 332.36-0.53L332.36-0.53Q332.51-0.34 332.41-0.26Q332.32-0.19 332.27-0.19Q332.22-0.19 332.12-0.24L332.12-0.24Q330.59-1.49 330.59-3.96Q330.59-6.43 331.60-9.65L331.60-9.65Q329.63-7.10 327.71-5.47L327.71-5.47Q325.40-3.55 323.00-3.55L323.00-3.55Q321.47-3.55 320.12-4.58Q318.78-5.62 318.78-7.97L318.78-7.97Q318.73-9.12 319.21-10.61L319.21-10.61Q318.25-9.74 317.99-9.55Q317.72-9.36 317.63-9.55Q317.53-9.74 317.53-9.91Q317.53-10.08 317.84-10.34Q318.16-10.61 321.18-13.87L321.18-13.87Q322.96-15.84 325.40-16.94Q327.85-18.05 330.06-18.05L330.06-18.05Q332.08-18.05 333.01-17.35Q333.95-16.66 333.95-15.60L333.95-15.60Q335.68-19.25 337.67-22.54Q339.66-25.82 340.76-27.07L340.76-27.07Q341.96-28.42 343.79-28.42Q345.61-28.42 346.76-27.41L346.76-27.41Q345.76-26.78 342.83-23.28Q339.90-19.78 337.12-15.77Q334.33-11.76 332.60-7.01ZM332.99-16.08L332.99-16.08Q332.99-17.04 331.79-17.04L331.79-17.04Q331.16-17.04 330.16-16.66L330.16-16.66Q327.90-15.79 325.69-13.30L325.69-13.30Q322.96-10.18 322.96-7.34L322.96-7.34Q322.96-5.66 324.06-5.33L324.06-5.33Q324.30-5.23 324.54-5.23L324.54-5.23Q326.51-5.23 330.40-9.17L330.40-9.17Q331.45-10.18 332.17-11.33L332.17-11.33Q332.56-12.43 333.18-13.87L333.18-13.87Q332.75-13.58 332.48-13.80Q332.22-14.02 332.60-14.76Q332.99-15.50 332.99-16.08ZM355.21-12.19Q354.68-11.57 354.13-10.85Q353.58-10.13 352.74-8.88Q351.90-7.63 351.90-6.77Q351.90-5.90 352.64-5.90Q353.39-5.90 355.07-6.82L355.07-6.82Q358.43-8.74 362.51-12.58L362.51-12.58Q362.99-13.06 363.13-12.72L363.13-12.72Q363.13-12.67 363.13-12.53Q363.13-12.38 362.94-12.19L362.94-12.19Q354.68-4.42 350.94-4.42L350.94-4.42Q349.84-4.42 349.09-5.16Q348.35-5.90 348.35-6.91L348.35-6.91Q348.35-7.92 349.21-9.98L349.21-9.98Q347.05-7.30 344.58-5.83Q342.11-4.37 340.72-4.37Q339.32-4.37 338.34-5.21Q337.36-6.05 337.36-7.30L337.36-7.30Q337.36-10.85 340.52-14.26L340.52-14.26Q342.92-16.80 346.48-17.86L346.48-17.86Q348.06-18.38 349.57-18.38Q351.08-18.38 352.50-17.54Q353.92-16.70 354.30-15.55L354.30-15.55Q355.74-15.55 356.36-14.50L356.36-14.50Q356.46-14.35 356.46-14.02Q356.46-13.68 356.10-13.25Q355.74-12.82 355.21-12.19ZM351.71-16.94L351.71-16.94Q350.70-16.94 349.31-16.32L349.31-16.32Q346.86-15.26 344.65-12.67L344.65-12.67Q341.15-8.54 341.15-6.62L341.15-6.62Q341.15-5.62 341.96-5.62L341.96-5.62Q342.64-5.62 344.20-6.48Q345.76-7.34 348.30-9.89L348.30-9.89Q348.44-10.03 349.40-10.94Q350.36-11.86 351.04-12.53L351.04-12.53Q353.29-14.88 353.29-15.91Q353.29-16.94 351.71-16.94ZM373.60-15.55L373.60-15.55Q374.27-16.32 374.27-16.75Q374.27-17.18 373.38-17.18Q372.49-17.18 370.57-15.50L370.57-15.50Q368.80-13.97 366.28-10.37Q363.76-6.77 362.63-5.50Q361.50-4.22 360.64-4.22L360.64-4.22Q360.54-4.22 360.44-4.22L360.44-4.22Q359.20-4.22 358.00-5.23L358.00-5.23Q358.28-5.66 359.39-7.10L359.39-7.10Q361.84-10.08 363.66-12.86L363.66-12.86Q361.60-10.80 360.16-9.65L360.16-9.65Q359.68-9.26 359.60-9.60Q359.53-9.94 359.82-10.20Q360.11-10.46 360.78-11.06Q361.45-11.66 361.67-11.86Q361.88-12.05 362.48-12.60Q363.08-13.15 363.37-13.49L363.37-13.49Q364.72-15.07 365.34-16.18L365.34-16.18Q365.58-16.75 365.56-17.30Q365.53-17.86 365.32-18.02Q365.10-18.19 365.15-18.43L365.15-18.43Q365.15-18.82 365.53-18.82L365.53-18.82Q365.72-18.82 365.96-18.72L365.96-18.72Q367.45-18.05 367.45-16.06Q367.45-14.06 366.59-11.81L366.59-11.81Q368.46-14.26 369.42-15.31L369.42-15.31Q371.92-18.10 374.32-18.10L374.32-18.10Q376.67-18.10 377.10-16.08L377.10-16.08Q377.15-15.79 377.15-15.19Q377.15-14.59 376.69-13.58Q376.24-12.58 374.56-10.27Q372.88-7.97 372.61-7.37Q372.35-6.77 372.44-6.48Q372.54-6.19 372.88-6.14L372.88-6.14Q373.45-6.05 374.84-6.91L374.84-6.91Q376.81-8.30 379.93-11.18L379.93-11.18Q380.46-11.71 380.46-11.09L380.46-11.09Q380.46-10.85 380.22-10.61L380.22-10.61Q375.56-6.29 373.31-5.23L373.31-5.23Q370.67-3.89 369.18-4.80L369.18-4.80Q368.27-5.38 368.27-6.41Q368.27-7.44 368.65-8.50L368.65-8.50Q369.52-10.94 373.60-15.55ZM393.56-7.01L393.56-7.01Q392.65-4.51 392.65-2.93Q392.65-1.34 393.32-0.53L393.32-0.53Q393.47-0.34 393.37-0.26Q393.28-0.19 393.23-0.19Q393.18-0.19 393.08-0.24L393.08-0.24Q391.55-1.49 391.55-3.96Q391.55-6.43 392.56-9.65L392.56-9.65Q390.59-7.10 388.67-5.47L388.67-5.47Q386.36-3.55 383.96-3.55L383.96-3.55Q382.43-3.55 381.08-4.58Q379.74-5.62 379.74-7.97L379.74-7.97Q379.69-9.12 380.17-10.61L380.17-10.61Q379.21-9.74 378.95-9.55Q378.68-9.36 378.59-9.55Q378.49-9.74 378.49-9.91Q378.49-10.08 378.80-10.34Q379.12-10.61 382.14-13.87L382.14-13.87Q383.92-15.84 386.36-16.94Q388.81-18.05 391.02-18.05L391.02-18.05Q393.04-18.05 393.97-17.35Q394.91-16.66 394.91-15.60L394.91-15.60Q396.64-19.25 398.63-22.54Q400.62-25.82 401.72-27.07L401.72-27.07Q402.92-28.42 404.75-28.42Q406.57-28.42 407.72-27.41L407.72-27.41Q406.72-26.78 403.79-23.28Q400.86-19.78 398.08-15.77Q395.29-11.76 393.56-7.01ZM393.95-16.08L393.95-16.08Q393.95-17.04 392.75-17.04L392.75-17.04Q392.12-17.04 391.12-16.66L391.12-16.66Q388.86-15.79 386.65-13.30L386.65-13.30Q383.92-10.18 383.92-7.34L383.92-7.34Q383.92-5.66 385.02-5.33L385.02-5.33Q385.26-5.23 385.50-5.23L385.50-5.23Q387.47-5.23 391.36-9.17L391.36-9.17Q392.41-10.18 393.13-11.33L393.13-11.33Q393.52-12.43 394.14-13.87L394.14-13.87Q393.71-13.58 393.44-13.80Q393.18-14.02 393.56-14.76Q393.95-15.50 393.95-16.08ZM408.25-19.44Q407.72-19.87 407.82-20.69Q407.92-21.50 408.68-22.42Q409.45-23.33 410.75-23.33L410.75-23.33Q411.13-23.33 411.56-22.97Q412.00-22.61 411.90-21.77Q411.80-20.93 411.13-20.18Q410.46-19.44 409.62-19.22Q408.78-19.01 408.25-19.44ZM407.63-16.90L407.63-16.90Q405.66-14.88 404.34-11.78Q403.02-8.69 403.02-7.44Q403.02-6.19 404.00-6.19Q404.99-6.19 407.27-7.63Q409.55-9.07 412.48-11.71L412.48-11.71Q413.10-12.29 413.10-11.57L413.10-11.57Q413.10-11.47 413.00-11.38L413.00-11.38Q410.70-9.36 409.12-8.06Q407.53-6.77 405.35-5.59Q403.16-4.42 401.77-4.42L401.77-4.42Q400.04-4.42 399.20-5.18Q398.36-5.95 398.36-6.86L398.36-6.86Q398.36-8.59 398.99-9.60Q399.61-10.61 401.10-12.38L401.10-12.38Q400.57-11.95 399.44-10.94Q398.32-9.94 397.88-9.60Q397.45-9.26 397.45-9.79L397.45-9.79Q397.45-10.13 398.22-10.75Q398.99-11.38 401.56-13.92Q404.12-16.46 405.06-16.94Q406.00-17.42 406.60-17.42Q407.20-17.42 407.48-17.26Q407.77-17.09 407.63-16.90Z"></path></g></g></svg>