<?xml version="1.0" encoding="UTF-8" standalone="no"?>
<svg id="svg2" xmlns:rdf="http://www.w3.org/1999/02/22-rdf-syntax-ns#" xmlns="http://www.w3.org/2000/svg" height="881pt" width="1037pt" version="1.1" xmlns:cc="http://creativecommons.org/ns#" xmlns:dc="http://purl.org/dc/elements/1.1/" viewBox="0 0 1037 881">
<g>
<path id="path4" d="m807.89 0h1.76c16.76 8.84 33.71 17.34 50.83 25.37 5.97 4.66-2.85 0.47-5.8-0.06 30.59 28.29 69.71 45.87 97.39 77.63 55.83 60.35 77.73 145.41 75.93 226.07-6.8-86.4-33.74-182.62-107.01-236.99 14.56 23.33 30.88 45.66 44.69 69.37-5.57-5.37-7.56-13.64-13.71-18.44 32.66 60.63 46.27 129.06 57.33 196.34 1.7-10.75 1.1-21.76 3-32.51 6.1 49.79 1.1 101.3 6.6 150.26 5.9-38.7 11-77.58 12.3-116.73 3.3 14.02 3.5 34.07 5.8 50.31v49.81c-4.8 66.98-20.4 133.96-51.93 193.58-11.28 21.59-46.74 18.43-55.1-4.06-5.91-11.12-0.71-23.32 2.71-34.31 32.41-107.6 39.43-223.17 17.15-333.47-14.95-67.99-41.16-136.02-89.6-187.38-6.56-8.15-16.55-11.94-26.27-14.76 19.65 15.26 36.83 33.67 50.79 54.26-25.99-27.02-53.12-60.21-92.33-66.63 2.39-8.3-9.35-8.01-11.48-14.81-10.44-14.33 6.54-35.05 22.62-28.42 3.12 2.25 3.27-2.45 4.33-4.43m-12.43 9.48c-11.14 1.14-15.78 16.92-6.74 23.94 15.82 7.72 31.01 17.12 48.26 21.53-9.98-10.09-23.17-17.08-37.4-18.58-8.54 2.12-0.87-6.54-5.68-8.29-5.81-3.34-1.75-13.14 4.66-11.64 4.06 1.82 2.43-6.65 6.95-4.06 16.89 8.52 33.72 17.11 51.49 23.67-16.34-16.06-38.74-25.13-61.54-26.57m84.37 55.69c9.99 14.51 23.05 26.33 37.07 36.95-8.97-15.24-19.52-30.96-37.07-36.95m26.31 33.7c72.74 113.3 88.13 254.76 76.19 386.22 1.34 14.38-7.11 30.94-5.68 43.59 26.05-72.41 14.82-151.12 7.25-225.91 9.87 33.95 14.43 70.25 17.9 105.49 2.5-9.39 2.8-19.34 3.6-29.01-10.19-89.01-30.91-178.64-75.52-257.13-4.88-10.25-14.73-16.92-23.74-23.25m103.26 350.88c-7.2 29.61-8 60.07-12.37 90.1 12.07-26.68 13.57-60.35 12.37-90.1m-29.98 108.62c-6.9 18.71-16.09 36.47-24.46 54.48 2.73 2.09 6.27 3.81 9.77 4 6.15-18.66 13.17-40.76 14.69-58.48m-25.46 56.75c-3.89 6.27 6.67 11 10.08 4.76-2.63-2.53-6.77-3.2-10.08-4.76z"/>
<path id="path6" d="m546.26 64.26c20.15-19.91 53.24-15.18 73.81 1.66 32.58 26.22 53.12 64.02 71.08 101.05 3.7-16.88 21.86-16.15 33.41-19.35 27.21 11.22 49.58 31.19 68.6 53.23 52.3 40.26 79.17 110.64 70.95 174.01-1.97-44.85-12.91-91.68-42.08-126.88 12.66 30.94 30.58 62.67 28.57 96.89 4.79-4.83 1.32 3.99 2.16 6.53 3.82 23.17 6.78 46.47 8.89 69.87 2.66-14.33 4.25-28.83 6.03-43.28 12.51 64.74 3.75 135.01-28.91 192.74-16.61 25.61-61.42 8.16-56.15-22.08 19.38-66.97 31.94-137.23 22.79-207.06-5.83-44.96-19.55-90.18-47.22-126.71-4.42-5.97-11.74-8.23-18.42-10.67 8.11 8.6 17.3 16.5 23.03 27.01-16.47-15.67-32.83-35.44-57.36-36.98 3.1-4.86-0.84-7.13-5.27-8.39 39.94 90.99 65.19 189.3 67.93 288.85-11.07-111.68-42.62-226.64-98.05-326.75-15.22-26.61-32.27-53.2-56.82-72.18-13.23-9.85-31.38-15.92-47.29-8.77-17.01 8.09-23.77 27.25-27.58 44.36-4.15 14.28-0.67 30.69-11.14 42.73 9.86 6.7 15.01-6.19 16.13-13.89 2.9-20.17 4.55-42.99 19.3-58.51 14.04-13.4 35.46-4.52 47.86 6.8 23.91 22.17 41.33 50.59 55.21 79.84-18.36-30.25-35.67-63.81-66.21-83.79-12.43-9.15-33.67-7.72-39.57 8.44-13.19 19.73-5.43 45.82-18.79 65 24.42 21.08 4.58 55.96 9.89 82.6 49.48 22.51 76.28 75.56 86.89 126.47-16.88-45.44-40.29-93.2-84.94-117.03-7.46-2.38-0.4 9.93 4.31 9.79 4.07 7.23 12.76 1.82 14.31 9.48 35.7 33.03 58.13 78.75 69.43 125.64 5.33 23.41 3.98 49.66-2.2 71.74-4.89-61.95-21.02-132.22-67.52-178.76-2.76 15.41 9.75 26.74 16.63 39.13 18.97 32.62 36.12 69.37 31.61 108.16-9.68-22.5-19.98-44.99-33.72-65.33 1.14 9.78 2.68 19.53 3.11 29.37-7.61-14.49-2.84-35.75-14.97-47.06 4.61 57.96 17.11 116.02 43.52 168.15 0.63-6.61 2.34-13.5 0.31-20.01-12.85-23.27-21.06-48.77-27.88-74.35 11.11 21.14 20.63 43.34 28.28 66.03 4.93-16.33 1.87-37.54 4.55-55.11 8.12 37.06-1.41 78.66 8.56 113.47-9.23 1 0.78 10.42 1.71 14.92 10.58-7.68 3.95-25.63 8.01-35.2-1.28 13.06 4.26 28.66-6.05 39.22 7.82 12.96 9.24 34.59 26.45 38.26 18.68 6.87 33.79 20.96 52.7 27.16 9.38-0.98 13.88-11.47 17.65-18.92 18.9-47.02 18.95-99.81 22.12-148.83 3.2 50.33 5.51 102.75-10.7 151.25-5.11 13.11-13.7 28-29.21 29.58-20.2-4.55-35.89-19.41-54.87-26.92-4.6-1.67-9.69-5.71-14.42-2.07-9.09 5.25-17.75-2.73-25.04-7.56 8.16 1.41 16.11 9.02 24.52 4.73-56.32-20.4-117.57-22.53-176.8-27.36-39.3-4.03-78.42 8.91-117.59 3.36-12.25 4.8-14.04 20.45-13.63 31.79 0.18 24.39 18.9 43.15 22.17 66.79 1.6 17.28 18.08 26.03 27.51 38.63 6.4 7.05-0.59 16.33 2.71 24.21 5.29 12.62 18.06 19.96 24.58 31.71 7.21 13.58-10.83 27.7-0.14 40.79 2.39 5.74 17.41 14.98 6.53 19.68-36.06 10.89-85.11 1.75-102.53-35.59-25.13-55.11-25.63-120.98-66.15-168.9 44.26 45.39 46.42 112.97 75.26 166.79 11.68 22.42 38.33 29.82 61.88 30.15-0.07-2.74-0.96-7.22-4.41-7.1-20.56 0.23-43.35-8.22-52.62-27.9-23.57-47.19-28.02-102.12-57.07-146.92-14.21-24.67-38.34-46.45-67.98-48.1-11.56-1.15-22.81 5.66-34.18 1.42-16.11-4.75-24.17-21.11-29.39-35.77-8.67-27.92-12.96-57.56-10.51-86.75 3.08-29.18 23.94-53.84 49.81-66.29 28.39-11.34 56.55-23.26 84.66-35.25 4.89-1.8 6.54-7.14 8.64-11.41-28.82 11.89-57.5 24.16-86.58 35.41-23.64 7.87-44.34 24.71-56.42 46.54-2.9 3.41 5.98 6.59 1.31 9.24-13.51 5.25-9.56 21.75-12.16 33.03 1.34 34.46 2.84 71.4 20.85 101.87 1.89 4.73 9.03 3.89 7.84 10.11 10.85 11.77 28.47 16.2 43.89 12.33 25.32-4.6 48.31 12.27 61.26 32.59 32.65 47.31 33.54 107.42 57.51 158.48 19.25 40.01 72.57 50.28 111.47 37.47 12.78-5.75 4.18-20.52-3.13-26.91-10.34-11.87 6.72-23.49 1.74-36.38-2.12-19-29.3-26.72-24.8-46.88 2.68-16.39-13-26.44-22.37-37.18-8.96-9.02-6.6-22.55-11.7-33.3-6.58-18.01-19.83-35.25-15.98-55.45-0.1-7.25 4.63-15.55 13-14.43 71.25-4.59 142.94-0.34 213.67 9.16 26.41 4.02 53.03 8.93 77.82 19.19 19.34 7.91 35.68 21.91 55.57 28.6 15.12 3.6 29.52-6.01 37.55-18.16 25.37-41.23 24.32-93.95 27.63-139.25 2.52 42.04 3.94 85.56-8.56 126.31-7.03 25.04-29.17 50.23-57.48 46.06-28.64-6.44-51.62-27.5-80.86-32.41-82.46-17.78-167.81-18.1-251.71-14.94 1.2 14.13 11.38 25.89 15.15 39.5 4.66 8.45 1.79 20.59 10.31 26.79 14.9 13.25 27.48 32.07 24.69 52.88 14.26 14.78 27.84 34.07 24.04 55.86-0.01 5.99-6.64 12.85-0.67 17.97 10.78 13.3 10.78 34.12-1.03 46.76-11.44 12.56-29.15 14.88-45.15 16.18h-14.22c-34.82-1.79-71.84-15.8-90.5-46.93-29.48-50.85-26.83-113.83-57.99-164-8.38-14.37-22.44-28.77-40.58-26.94-27.57 6.15-58.99-4.98-72.43-29.01-8.29 4.91 1.71 11.97 7.79 12.71-1.25 1.28-4.44 3.08-0.94 4.52 14.22 13.42 33.79 19.73 53.12 19.9-20.74 3.07-43.3-6.74-58.24-21.83-18.41 3.75-37.18 8.5-56.17 7.25-39.29-3.27-69.8-38.47-71.48-77.21v-13.03c2.74-35.39 20.87-73.37 55.95-86.47 10.65-6.52 29.97-6.09 31.09-21.84-11.13 6.06-22.19 12.38-34.06 16.93 12.38-14.43 36.91-12.84 43.4-32.59 8.16 4.23 15.42 15.05 26.23 8.66 14.86-15.63 31.64-31.54 52.66-38.84 30.65-12.14 61.2-24.53 91.5-37.51 47.87-24.59 91.24-57.07 132.01-91.99 43.46-38.36 87.99-77.31 120.03-126.1 4.29-25.31 7.82-53.7 27.45-72.42m162.36 92.13c-13.67 1.8-14 24.02-0.55 26.49 6.25-6.12-6.17-9.26-2.55-16.11 2.83-5.6 11.45-0.53 11.49-8.65 16.91 7.17 31.86 18.02 48.94 24.96-13.98-16.89-35.5-26.63-57.33-26.69m-185.93 5.95c-7.37 4.27-11.66 14.06-16.42 20.61 7.08-1.03 6.69-13.29 15.08-13.71 8.49 1.45 13.26-11.17 1.34-6.9m13.39 2.78c-3.82 2.46-3.61 6.92 0.49 9.29 7.8 5.56-3.73 21.79 8.57 21.56 1.84-10.88 1.93-24.67-9.06-30.85m-11.81 14.86c-3.94 7.79 9.93 0.98 0 0m185.51 2.18c8.78 8.73 22.34 13.45 34.2 17.86-8.04-11.06-21.09-16.14-34.2-17.86m-188.59 2.17c-3.02 3.21 0.18 14.14 2.89 5.67-3.47-0.66-2.05-5.56-2.89-5.67m6.27 0.59c-5.97 5.85 3.08 6.32 0 0m-32.98 10.69c-58.18 64.56-124.52 122.82-199.28 167.55-4.39 3.96-8.58 8.51-11.1 13.91 9.52-4.58 19.02-9.86 26.21-17.76 19.17-17.8 42.06-30.82 63.67-45.33 33.08-19.83 60.33-47.53 88.28-73.72 11.86-13.02 31.23-27.63 32.22-44.65m49.29 8.97c-9.65 7.29-5.82 20.36-7.72 30.59-3.78 7.13 2.96 4.11 5.77 3.48 1.07-11.32 2.48-22.68 1.95-34.07m235.18 3.46c9.88 18.38 23.83 33.66 35.15 50.88-5.08-5.19-8.82-11.83-15.17-15.87 32.84 70.89 37.25 151.69 28.04 228.28 13.93-39.16 10.73-81.61 5.91-122.24 6.18 10.76 5 27.72 10.18 38.87 0.36-8.53 3.2-16.89 2.46-25.46-7.46-43.26-19.47-86.25-40.08-124.91-4.22-13.28-14.27-23.27-26.49-29.55m-288.55 13.54c-18.72 17.65-38.38 34.93-56.36 53.49 19.2-13.24 37.57-27.83 54.36-44.04 1.89-1.83 3.45-8.25 2-9.45m32.37 7.27c-9.67 5.83-10.35 17.12-7.98 27.24 7.68-6.95 9.34-17.23 7.98-27.24m15.62 18.41c-4.53-0.02-3.09 9.05 1.12 6.25 4.46 0.02 3.6-8.77-1.12-6.25m-14.91 10.51c-6.71 22.61 7.03 48.63 11.65 70.04-4.65-23.19-9.23-46.48-11.65-70.04m-34.96 3.31c-48.99 40.57-106.97 68.43-157.34 107.1-19.79 16.13-36.47 38.23-40.1 64.05-1.33 39.75 7.86 82.31 35.1 112.59 15.85 17.08 40.15 23.1 62.65 19.12 72.73-6.27 148.4-0.62 216.98 22.67-5.19 4.41 8.25-3.06 2.12 2.58 4.16 1.38 8.17 3.19 12.33 4.61-73.98-95.2-122.35-212.19-131.74-332.72m51.89 5.08c-3.4 4.31 1.03 12.09 0.35 17.48 7.41-0.64 5.09-10.12-0.84-11.68 3.35-1.28 6.39-7.34 0.49-5.8m11.84 6.38c-0.41 5 5.13-0.82 0 0m-31.37 36.55c2.57 14.47 4.25 30.91 9.24 43.79-2.54-14.53-4.8-30.49-9.24-43.79m24.02 2.78c2.68 10.03 3.79 22.49 7.18 30.96-2.28-10.09 1.92-23.7-7.18-30.96m305.32 24.73c-2.58 4.31 3.74 1.87 0 0m-313 2c-2.58 4.31 3.74 1.87 0 0m1.7 8.29c12.28 76.56 32.6 153.76 76.6 218.57 2.45 1.86 5.41 2.94 8.42 3.48-17.44-34.3-37.72-67.78-50.54-104.35-11.56-39.17-24.72-78.35-34.48-117.7m-250.44 36.57c-4.07 1.89-8.62 3.11-12.16 5.89-12.84 22.47-16.04 49.5-11.38 74.76 5.6 42.96 23.19 89.63 62.24 112.75 1.4-0.58 9.6-3.17 5.77-5.78-41.12-23.15-58.2-72-62.58-116.5-3.75-24.7 6.02-52.59 18.11-71.12m-23.6 10.66c-26.49 11.94-53.22 23.32-79.87 34.88-32.82 15.39-49.87 53.47-42.53 88.49 4.71 28.73 4.4 69.31 34.96 83.2 32.56-7.55 68.81 3.4 89.47 30.4 39.18 45.91 45.45 108.02 68.13 161.87 6.66 19.41 27.72 31.29 47.61 29.62-0.64-9.73 1.68-19.15 4.03-28.32-14.32-14.07-29.38-31.7-25.86-53.42-11.3-11.98-24.45-24.22-27.4-41.3-2.37-22.21-17.87-40.14-20.78-62.21-3.89-19.28-0.2-40.13 11.19-56.28-36.15-21.58-54.77-62.94-63.23-102.65-6.37-27.79-7.07-57.68 4.28-84.28m586.17 12.07c-3.63 27.25-2.18 54.71-4.99 82.03 11.48-24.79 8.82-57.01 4.99-82.03m-748.87 21.72c-3.39 5.09-7.04 10.15-9.34 15.87 7.22-1.2 21.4-10.8 9.34-15.87m-10.83 39.41c-5.28 0.22-10.07 6.47-6.27 10.58 7.34 4.12 7.72-8.64 6.27-10.58m-24.97 11.17c-5.5 0.91-10.04 4.49-10.47 10.34 5.91-3.25 3.11 0.22 0.51 3.64 4.2 2.46 16.53-12.69 9.96-13.98m-24.87 19.05c-11.38 15.76-19.63 39.4-12.42 57.42-5.05-19.67 6.6-41.82 12.42-57.42m46.64 3.72c-4.1 2.71 3.39 2.69 0 0m742.21 3.03c-6.16 14.47-12.51 28.92-20.24 42.64 2.98 2.06 6.33 3.61 9.78 4.77 4.07-15.1 9.68-33.61 10.46-47.41m-743.14 1.31c-2.58 4.31 3.75 1.87 0 0m-7.28 19.62c0.63 5.54-0.26 13.82 3.18 17.73-1.28-5.85-1.04-13.42-3.18-17.73m3.92 22.9c0.81 9.15 5.53 5.54 0 0m7.1-0.46c2.07 4.35 1.74 12 5.23 15.07-1.03-5.13-0.97-11.46-5.23-15.07m507.95 0.39c7.44 15.73 15.07 31.4 23.57 46.6 8.11 2.62 16.37 4.77 24.47 7.44-7.55-9.64-13.3-20.96-21.26-29.97-15.2 0.74-18.12-15.84-26.78-24.07m209.99 1.05c-4.11 6.48 6.2 12.02 10.13 5.82-2.23-3.36-6.8-4.01-10.13-5.82m-721.72 7.49c-1.45 5.23 4.63 1.36 0 0m5.88 6.73c0 11.95 8.47 21.66 9.31 33.59 6.19 1.9 2.01-5.88 1.07-8.4-3.61-8.12-4.48-18.85-10.38-25.19m-27.14 4.76c2.91 8.07 9.28 15.24 16.99 19.01-5.77-6.23-11.12-12.91-16.99-19.01m-37.89 0.92c5.46 24.62 26.86 45.58 52.46 47.56 3.9 1.08 7.85-0.8 10.49-3.63-1.62-5.45-8.46-7.01-12.95-4.08-4.03-5.51-11.68-6.17-17.18-9.73 2.97 5.16 6.88 9.86 12.9 11.2-1.98 1.67-7.25-0.56-9.48-2.62-9.36-12.84-18.49-26-29.26-37.7 3.5 8.64 10.06 15.66 13.86 24.15-8.47-6.92-14.27-16.57-20.84-25.15m73.83 1.31c3.58 9.57 2.44 27.46 15.07 28.66-4.93-9.29-9.66-20.69-15.07-28.66m336.76 3.28c-2.7 1.12-8.76-1.53-9.55 1.42 51.89 0.36 103.71 5.26 155.14 12.1-46.65-13.87-97.03-15.67-145.59-13.52m-96.34 1.83c-2.69 1.47-7.25 2.12-8.05 5.47 6.92 5.16 24.36-6.17 8.05-5.47m-12.89 9.5c-16.93 21.24-13.25 51.85-2.46 75.16 15.14 26.24 13.67 61.14 42.78 78.27-5.64 18.35 7 35.4 19.54 47.39 16.59 7.99-12.04 33.4 7.26 37.24-1.46-10.45 2.26-20.31 5.45-29.97-5.41-13.41-21.29-20.1-25.61-34.4-6.02-8.31 3.17-19.76-5.29-26.68-11.48-9.92-23.07-21.93-25.52-37.53-2.16-21.26-17.68-38.09-21-59.08-2.58-15.94-1.46-33.85 8.79-47.03 1.91-2.64-2.12-3.2-3.94-3.37m-256.24 0.88c1.2 3.96 3.43 7.76 7.93 8.06-0.61-4.25-3.84-7.17-7.93-8.06m7.75 3.27c4.92 11.12 8.49 1.96 0 0m17.66 20.92c-7.18 5.44 9.86 5.35 1.49 6.12-12.71-0.25-3.35 6.11 3.74 5.16-1.58-6.03 11.95-0.27 12.27-6-2.13-7.4-11.78-4.32-17.5-5.28m18.9 1.13c-0.08 5 5.08-1.65 0 0m1.79 10.26c-6.08 2.79 8.18 2.49 0 0m276.09 209.57c-0.76 9.92 7.76-0.76 0 0z"/>
<path id="path8" d="m763.22 79.14c40.4 13.17 66.57 47.29 99.57 72.06 57.4 49.36 90.12 127.54 83.27 201.77-2.21-65.97-27.18-132.51-76.2-177.83 6.94 10.56 11.15 22.81 19.78 32.24 26.11 32.59 40.55 73.29 44.4 114.62-6.96-39.63-20.74-81.23-46.18-113.85 21.45 45.33 30.84 95.19 39.3 144.08 1.8-8.11 1.15-17.19 3.16-25.57 6.31 42.44 0.22 86.77 5.44 128.26 6.8-31.67 10.62-64.27 14.1-96.14 13.01 81.69-0.82 168.41-43.22 239.83-17.71 26.92-64.69 5.73-55.16-25.85 31.42-105.27 41.73-220.74 7.4-326.62-12.2-35.9-28.76-71.16-54.94-99.08-5.06-4.59-11.78-6.75-18.14-8.89 12.51 11.36 25.33 23.35 33.83 38.26-19.77-21.31-41.87-45.69-72.3-49.81 2.75-8.68-10.1-8.24-12.07-15.89-8.9-14.76 7.86-33.26 23.45-27.5 3.13 2.03 2.96-2.39 4.51-4.09m-12.69 9.32c-10.6 1.1-15.82 16.33-7.31 23.35 15.03 8.66 30.6 16.12 46.83 22.23-9.15-10.01-21.7-17.46-35.46-18.66-8.56 2.12-0.88-6.55-5.69-8.3-5.88-3.44-1.68-13.1 4.78-11.75 4.37 2.13 2.17-7.64 6.44-4.37 16.95 8.42 33.36 17.79 50.85 25.11-15.25-16.86-37.8-26.72-60.44-27.61m77.25 54.73c11.84 15.48 22.95 31.37 37.95 44.13-8.93-17.39-18.17-37.02-37.95-44.13m24.09 34.94c49.12 91.57 58.44 199.71 47.1 301.51 2.62 0.3 1.53-6.95 4.23-7.35-3.09 13.19-8.55 25.82-9.4 39.54 8.15-17.06 15.14-37.66 14.45-57.48 1.97-43.09 0.84-86.45-5.28-129.18 8.74 27.14 12.86 58.52 16.05 87.93 2.6-6.48 2.76-15.58 3.9-23.12-7.51-66.32-21.94-132.91-51.91-192.95-5.77-6.83-12.25-13.18-19.14-18.9m74.43 271.92c-6.92 23.76-7.71 48.47-11.48 72.79 11.7-21.17 12.69-49.68 11.48-72.79m-27.83 85.43c-5.75 13.88-14.03 26.62-20.17 40.24 5.07 0.34 9.76 7.5 10.64 0.26 3.46-12.78 9.34-29.28 9.53-40.5m-21.34 41.84c-4.24 4.91 6.03 11.75 9.84 5.54-0.75-3.75-6.78-4.61-9.84-5.54z"/>
<path id="path10" d="m630.22 102.53c5.1-0.08-0.23 5.08 0 0z"/>
<path id="path12" d="m632.91 106.08c25.42 29.27 42.17 65.38 58.67 100.34 30.63 70.15 52.42 144.44 61.51 220.53-19.81-111.8-54.08-226.39-120.18-320.87z"/>
<path id="path14" d="m943.86 122.1c43.58 46.04 64.84 109.67 71.24 171.85-10-60.79-30.29-123.78-71.24-171.85z"/>
<path id="path16" d="m909.1 165.84c18.11 33.25 29.6 70.08 36.88 107.2-12.12-35.13-22.73-72.22-36.88-107.2z"/>
<path id="path18" d="m481.5 168.51c1.54-0.56-3.08 5.37-3.42 5.54-54.37 62.31-117.87 117.16-188.14 160.89-25.16 16.26-53.59 26.2-80.84 38.19 21.3-12.82 45.91-20.38 66.95-34.09 75.74-47.36 141.47-108.75 205.45-170.53z"/>
<path id="path20" d="m667.23 171.46c4.49 0-1.16 4.55 0 0z"/>
<path id="path22" d="m839.87 222.15c14.22 24.63 22.16 53.48 27.28 81.64-9.9-25.92-17.45-54.83-27.28-81.64z"/>
<path id="path24" d="m802.23 235.46c4.49 0-1.16 4.55 0 0z"/>
<path id="path26" d="m776.86 267.17c11.64 19.08 17.65 42.4 21.3 64.7-8.83-20.44-13.72-43.37-21.3-64.7z"/>
<path id="path28" d="m1015.3 296.53c3.3 4.6-2.6 6.4 0 0z"/>
<path id="path30" d="m427.58 311.53c-24.44 21.31-58.48 41.98-87.51 61.54 26.73-23.39 57.38-42.64 87.51-61.54z"/>
<path id="path32" d="m206.27 373.03c4.71 1.73-5.61 2.84 0 0z"/>
<path id="path34" d="m304.49 408.43c-0.78 6.55-5.8 19.45-4.47 28.51 3.31 38.92 14.94 79.56 42.67 108.21-20.41-9.5-30.38-32.23-37.39-52.45-7.4-26.97-14.38-58.18-0.81-84.27z"/>
<path id="path36" d="m753.32 428.53c3.29 4.6-2.61 6.4 0 0z"/>
<path id="path38" d="m754.32 436.53c3.29 4.6-2.61 6.4 0 0z"/>
<path id="path40" d="m633.99 462.01c3.54 27.17 2.34 58.25 0.89 86.9-2.08-26.84-0.29-58.29-0.89-86.9z"/>
<path id="path42" d="m768 477.03c3.49 6.29-1.68 10.58 0 0z"/>
</g>
</svg>
