<?xml version="1.0" encoding="utf-8"?>

<!DOCTYPE svg PUBLIC "-//W3C//DTD SVG 1.1//EN" "http://www.w3.org/Graphics/SVG/1.1/DTD/svg11.dtd">
<svg version="1.1" id="Layer_1" xmlns="http://www.w3.org/2000/svg" xmlns:xlink="http://www.w3.org/1999/xlink" x="0px" y="0px"
	 viewBox="0 0 1204.319 1654.111" enable-background="new 0 0 1204.319 1654.111" xml:space="preserve">
<g>
	<path fill="none" stroke="#000000" stroke-width="4.8527" stroke-miterlimit="10" d="M1182.354,853.359
		c-246.273,337.26-852.508,392.799-1038.47,40.034C29.308,676.045,32.109,462.813,151.163,260.121
		C290.701,22.556,540.589-24.973,726.204,79.359c128.194,72.057,170.523,224.213,191.68,393.066
		C943.001,672.877,1024.649,810.067,1182.354,853.359z"/>
	<path fill="none" stroke="#000000" stroke-width="4.8527" stroke-miterlimit="10" d="M22.163,227.366l126.978,37.204
		c-2.672,38.107,17.34,68.009,59.849,89.774c-39.891,3.201-79.044,14.882-117.272,37.204L22.163,227.366z"/>
	<path fill="none" stroke="#000000" stroke-width="24.2633" stroke-linecap="round" stroke-miterlimit="10" d="M322.219,314.713
		c0,0,122.934-102.715,148.006,56.614"/>
	<path fill="none" stroke="#000000" stroke-width="4.8527" stroke-miterlimit="10" d="M1043.648,911.591
		c-274.738,67.954-481.1,31.127-517.617-171.461c-23.496-130.352,38.013-218.37,132.64-208.664
		c78.667,8.068,104.931,66.54,142.344,143.154C851.575,778.154,937.207,855.031,1043.648,911.591z"/>
	<path fill="none" stroke="#000000" stroke-width="4.8527" stroke-miterlimit="10" d="M430.569,1112.004
		c37.805,78.877,94.1,224.973,151.875,376.447l-248.352-0.559c-5.633-0.013-7.603,7.472-2.693,10.234h0
		c0.745,0.419,1.578,0.658,2.432,0.697l158.839,7.22l-79.393,34.856c-7.663,3.364-7.648,14.24,0.023,17.584h0
		c2.276,0.992,4.848,1.063,7.175,0.199l118.902-44.147h124.686c6.713,0,8.35-9.349,2.035-11.629l-11.47-4.142l-33.362-1.213
		c0,0-142.012-320.072-128.061-372.238C474.94,1123.529,452.314,1117.551,430.569,1112.004z"/>
	<path fill="none" stroke="#000000" stroke-width="4.8527" stroke-miterlimit="10" d="M623.132,1137.612l167.697,382.353
		c0.184,0.419,0.279,0.871,0.279,1.329v28.147c0,1.827-1.481,3.308-3.308,3.308H578.439c-0.161,0-0.321-0.012-0.48-0.035
		l-35.578-5.218c-3.232-0.474-5.155,3.538-2.72,5.715c6.895,6.167,18.284,14.096,31.259,14.096c16.828,0,96.919,2.668,129.411,3.774
		c3.476,0.118,4.409,4.831,1.258,6.303l-85.728,40.041c-2.017,0.942-2.548,3.544-1.078,5.215c3.087,3.509,10.766,7.335,29.534,1.079
		c27.625-9.208,103.85-39.713,111.583-42.813c0.423-0.17,0.871-0.247,1.327-0.233l152.439,4.745
		c1.843,0.057,3.472-1.399,3.417-3.242c-0.122-4.036-3.513-10.601-23.099-13.049c-29.116-3.639-52.166,3.64-75.216-50.953
		c-22.533-53.367-130.854-322.945-127.773-386.586c0.101-2.095-1.733-3.677-3.803-3.335c-18.688,3.086-37.701,4.67-57.039,4.763
		C623.772,1133.027,622.177,1135.434,623.132,1137.612z"/>
</g>
</svg>
