<?xml version="1.0" encoding="UTF-8" standalone="no"?>
<svg id="svg2" xmlns:rdf="http://www.w3.org/1999/02/22-rdf-syntax-ns#" xmlns="http://www.w3.org/2000/svg" height="839pt" width="1170pt" version="1.1" xmlns:cc="http://creativecommons.org/ns#" xmlns:dc="http://purl.org/dc/elements/1.1/" viewBox="0 0 1170 839">
<g>
<path id="path4" d="m1058.4 0h9.1c14.3 2.52 26.2 15.25 26.5 29.95 24.7 221.83 44.9 444.14 67.7 666.17 1 8.67-7.1 15.46-15.4 15.36-148.92 15.58-297.98 30.18-446.2 51.62-202.25 26.82-404.58 54.82-607.43 75.9h-1.81c-4.24-0.58-11.42-0.26-12.1-6.08-30.17-219.75-56.87-440.05-78.76-660.76v-9.87c22.14 163.57 41.62 327.61 66.02 490.84-19.86-159.48-43.82-318.96-50.68-479.65 4.73-1.3 13.04-7.17 15.28-2.42 341-44.86 682.25-88.35 1022.9-135.88-8.2-4.46-17.8-0.89-26.5-0.2-190.04 25.73-379.9 54.62-570.17 77.52 153.56-24.16 307.54-45.94 461.32-68.46-299.48 36.38-597.72 85.31-898.33 111.44 345.27-57.65 690.71-115.73 1038.6-155.48m-6.5 27.17c7.9 3.79 18.8 14.71 19.1 26.85-1.8-12.25 1.8-35.5-19.1-26.85m-116.23 14.03c1.68 3.92 4.14-2.66 0 0m-8.01 1.07c3 3.63 5.16-2.71 0 0m-8.05 1.05c4.39 3.39 6.24-2.68 0 0m143.69 6.34c-2.7 5.16 3.6 3 0 0m0.6 5.39c20.2 157.16 37.1 314.74 53.8 472.31-0.4 2.28 2.2 6.56-0.5 7.6-3.7-25.59-6.7-51.84-11.3-76.95 7.7 73.93 16 147.82 23.1 221.81 2.6 6.96-5.8 8.85-10.5 8.8-127.96 13.18-255.92 26.39-383.83 40.04-210.91 24.27-420.82 56.22-631.18 84.6-1.23 2.26 7.26 0.35 7.48 1.54 133.46-17.17 266.71-36.16 400.13-53.71 206.95-26.82 414.62-47.54 622.2-68.61 8.7 1.91 5.1-7.48 5.3-11.97-21.2-208.77-46.3-418.08-74.7-625.46m7.4 0.56c-2.7 6.24 3.4 4.39 0 0m0.9 9.06c-2.7 4.15 3.9 1.69 0 0m-38.7 0.98c-192.58 26-385.97 45.4-578.55 71.3-137.44 17.9-275.3 32.27-413.22 45.89-2.27-0.44-6.82 2.27-7.65-0.62 59.49-7.54 120.26-14.83 178.86-23.3-64.26 6.62-128.68 11.66-193.17 15.45-3.09 3.6-1.14 8.4-0.81 12.62 27.97 207.32 51.51 415.67 85.23 621.93 81.43-12.36 163.91-23.55 244.83-35.99-79.34 9.61-158.54 20.62-237.77 31-28.19-197.58-56.03-396.81-72.47-594.92 31.08 188.96 64.78 377.51 93.38 566.86 320.25-49.23 643.57-73.38 965.74-105.9 2.7-1.39 11.8 1.22 8-5.88-19.4-199.89-41.6-399.55-68-598.61l-4.4 0.17m-817.84 92.62c3 3.63 5.16-2.71 0 0m-190.99 12.93c1.69 3.92 4.15-2.66 0 0m1080.6 280.46c-2.7 5.16 3.6 3 0 0m-1039 202.95c-2.68 6.24 3.39 4.39 0 0m1 7c-2.68 6.24 3.39 4.39 0 0m1 7c-2.68 6.24 3.39 4.39 0 0m0.95 8.05c-2.71 5.16 3.63 3 0 0m1 7c-2.71 5.16 3.63 3 0 0m0.93 8.01c-2.66 4.15 3.92 1.68 0 0m295.47 78.53c1.69 3.92 4.15-2.66 0 0m-8.01 1.07c3 3.63 5.16-2.71 0 0m-8.05 1.05c4.39 3.38 6.24-2.69 0 0m-260.92 46.81c1.68 9.31 9.23 4.9 0 0z"/>
<path id="path6" d="m1025.6 68.54c1.1 1.38 7.1-2.74 6.7 1.18 11 82.71 21.2 165.55 31.7 248.34-13.7-80.27-25-162.68-37.2-243.86-62.23 8.2-124.54 16.35-187.02 22.78 60.67-13.11 123.95-19.17 185.82-28.44z"/>
<path id="path8" d="m450.66 113.27c5.16-2.71 3 3.63 0 0z"/>
<path id="path10" d="m444.67 114.2c4.15-2.66 1.69 3.92 0 0z"/>
<path id="path12" d="m922.58 134.5c13.25-4.26 31.45-1.21 25.24 17-2.57-1.62 1.2-17.02-8.76-13.36-40.16 5.97-80.74 12.19-118.79 26.96 14.16 39.8 13.38 82.24 12.89 123.83 42.34 1.31 84.92 2 127.01-3.59 4.85-0.2 6.89-5.77 5.24-9.92-5.31-41.1-19.84-83.97-14.78-124.06 18.7 38.91 30.9 81.94 39.81 124.44 3.8 16.16-8.44 33.48-25.16 34.59-45.86 3.7-92.03 3.39-137.96 1.55-18.02-3.33-10.89-25.31-13.21-38.11 1.23-40.82-8.03-81.54-10.15-121.68 38.24-10.46 78.9-14.57 118.62-17.65z"/>
<path id="path14" d="m794.55 147.68c2.66 29.81 9.98 59.17 12.5 89.09-7.6-20.57-12.04-45.73-15.3-68.67-0.33-6.59-2.96-15.29 2.8-20.42z"/>
<path id="path16" d="m914.58 149.41c2.65-0.75 17.5-0.75 5.74 0.95-18.45 2.64-36.8 6.01-55.17 9.11-8.97 2.01-3.2 0.01-1.32-0.8 16.58-4.63 33.61-7.59 50.75-9.26z"/>
<path id="path18" d="m928.49 152.47c1.33-0.12 3.98-0.35 5.31-0.46 7.23 40.91 12.46 82.26 21.19 122.93-32.13 8.45-65.78 9.77-98.88 9.11 26.33-8.42 56.03-13.86 83.86-20.3-4.52-35.03-17.62-69.7-10.95-105.42-6.81-2.84-13.52-5.7-0.53-5.86z"/>
<path id="path20" d="m5.48 160.3c10.31-0.64-10.22 3.76 0 0z"/>
<path id="path22" d="m873.39 162.32c2.91-1.4 4.37 2.06-1.39 1.69-12 3.85-23.78 8.37-35.67 12.5 4.99 29.19 15.77 57.53 17.02 87.46 24.51 1.51 47.78-7.95 71.79-11.06 2.64-11.9-3.21-28.29 0.83-40.14 3.09 15.26 5.17 30.78 8 46.11-29.81 5.55-59.34 14.3-89.79 16.16-2.58-34.43-5.57-69.12-14.18-102.74 14.23-4.26 28.89-6.82 43.39-9.98z"/>
<path id="path24" d="m16.2 215.67c3.92 1.69-2.66 4.15 0 0z"/>
<path id="path26" d="m805.2 270.31c4.06 13.58-0.93 38.84 17.55 47.9-22.2-4.45-17.82-31.53-17.55-47.9z"/>
<path id="path28" d="m618.59 349.61c28.08-1.4 56.24-0.22 84.35-0.65 11.4 0.01 19.77 11.78 18.41 22.68 4.05 10.56 1.14 28.63-13.54 27.33-72.74-0.96-142.93 22.13-215.57 23.23-43.72 5.62-87.33 14.11-131.51 14.64-9.91-3.54-4.08-17.39-6.61-25.47-1.59-8.55 24.25-5.37 11.48-4.01-13.73-1.54-7.85 16.59-4.76 24.13 14.92 0.08 30.27-4.16 45.37-5.75-12.8-1.43-25.97-1.36-38.84-2.95-2.14-3.67 7.05 2.21 4.28-3.99 104.18-9.93 206.17-40.07 311.3-39.86-15.72 1.53 25.83 8.83 17.79-5.86-15.54-4.98-2.33 7.46-11.93 0.67-82.89-4.44-163.68 20.03-245.07 32.19 27.75-7.77 56.06-14.58 84.36-20.61 2.15-0.53 7.55-3.21-1.38-0.95-51.72 7.01-103.9 22.16-155.89 17.89 79.34-29.67 162.55-51.87 247.76-52.66z"/>
<path id="path30" d="m726.88 364.16c2.94 12.49 7.96 33.06-7.21 41.51-13.67 5.7-29.25 2.58-43.65 3.35 14.53-4.74 34.48 0.72 47.97-10.09 8.08-10.31 3.16-23.13 2.89-34.77z"/>
<path id="path32" d="m632.5 408.38c1.14-0.33 5.24-0.87 2.36 0.59-35.29 8.26-72.03 18.33-108.02 17.28 34.34-10.19 70.38-12.46 105.66-17.87z"/>
<path id="path34" d="m583.43 445.43c61.59-11.42 124.62-11.38 186.97-9.95 17.61 4.37 14.6 25.29 15.55 38.99-1.94 12.1-15.49 10.42-24.51 10.93-60.8-0.63-119.47 18.17-180.01 21.01-51.71 2.23-102.65 16.67-154.39 15.79-8.91-6.47-11.84-37.64 7.05-29.72-15.34-1.99-9.1 15.27-7.48 24.2 15.96 0.29 31.75-3.18 47.41-5.94-11.1-2.06-24.9 0.69-36.83-2.69-3.01-1.35 2.93-0.16 1.39-3.19 64.51-8.85 128.88-18.94 193.02-30.26 38.01-7.09 76.74-9.55 115.36-9.77-13.82 3.81 11.95 2.21 16.44 1.89 4.69-7.74-1.92-9.53-9.23-6.9-83.09-4.53-163.7 19.18-244.96 32.24 26.79-9.26 57.83-14.11 86.13-22.01-53 6.15-106.17 22.33-159.35 18.33 48.08-17.64 96.96-33.68 147.44-42.95m13.24 23.77c1.69 3.92 4.15-2.66 0 0z"/>
<path id="path36" d="m790.2 448.67c3.92 1.69-2.66 4.15 0 0z"/>
<path id="path38" d="m790.86 453.91c3.87 12.37 5.71 31.66-8.94 38.23-13.72 4.31-28.71 2.44-42.92 2.92 13.4-3.42 30.14-1.52 43.93-6.95 12.22-7.09 8.73-22.63 7.93-34.2z"/>
<path id="path40" d="m754.17 459.82c4.66-0.39 0.29 4.6 0 0z"/>
<path id="path42" d="m1075.9 461.1c9.5 66.47 16.7 135.28 24 202.75-17.5 2.17-35.2 4.04-52.8 5.24 15.4-3.48 33.5-4.18 49.8-7.28-8.2-66.74-15.5-133.67-21-200.71z"/>
<path id="path44" d="m695.76 494.55c11.11-2.25-0.65 1.77-1.83 1.66-32.45 8.19-65.43 14.92-98.9 16.93-1.57 0.38-4.99-1.07-1.7-1.64 33.41-9.31 68.19-12.08 102.43-16.95z"/>
<path id="path46" d="m769.45 520.48c23.45-0.65 47.16-1.48 70.47 1.4 14.43 6.23 11.81 23.95 12.92 36.85-1.1 11.05-13.63 13.59-22.84 12.24-58.72-1.22-115.32 16.82-173.65 20.37-54.51 2.04-107.81 16.57-162.48 16.78-8.42-8.51-11.85-38.44 9.92-31.28-3.3 3.03-10.65 0.2-13.44 4.63 0.42 7.11 1.67 14.2 3.24 21.15 15.67 0.33 31.03-4.14 46.56-5.83-12.64-1.62-26.72-0.36-39.5-3.43 58.2-13.2 118.44-17.91 177.15-29.56 45.42-9.28 91.67-13.19 137.98-13.93 0.17 2.76-7.66 0.53-7.53 3.28 7.43-0.56 14.86-0.92 22.32-1.3 1.99-4.82 2.33-9.79-4.9-8.03-10.04-4.5 1.75 7.19-5.66 1.99-82.09-5.53-161.81 19.15-242.28 31.2 28.57-9.35 58.62-14.23 87.63-21.94-53.95 6.67-108.49 22.08-162.42 19.28 84.71-33.51 175.02-54.78 266.51-53.87z"/>
<path id="path48" d="m856.92 533.99c2.2 13.12 8.84 31.39-4.6 41.29-13.56 9.07-31.83 3.47-47.09 5.72 13.86-5.44 36.37 1.02 49.39-11.37 7.83-10.24 2.44-23.94 2.3-35.64z"/>
<path id="path50" d="m1118.3 536.61c3.4 4.39-2.7 6.24 0 0z"/>
<path id="path52" d="m759.7 580.53c3.26-1.73 7.49-0.45 3.27 0.7-34.04 8.75-68.67 15.61-103.81 17.81-0.91-2.57 2.39-2.33 3.97-3.02 31.69-7.89 64.26-11.18 96.57-15.49z"/>
<path id="path54" d="m1163.3 649.66c3.6 3-2.7 5.16 0 0z"/>
<path id="path56" d="m1152.8 716.09c26.9-7.87 8.1-43.58 11.9-59.33 2 12.45 3 25.06 5.3 37.48v5.39c-1 12.63-13.1 21.03-25.2 21.28-70 8.58-140.6 16.74-210.83 21.57 72.83-9.73 146.03-17.26 218.83-26.39z"/>
<path id="path58" d="m1040.6 669.32c6.2-2.69 4.4 3.38 0 0z"/>
<path id="path60" d="m926.61 743.32c6.24-2.69 4.39 3.38 0 0z"/>
<path id="path62" d="m762.66 758.27c5.16-2.71 3 3.63 0 0z"/>
<path id="path64" d="m754.65 759.54c3.77-0.99 5.71-0.97 5.81 0.07-147.85 22.55-295.88 44.26-444.47 61.38-13.93 0.75-28.71 4.97-42.17 3.28 159.76-25.25 320.44-44.03 480.83-64.73z"/>
</g>
</svg>
