<?xml version="1.0" encoding="UTF-8" standalone="no"?>
<svg id="svg2" xmlns:rdf="http://www.w3.org/1999/02/22-rdf-syntax-ns#" xmlns="http://www.w3.org/2000/svg" height="764pt" width="1156pt" version="1.1" xmlns:cc="http://creativecommons.org/ns#" xmlns:dc="http://purl.org/dc/elements/1.1/" viewBox="0 0 1156 764">
<g>
<path id="path4" d="m49.59 0h11.74c110.33 60.11 218.04 125.36 327.7 186.62 10.51-9.54 15.37-29.51 32.05-32.65 87.64-20.65 175.48-40.45 263.47-59.55 10.85-2.98 23.52-2.18 31.74 6.35 42.44 45.19 84.49 90.77 127.08 135.84 5.23 5.33 8.25 12.31 10.78 19.23 25.21 66.17 51.42 131.95 77.3 197.86 7.39 14.66-0.8 31.37-14.45 38.28 3.53 4.74 7.31 9.37 11.72 13.33 33.54 19.22 67.99 36.98 101.18 56.74 38.9 34.66 76.2 71.17 114.6 106.39 6.1 4.69 9.4 11.87 11.5 19.07v10c-3.7 16.53-20.9 29.26-38 23.77-47.5-15.42-94.8-31.32-142.02-47.25-22.28-11.06-42.7-25.69-65.07-36.57-16.51 13.02-35.19 22.96-55.31 29.05-11.85 26.59-28.16 53.24-54.44 67.64-27.94 15.95-63.07 13.18-91.2-0.82-30.33 16.38-69.09 17.84-99.06-0.2-5.01-2.07-9.33-8.3-15.22-6.51-40.72 12.57-81.69 25.51-123.82 32.25-36.27-4.76-71.33-17.16-105.61-29.3-30.28 11.32-60.54 22.94-90.79 34.43h-6.99c-5.93-3.37-9.61-9.45-11.57-15.82 4.81 5.42 8.17 16.81 17.36 14.23 30.88-13.36 61.41-27.73 92.12-41.44-1.87-3.72 4.01-3.52 2.24-0.04 33.73 12.46 69.31 21.73 104.89 26.45 42.99-9.9 85.51-22.06 127.29-36.22-4.77-5.54 7.62-2.88 1.34 0.26 30.75 26.85 79.43 28.92 111.64 3.53-6.73-3.72 8.9-6.5 1.47 0.26 22.07 10.42 49.06 15.24 71.66 3.68 26.63-12.86 41.35-40.69 51.31-67.23-2.58-2.84 3.49-9.5 2.22-3.85 25.93-5.38 52.13-21.51 64.75-40.93-8.29-1.99 6.91-7.93 2.69-2.02-3.95 9.12 15.64-0.65 10.48 7.45 2.89 1.37 12.44-0.11 8.85 6.56 26.15 13.26 49.88 32.06 78.79 39.12 38.6 12.4 77.2 24.92 115.8 37.28 3.8 3.66 11.1-2.16 6.6-5.6-37.1-35-74.7-69.45-112-104.05-35.17-21.51-72.11-40.21-107.24-61.77-7.07-5.64-12.44-25.81-23.27-17.95 9.72 7.99 13.97 20.84 25.26 26.97 28.5 16.49 56.83 33.28 85.49 49.5 19.56 9.85 32.56 28.09 49.06 41.97 17.7 17.94 37.1 34.21 54.1 52.76-39.3-13.73-80.1-24.43-118.51-40.41-24.24-13.84-48.56-27.53-72.84-41.29-3.86-2.36-9.11-1.14-10.42 3.6-13.78 22.18-39.32 33.24-63.75 39.06-3.52 0.4-4.24 4.24-5.36 6.95-7.34 21.15-17.69 42.17-34.87 57.05-19.33 16.2-47.88 16.51-69.85 5.7-4.62-1.48-10.29-7.12-14.8-2.43-25.93 21.41-66.06 23.91-93.34 3.64-4.83-2.25-8.38-8.37-13.9-8.79-42.85 13.82-86.14 26.67-130.33 35.53-35.83-5.9-70.81-17.13-104.83-29.51-26.04 9.35-51.3 21.38-77.03 31.76 24.76-13.58 50.52-26.07 76.21-37.76 34.4 10.17 69.64 19.55 105.49 23.37 42.32-10.89 83.83-25.04 124.8-40.27 17.6-6.29 28.28 14.76 44.34 17.88-4.48-5.4-17.07-20.06-3.06-21.67-6.52 4.32-1.97 10.89 4.44 12.22 0.42-5.63 4.81-15.03-4-14.95 1.04-7.88 5.04-15 6.8-22.72-59.53 21.34-118.05 48.52-180.45 59.53-34.36-11.54-67.92-26.71-101.97-38.07-25.01 12.47-49.67 25.79-74.53 38.62-3.75 1.76-9.51 3.88-9.8-2.4-3.37-9.57 1.7 6.28 6.22 2.78 25.76-14.86 51.34-30.04 76.95-45.14 3.41-2.54 7.23 0.43 10.58 1.57 30.26 12.14 61.46 21.74 92.13 32.79 4.88 1.87 9.82-1.07 14.55-2.03 85.62-25.48 165.96-65.26 247.92-100.09 40.48 3.31 84.5 10.84 122.38-8.57 20.41-9.35 20.22-43.89-1.94-51.1-38.04-14.52-80.12-6.66-118.69 1.7-59.31-23.15-121.23-39.42-184.25-48.21-0.83-38.25-2.5-76.5-5.17-114.66-46.87-30.49-94.97-59.22-143.05-87.8-3.23-2.89-8.17-2.15-10.25 1.65-16.76 27.61-33.92 55.06-47.6 84.38-25.84 49.7-58.33 99.15-107.81 127.96 1.46 64.99 16.16 129.29 38.72 190.11-22.25-37.81-36.41-80.43-48.2-122.13 6.63 60.05 23.92 118.96 51.83 172.55-46.87-77.83-62.09-170.31-64.36-259.95 19.36-9.83 39.34-19.92 54.53-35.82 23.79-28.37 40.82-61.64 57.57-94.44 11.01-26.59 28.95-49.56 40.27-75.98-109.92-61.25-220.35-121.59-330.54-182.35-4.27-2.64-9.55-4.2-12.72-8.31-13.17-30.49 4.49-68.65 36.23-78.11 6.41-1.15 11.5 3.52 16.77 6.2 108.75 61.41 215.84 125.76 322.87 190.04 12.64-9.6 17.8-30.6 33.11-37.77 86.97-18.81 174.2-36.45 261.29-54.67 4.49-0.4 10.54-3.23 14.09 0.97 42.05 46.6 85.27 92.24 126.77 139.28 26.42 69.26 50.08 139.69 77.21 208.68-4.5 3.01-10.36 3.36-14.8 6.61 7.05 7.35 24.96-2 18.35-11.99-27.14-69.7-49.96-141.22-79.19-210.01 2.89 1.99 4.48 5.18 5.84 8.33 26.56 64.81 52.8 129.76 79.31 194.59 6.82 10.9 3.32 24.02-9.34 28.26 9.15 11.79 25-10.74 19.05-20.65-25.93-67.5-53.34-134.5-79.28-202.03-5.34-16.09-20.03-25.93-30.61-38.36-34.25-36.06-68.5-72.11-102.56-108.34-5.41-6.28-13.92-10.39-22.28-7.65-88.51 19.45-176.99 39.06-265.5 58.56-17.02 4.49-21.7 26.03-33.35 36.01-105.86-63.04-212.07-125.52-318.95-186.83-5.7-3.11-11.56-7.47-18.44-6.12-38.74 7.88-60.28 56.79-41.74 91.22 110.1 63.83 221.94 124.95 331.68 189.4-11.47 22.38-21.93 45.96-35.63 67.05 10.25-22.57 23.81-43.84 32.58-66.95-108.71-59.23-216.8-119.65-324.74-180.29-13.09-5.98-14-21.13-16.05-33.54v-10.18c1.99-28.66 23.28-52.64 49.59-62.36m4.72 32.36c-18.01 7.82-27.83 30.05-21.07 48.21 111.73 63.9 223.24 128.29 334.91 192.26 10.37-6.56 23.93-11.35 36.13-5.19 49.47 29.56 98.34 60.13 146.9 91.13 11.72 7.82 12.68 22.52 12.04 35.17 3.19 2.77 5.56 5.57-0.07 2.88 2.39 21.31 0.57 43.08 6.19 63.97 12.73 5.77 2.12-11.7 2.89-4 5.37 7.7-7.81-3.57 1.74-3.54-3.79-2-4.38-4.61-1.16-7.57-1.15-9.93-3.86-22.07-1.91-30.6 3.17 8.79 3.16 21.43 4.31 31.78 8.83-0.16 18.63 1.25 26.91-0.43-9.42-8.31-20.89-15.51-26.02-27.48 28.01 12.67 53.83 35.62 86.15 32.4-31.08-19.4-70.53-30.56-94.93-57.03 58.05-9.05 107.1 33.83 148.69 68.66 5.77 7.71 25.21 3.99 19.21 16.55 9.53 6.53 17.19 18.5 9.77 29.65 11.99-2.32 25.67-5.51 36.88-3.38-17.13 1.31-34.47 4-50.18 11.22-4.32 2.31-13.3-7.68-13.56 0.73 5.6 2.56 11.66 5.51 17.98 3.45 36.61-8.68 76.09-11.6 112.5-0.81 23.74 6.28 40.97 31.15 34.86 55.63 2.27-2.05 8.03-3.06 6.76-7.21 1.4-20.51-11.96-38.93-28.38-49.69-10.79-6.78-25.47-5.59-34.04-15.96-7.74-9.59-7.69-23.96-0.11-33.59-7.67-3.66-17-5.03-23.13-11.3 10.33 4.51 23.76 14.1 33.63 3.26-26.32-3.46-46.47-23.18-60.23-44.6-4.57 5.66 8.36 15.01 6.96 22.49 2.07 17.83-23.05 29-34.26 14.74 6.3 2.64 12.92 6.98 20 3.81 15.06-3.96 15.71-25.6 4.38-34.13-11.45 4.37 4.42 13.26-0.87 20.85-2.89 8.84-13.63 6.39-19.16 1.61-4.15 4.69-10.17 6.72-13.94 11.55-6.82-5.47-9.25-15.26-15.63-21.42-15.69-6.28-33.52-11.5-45.17-23.6 15.98 2.38 29.4 12.42 43.81 19.03-1.67-3.99-2.8-8.96-6.98-11.02-41.25-23.41-86.56-40.08-123.92-69.95-3.82-2.93-11.1-6.66-7.09-12.58 21.22-9.91 28.52-36.59 44.96-52.28 18.07-11.02 32.94 8.8 48.92 14.01-11.03-9.64-22.68-18.67-33.98-27.99-26.78 20.74-53.31 42.04-81.88 60.36-4.1 1.78-8.49-0.44-12.06-2.38-44.26-26.88-88.16-54.53-129.74-85.43-3.4-3.73 2.41-8.14 4.72-10.62-0.83 3.58-6.9 7.89-1.69 10.65 44.85 26.45 89.32 53.87 135.42 78.03 26.33-19.72 52.25-40.05 76.2-62.64 3.4-2.81 7.85-8.4 12.58-4.7 28.34 21.34 57.29 41.96 87.47 60.67 9.74 6.7 22.78 11.39 25.99 23.99 15.14 34.66 28.93 74.43 62.05 96.04 6.57 2.94-0.06-8.51-0.93-10.98-29.56-24.2-43.25-61.03-58.15-94.97-2.57-6.57-9.51-9.34-14.87-13.18-33.4-20.94-65.64-43.77-95.9-69.06-6.78-5.08-16.84-2.91-22.34 3.13-24.39 21.25-50.6 40.28-76.58 59.44 7.62 2.36 14.96-7.01 21.9-10.23-2.55 5.22-10.07 5.88-12.18 11.51-6.91-0.11 1.48 8.34-8.18 5.16-2.54-0.03-0.1-3.91-2.54-4.34-34.03-18.75-67.09-39.23-100.15-59.62-1.02-0.91-1.93-2.44 0.07-1.18 33.28 19.09 66.36 38.89 99.61 57.91 26.46-20.23 52.02-41.65 76.84-63.86 7.83-7.99 21.52-7.29 29.39 0.29 33.11 27.7 69.52 50.91 105.82 74.09 17 28.37 26.29 62.75 51.24 85.81-12.95-38.96-27.63-77.47-43.95-115.09-33.22-31.58-65.13-64.62-96.8-97.73-38.25 6.08-76.16 14.71-114.56 19.99 38.37-9.68 77.53-19.24 116.53-26.96 33.86 33.32 67.27 67.15 101.39 100.2 19.67 42.57 35.49 86.94 52.01 130.83 2.73 3.94 15.82 5.78 12.52-1.37-13.54-43.49-26.68-87.11-40.58-130.49-1.95-5.39-3.17-11.39-7.66-15.36-34.13-38.5-68.28-77.05-104.8-113.3-2.63-3.88-7.21-2.23-10.95-1.58-77.19 17.91-153.31 41.16-231.96 52.13-11.61-1.08-12.58 12.49-20.1 18 2.95-7.03 6.17-14.13 11.08-20.04 37.72-15.39 77.88-26.17 115.58-40.36-40.49 8.31-81.01 16.6-121.37 25.47-12.08 12.92-20.27 29.32-31.87 42.75-2.5 1.51-5.85 1.22-8.46 0.24-113.02-67.22-225.83-136.28-339.85-200.91m587.94 270.84c-11.97 11.65-26.23 20.78-42.24 25.82 1.63 4.35 6.09 6.72 8.15 10.81-4.36-1.85-12.6-9.01-9.47 1.89-4.25 9.88 11.5 2.18 3.39-0.67 9.13 2.94 17.82-7.77 24.75-12.9-5.61-7.3 8.1-1.71 2.32-8.24 6.37 3.91 18.14-3.37 8.88-8.36 4.48-2.48 12.52 0.01 5.7 4.56 6.82 7.16 12.44 4.08 15.23 12.3 17.56 13.76 38 23.09 57.07 34.5 11.71 4.8 3.5 26.08 17.03 27.89-1.47-9.64-4.83-18.91-7.09-28.36-27.12-20.64-56.32-39.68-83.72-59.24m-13.75 21.95c-0.16 4.49 4.52-1.71 0 0m11.43 10.79c20.58 17.23 43.53 31.87 67.89 43.13-1.16-2.22-2.65-4.51-2.25-7.14-17.41-10.19-37.19-20.02-53.52-32.97-3.15-1.76-9.42-9.48-12.12-3.02m-44.48-0.75c-10.53 2.18-8.43 11.05 0.7 12.47-0.13-4.07 1.12-9.1-0.7-12.47m39.99 3.24c-5.05 4.37-12.88 6.16-17.33 10.44 12.92 7.7 27.62 12.46 39.92 21.1-18.09-3.47-34.06-23.21-52.24-17.18 31.29 17.43 65.19 29.31 99.19 40.13-11.14-20.41-41.19-21.4-59.06-34.95 7.24 1.7 13.97 5 21.1 7.06-11-8.14-21.46-18.58-31.58-26.6m115.42 27.77c1.87 14.53 5.45 30.41 16.04 40.9-4.26-11.86 1.65 1.26 6.93 4.05-8.46-14.37-15.54-30.86-22.97-44.95m-45.29 5.73c1.17 3.58 5.94 5.18 6.25 8.9-7.73-1.31 5.73 4.86 6.09 3.24-2.07-5.83-5.5-11.77-12.34-12.14m7.35 17.22c1.91 8.1 12.34 15.78 19.16 15.69-5.82-6.19-9.53-14.72-19.16-15.69m19.16 15.69c1.65 2.8 4.98 3.91 7.77 5.26 0.24-8.33-13.91-18.62-7.77-5.26m25.9-5.72c1.53 7.54 8.55 6.54 0 0m7.18 18.75c1.69 2.59 2.56 10.87 6.19 6.48 4.04-3.1-3.82-5.26-6.19-6.48m73.37 13.06c-2.17 5.9 6.12 15.97 8.57 5.3 5.28-6.88-3.54-6.1-8.57-5.3m-100.78 3.34c3.1 5.42 5.63 11.59 10.2 15.89 12.61-6.37-5.44-12.02-10.2-15.89m-161.4 15.78c-2.28 3.14 5.12 11.99 4.66 5.24 2.41-3.41 0.02 7.2 4.08 5.79 12.6-1.21 25.68-0.5 38.02-1.62-13.47-10.29-30.78-9.02-46.76-9.41m0.45 7.33c0.57 7.59 7.19 0.84 0 0m73.36-0.46c17.87 9.44 37.25 19.55 56.65 27.27-14.97-15.83-34.95-25.09-56.65-27.27m-84.26 15.28l0.29 4.4c31.64 7.61 64.2 9.78 95.8 17.52-5.1-4.32-24.59-7.52-5.64-4.23-26.47-15.43-60.62-13.12-90.45-17.69m312.54 4.15c-10.9 1.29 1.09 8.34 6.02 4.17 6.31-1.45-3.14-5.12-6.02-4.17m-31.19 7.78c-5.23 6.39 6.56 2.14 0 0m4.09 0.37c-4.45 4.59 2.85 4.24 0 0m1.51-0.24c-0.99 11.53 20.25-2.1 0 0m43.31 1.13c-11.53 0.88 2.5 11.47 5.99 3.71-1.73-1.48-3.42-4.22-5.99-3.71m-19.97 7.99c-12.65 1.26 2.65 10.15 7.88 3.74-2.34-1.65-4.93-3.88-7.88-3.74m-225.47 1.7c6.05 3.55 20.29 6.2 29.2 9.03-8.28-6.3-18.38-11.43-29.2-9.03m256.63 1.29c-1.48 0.55-5.77 1.52-3.13 3.45 6.88 5.21 9.48 14.82 17.8 18.18 33.29 18.34 66.84 36.3 99.88 55.08 39.4 35.5 77.9 72.16 116.9 108.19 11.2 12.11-2.3 33.08-17.7 27.8-40.3-13.15-80.5-26.47-120.7-39.45-29.73-7.77-54.26-27.06-81.37-40.56-1.64 0.96-5.75 2.96-2.43 4.46 19.87 11.04 39.15 23.29 59.52 33.39 47.08 16.55 94.78 31.36 142.08 47.2 14.6 5.69 32.2-7.31 29.8-22.83 0.6-13.66-13.4-20.2-21.2-29.03-34.2-31.1-67-63.88-102-94.09-33.77-19.67-68.11-38.68-102.71-56.89 3.36 7.24-9.45-5.46-2.47-2.41-3.43-4.06-6.13-12.46-12.27-12.49m-18.45 51.81c2.4 7.2 4.7 14.71 3.69 22.41 7.61-1.62 16.08-3.09 23.36 0.42 27.33 14 53.5 30.33 80.94 44.1-0.65-2.15-1.87-4.11-3.94-5.11-34.72-20.54-69.54-40.92-104.05-61.82m-160.24 72.27c-10.76 3.71-21.35 8.1-31.79 12.65 10.6 8.35 24.35 0.63 32.61-6.1 5.22 1.73 9.86-2.25 14.41-4.14-3.52-2.97-10.43-2.8-15.23-2.41m81.51 3.72c-1.02 4.62 4.62-1.02 0 0m98.21 0.06c-6.01 2.19 2.65 8.33 4.49 3.62 2.9-2.44-2.48-4.09-4.49-3.62m-7.13 7.14c-10.81 14.68-34.48 15.47-43.19 29.55 17.5-5.21 33.8-14.42 47.64-26.28 0.54-2.09-2.86-2.85-4.45-3.27m-182.93 5.85c-8.46 1.47-10.42 6.14 0.83 5.52-12.64-1.28 0.57 28.24 4 12.44-9.24 5.65-1.25-7.19 0.63-11.15 1.53 4.46 3.8 1.68 5.38-0.89 0.39 4.34-4.53 6.41-4.39 10.59 14.94-7.13 40.27 6.82 47.16-12.88-15.61-1.59-43.26 3.55-53.61-3.63m60.15 3.9c-0.12 5.03 5.06-1.67 0 0m6.31 0.83c0.71 7 6.39 1.6 0 0m5.65 1.99c0.18 6.4 7.11-1 0 0m-10.45 0.95c-6.21 8.34 8.36 4.09 0 0m15.99 0.14c0.61 6.26 7.38-0.3 0 0m-3.84 3.12c-3.08 3.46 4.7 1.08 0 0m-110.54 8.97c-0.47 5.56 5.54-0.63 0 0m4.36-0.08c-3.48 8.51 9.79 2.37 0 0m167.22 2.26c-11.96 6.47 2.67 4.67 0 0m-177.78 1.2c-1.64 5.26-4.31 10.06-7.16 14.77 5.77-3.88 20.48-13.29 7.16-14.77m35.97 2.02c-2.03 5.46-12.35 11.59-5.42 16.54-6.35 6-14.94 9.54-19.81 17.08 10.95-7.22 32.92-18.67 25.23-33.62m70.94-0.28c-7.29 0.82-15.38 0.47-20.79 6.43 6.66 2.44 23.19-1.14 20.79-6.43m-60.36 0.23c5.37 14.96 26.92 21.71 40.11 13.53-14.73-1.62-27.15-8.21-40.11-13.53m24.68 1.99c-10.14 1.43 12.92 6.91 12.03-0.4-3.99-0.66-8.08 0.25-12.03 0.4m-12.04 0.64c-0.78 2.93 6.65 5.89 9.54 3.42-2.65-2.18-5.75-4.81-9.54-3.42m-74.22 2.36c-4.33 4.44-9.71 8.09-15.03 10.49 0.58 19.92 30.94-4.54 15.03-10.49m187.13 0.84c-11.7 14.16-17.92 35.27-33.68 47.51-22.21 22.47-57.34 28.24-86.66 17.96-3.06-1.22-7.35-2.6-9.16 1.25 22.55 9.74 48.85 10.74 71.78 1.72 27.67-10.98 46-36.67 58.31-62.73 0.91-1.7 3.64-7.24-0.59-5.71m-132 3.34c-1.49 3.5-4.73 6.8-4.75 10.58 6.3-1.04 11.94 1.03 17.29 3.93-5.11-3.78-9.25-11.26-12.54-14.51m-69.55 14.79c-1 7.11 6.4 0.18 0 0m68.53 43.79c-7.23 7.67 13.87-0.27 0 0z"/>
<path id="path6" d="m50.73 37.23c1.69-0.47 13.46-1.05 7.22 1.67-6.96 4.27 9.19 0.52 3.07 5.38 100.02 56.6 198.49 115.91 297.69 173.93 1.12 0.43 4.86 3.83 1.82 2.38-102.04-56.8-204.11-113.85-304.75-173.15-10.27 3.5-18.64 25.88-3.93 29.82 10.89 7.05 23.14 12.55 32.95 20.98-14.23-7.34-34.77-17.38-44.59-22.47 4.57 12.71-10.45-6.75-2.43-2.51 6.04 2.73-6.79-7.51 1.02-4.73-0.4-9.78 4.58-17.63 11.05-24.33-6.58-3.51-0.73-3.8 4.39-2.42 3.15-2.43-5.65-3.47-3.51-4.55z"/>
<path id="path8" d="m685.06 165.5c37.62 36.23 75.49 73.02 110.38 112.11 11.97 31.62 21.05 64.31 31.66 96.43-21.6-36.96-26.81-85.95-63.22-112.92-27.75-27.21-55.57-54.33-83.07-81.76-74.23 16.94-147.4 39.95-223.18 49.21-5.94 1.94-18.05 8.89-7.88 13.63 7.73 7.9-6.25-1.41-9.71-4.18 3.45-5.85 7.33-11.47 11.35-16.94 77.93-18.34 155.92-36.5 233.67-55.58z"/>
<path id="path10" d="m362.61 221.16c9.76 2.92 4.24 5.72 0 0z"/>
<path id="path12" d="m337.24 276.57c5.89-0.55 1.24 5.25 0 0z"/>
<path id="path14" d="m344.24 280.57c5.89-0.55 1.24 5.25 0 0z"/>
<path id="path16" d="m349.41 282.86c2.82 1.67 0.76 5.06-0.33 7.1-26.36 48.69-50.71 98.65-81.04 145.07-15.61 23.77-43.12 35.01-66.24 49-0.68 68.93 9.09 138.75 32.25 204-26.04-64.58-35.23-136.73-34.25-206.15 27.05-15.23 58.08-29.72 73.16-58.91 27.21-45.6 54.86-92.06 76.45-140.11z"/>
<path id="path18" d="m581.25 297.33c2.67 3.64-5.32 2.2 0 0z"/>
<path id="path20" d="m392.46 303.48c44.53 22.63 88.93 49.57 132.49 75.43 3.51 2.5 9.74 4.03 8.37 9.91 2.87 34.36 4.14 68.83 5.31 103.28-0.87 3.83 1.31 8.64 5.51 9.04 15.67 1.96 31.27 4.51 46.84 7.13-11.03 1.7-23.58-2.2-35.3-1.94-6.61-0.63-18.11 0.63-20.29-8.01-4.61-35.86-6.96-72.05-12.69-107.75-41-23.12-82.72-45.14-123.4-68.88-1.81-1.65-3.72 0.78-4.21 2.41-37.47 63.79-65.24 136.64-125.2 183.78-4.67 5.7-15.74 6.92-16.23 15.45 73-42.7 104-125.48 145.5-194.37 39.32 20.9 78 43.5 116.95 65.16 5.51 33.66 7.74 68.56 10.96 102.77 0.93 8.99 8.71 16.23 17.82 16.26 56.17 4.2 111.56 16.79 164.75 35.16 8.45 2.61 17.11 7.69 26.15 4.7 34.94-8.94 73.05-15.85 108.1-3.94 16.62 5.05 16.9 30.66 2 37.89-37.94 19.34-81.68 10.02-122.08 7.65-76.52 32.25-153.22 64.53-232.34 89.98-0.8-0.14-3.86 1.54-3-0.14 73.87-25.98 145.51-57.86 217.57-88.39 9.15-3.7 18.71-9.53 29.01-7.12 35.03 4.78 73.12 9.25 105.96-6.79 11.36-3.72 11.21-22.93-0.83-25.37-32.99-8.92-67.95-2.89-100.23 6.27-8.1 3.04-16.78 1.95-24.57-1.36-54.61-19.88-111.36-34.63-169.37-39.7-13.83 0.32-26.43-10.84-27.41-24.72-2.4-31.37-4.81-62.77-8.78-93.99-0.28-2.62-1.44-5.19-4.06-6.17-35.11-18.84-69.39-39.46-104.53-58.07-11.73 18.1-22.08 36.99-32.12 56.06-28.41 50.74-64.49 99.55-114.89 130.23 4.24 61.73 20.51 121.99 39.69 180.57-4.91 2.05-10.57-0.73-15.01-2.82-3.78-5.56 9.23-2.9 6.69-8.65-26.75-56.78-41.85-118.67-45.58-181.28-7.85 4.72 0.09-10.62 1.02-1.18 77.68-46.27 105.93-135.94 151.43-208.49m-105.88 394.5c-16.38 3.8 13.42 12.36 0 0z"/>
<path id="path22" d="m361.62 658.39c36.54 9.14 71.97 28.05 108.85 36.04 22.64-5.25 44.42-13.54 66.56-20.48-21.81 10.07-45.87 16.63-69.07 23.72-34.4-11.65-68.82-23.53-102.46-37.18-20.71 5.64-38.34 22-58.44 30.54 17.64-11.59 36.08-22.42 54.56-32.64z"/>
<path id="path24" d="m233.86 689.12c5.54 5.57 0.81 9.12 0 0z"/>
<path id="path26" d="m305.3 691.35c1.46 4.28-6.69 1.35 0 0z"/>
<path id="path28" d="m236.79 697.12c5.62 4.7 1 7.91 0 0z"/>
<path id="path30" d="m240.18 704.61c4.65 1.27-1.47 5.22 0 0z"/>
<path id="path32" d="m243.18 711.61c4.65 1.27-1.47 5.22 0 0z"/>
<path id="path34" d="m712.83 736.24c-2.48 4.71-10.39 6.18-15.64 7.96 3.85-4.02 10.77-4.97 15.64-7.96z"/>
<path id="path36" d="m272.19 748.19c6.97 0.6-2.37 4.71 0 0z"/>
</g>
</svg>
